M48
;Layer_Color=9474304
;FILE_FORMAT=4:4
METRIC,LZ
;TYPE=PLATED
T1F00S00C0.3000
T2F00S00C0.7620
T3F00S00C0.8000
T4F00S00C1.0000
T5F00S00C1.1000
%
T01
X00652044Y00122536
X00390483Y00132197
X00181462Y00074602
X00171854Y0007462
X00146643Y00035677
X00144103Y00251577
X00169383Y00329277
X00178188Y00329259
X00229193Y00369941
T02
X00074643Y00075119
X00124643
X00149643Y00125119
X00099643
X00049643
X00074643Y00175119
X00124643
X00049643Y00225119
Y00275119
Y00325119
X003Y0059
X0036
X0033Y0063
X0039
X0027
X0045
X0051
X0057
X0054Y0059
X0048
X0042
T03
X00693643Y00480277
X00769643
T04
X00599643Y00459277
Y00561277
X00859643
Y00459277
T05
X00825043Y00030277
X00799643
X00774243
X00748843
X00723443
X00698043
X00624163Y00033137
X00599163
X00599643Y00122477
Y00147877
Y00173277
Y00198677
Y00224077
Y00249477
Y00274877
Y00300277
X00525043Y00389477
X00499643
Y00414877
Y00440277
Y00465677
Y00491077
X00525043
Y00465677
Y00440277
Y00414877
X00664243Y00590277
X00689643
X00766943
X00792343
M30
