G04*
G04 #@! TF.GenerationSoftware,Altium Limited,Altium Designer,21.4.1 (30)*
G04*
G04 Layer_Color=2752767*
%FSLAX44Y44*%
%MOMM*%
G71*
G04*
G04 #@! TF.SameCoordinates,02D7BDB2-D434-4152-92C4-171F5B89420C*
G04*
G04*
G04 #@! TF.FilePolarity,Positive*
G04*
G01*
G75*
%ADD35C,0.0508*%
%ADD36C,0.0677*%
D35*
X537968Y587968D02*
Y592032D01*
X542032D01*
Y587968D01*
X537968D01*
X477968D02*
Y592032D01*
X482032D01*
Y587968D01*
X477968D01*
X417968D02*
Y592032D01*
X422032D01*
Y587968D01*
X417968D01*
X357968D02*
Y592032D01*
X362032D01*
Y587968D01*
X357968D01*
X297968D02*
Y592032D01*
X302032D01*
Y587968D01*
X297968D01*
X567968Y627968D02*
Y632032D01*
X572032D01*
Y627968D01*
X567968D01*
X507968D02*
Y632032D01*
X512032D01*
Y627968D01*
X507968D01*
X447968D02*
Y632032D01*
X452032D01*
Y627968D01*
X447968D01*
X387968D02*
Y632032D01*
X392032D01*
Y627968D01*
X387968D01*
X327968D02*
Y632032D01*
X332032D01*
Y627968D01*
X327968D01*
X267968D02*
Y632032D01*
X272032D01*
Y627968D01*
X267968D01*
X693643Y478245D02*
X691611Y482309D01*
X695675D01*
X693643Y478245D01*
X769643D02*
X767611Y482309D01*
X771675D01*
X769643Y478245D01*
X859643Y457245D02*
X860659Y458261D01*
X861675D01*
X860659Y459277D01*
X861675Y460293D01*
X860659D01*
X859643Y461309D01*
X858627Y460293D01*
X857611D01*
X858627Y459277D01*
X857611Y458261D01*
X858627D01*
X859643Y457245D01*
Y559245D02*
X860659Y560261D01*
X861675D01*
X860659Y561277D01*
X861675Y562293D01*
X860659D01*
X859643Y563309D01*
X858627Y562293D01*
X857611D01*
X858627Y561277D01*
X857611Y560261D01*
X858627D01*
X859643Y559245D01*
X599643D02*
X600659Y560261D01*
X601675D01*
X600659Y561277D01*
X601675Y562293D01*
X600659D01*
X599643Y563309D01*
X598627Y562293D01*
X597611D01*
X598627Y561277D01*
X597611Y560261D01*
X598627D01*
X599643Y559245D01*
Y457245D02*
X600659Y458261D01*
X601675D01*
X600659Y459277D01*
X601675Y460293D01*
X600659D01*
X599643Y461309D01*
X598627Y460293D01*
X597611D01*
X598627Y459277D01*
X597611Y458261D01*
X598627D01*
X599643Y457245D01*
X147611Y123087D02*
Y127151D01*
X151675D01*
Y123087D01*
X147611D01*
X122611Y73087D02*
Y77151D01*
X126675D01*
Y73087D01*
X122611D01*
Y173087D02*
Y177151D01*
X126675D01*
Y173087D01*
X122611D01*
X97611Y123087D02*
Y127151D01*
X101675D01*
Y123087D01*
X97611D01*
X72611Y73087D02*
Y77151D01*
X76675D01*
Y73087D01*
X72611D01*
X47611Y123087D02*
Y127151D01*
X51675D01*
Y123087D01*
X47611D01*
X72611Y173087D02*
Y177151D01*
X76675D01*
Y173087D01*
X72611D01*
X47611Y223087D02*
Y227151D01*
X51675D01*
Y223087D01*
X47611D01*
Y273087D02*
Y277151D01*
X51675D01*
Y273087D01*
X47611D01*
Y323087D02*
Y327151D01*
X51675D01*
Y323087D01*
X47611D01*
X867611Y628087D02*
X868627Y630119D01*
X867611Y632151D01*
X869643Y631135D01*
X871675Y632151D01*
X870659Y630119D01*
X871675Y628087D01*
X869643Y629103D01*
X867611Y628087D01*
Y28087D02*
X868627Y30119D01*
X867611Y32151D01*
X869643Y31135D01*
X871675Y32151D01*
X870659Y30119D01*
X871675Y28087D01*
X869643Y29103D01*
X867611Y28087D01*
X27611D02*
X28627Y30119D01*
X27611Y32151D01*
X29643Y31135D01*
X31675Y32151D01*
X30659Y30119D01*
X31675Y28087D01*
X29643Y29103D01*
X27611Y28087D01*
Y628087D02*
X28627Y630119D01*
X27611Y632151D01*
X29643Y631135D01*
X31675Y632151D01*
X30659Y630119D01*
X31675Y628087D01*
X29643Y629103D01*
X27611Y628087D01*
X143087Y250561D02*
Y249545D01*
X145119D01*
Y250561D01*
X146135D01*
Y252593D01*
X145119D01*
Y253609D01*
X143087D01*
Y252593D01*
X142071D01*
Y250561D01*
X143087D01*
X651028Y121520D02*
Y120504D01*
X653060D01*
Y121520D01*
X654076D01*
Y123552D01*
X653060D01*
Y124568D01*
X651028D01*
Y123552D01*
X650012D01*
Y121520D01*
X651028D01*
X145627Y34661D02*
Y33645D01*
X147659D01*
Y34661D01*
X148675D01*
Y36693D01*
X147659D01*
Y37709D01*
X145627D01*
Y36693D01*
X144611D01*
Y34661D01*
X145627D01*
X389467Y131181D02*
Y130165D01*
X391499D01*
Y131181D01*
X392515D01*
Y133213D01*
X391499D01*
Y134229D01*
X389467D01*
Y133213D01*
X388451D01*
Y131181D01*
X389467D01*
X180446Y73586D02*
Y72570D01*
X182478D01*
Y73586D01*
X183494D01*
Y75618D01*
X182478D01*
Y76634D01*
X180446D01*
Y75618D01*
X179430D01*
Y73586D01*
X180446D01*
X177172Y328243D02*
Y327227D01*
X179204D01*
Y328243D01*
X180220D01*
Y330275D01*
X179204D01*
Y331291D01*
X177172D01*
Y330275D01*
X176156D01*
Y328243D01*
X177172D01*
X170839Y73604D02*
Y72588D01*
X172871D01*
Y73604D01*
X173887D01*
Y75636D01*
X172871D01*
Y76652D01*
X170839D01*
Y75636D01*
X169823D01*
Y73604D01*
X170839D01*
X168367Y328261D02*
Y327245D01*
X170399D01*
Y328261D01*
X171415D01*
Y330293D01*
X170399D01*
Y331309D01*
X168367D01*
Y330293D01*
X167351D01*
Y328261D01*
X168367D01*
X228177Y368925D02*
Y367909D01*
X230209D01*
Y368925D01*
X231225D01*
Y370957D01*
X230209D01*
Y371973D01*
X228177D01*
Y370957D01*
X227161D01*
Y368925D01*
X228177D01*
D36*
X501675Y491077D02*
G03*
X501675Y491077I-2032J0D01*
G01*
Y465677D02*
G03*
X501675Y465677I-2032J0D01*
G01*
Y440277D02*
G03*
X501675Y440277I-2032J0D01*
G01*
Y414877D02*
G03*
X501675Y414877I-2032J0D01*
G01*
Y389477D02*
G03*
X501675Y389477I-2032J0D01*
G01*
X527075Y491077D02*
G03*
X527075Y491077I-2032J0D01*
G01*
Y465677D02*
G03*
X527075Y465677I-2032J0D01*
G01*
Y440277D02*
G03*
X527075Y440277I-2032J0D01*
G01*
Y414877D02*
G03*
X527075Y414877I-2032J0D01*
G01*
Y389477D02*
G03*
X527075Y389477I-2032J0D01*
G01*
X626195Y33137D02*
G03*
X626195Y33137I-2032J0D01*
G01*
X601195D02*
G03*
X601195Y33137I-2032J0D01*
G01*
X827075Y30277D02*
G03*
X827075Y30277I-2032J0D01*
G01*
X801675D02*
G03*
X801675Y30277I-2032J0D01*
G01*
X776275D02*
G03*
X776275Y30277I-2032J0D01*
G01*
X750875D02*
G03*
X750875Y30277I-2032J0D01*
G01*
X725475D02*
G03*
X725475Y30277I-2032J0D01*
G01*
X700075D02*
G03*
X700075Y30277I-2032J0D01*
G01*
X601675Y122477D02*
G03*
X601675Y122477I-2032J0D01*
G01*
Y147877D02*
G03*
X601675Y147877I-2032J0D01*
G01*
Y173277D02*
G03*
X601675Y173277I-2032J0D01*
G01*
Y198677D02*
G03*
X601675Y198677I-2032J0D01*
G01*
Y224077D02*
G03*
X601675Y224077I-2032J0D01*
G01*
Y249477D02*
G03*
X601675Y249477I-2032J0D01*
G01*
Y274877D02*
G03*
X601675Y274877I-2032J0D01*
G01*
Y300277D02*
G03*
X601675Y300277I-2032J0D01*
G01*
X666275Y590277D02*
G03*
X666275Y590277I-2032J0D01*
G01*
X691675D02*
G03*
X691675Y590277I-2032J0D01*
G01*
X768975D02*
G03*
X768975Y590277I-2032J0D01*
G01*
X794375D02*
G03*
X794375Y590277I-2032J0D01*
G01*
M02*
