G04*
G04 #@! TF.GenerationSoftware,Altium Limited,Altium Designer,21.4.1 (30)*
G04*
G04 Layer_Color=255*
%FSLAX44Y44*%
%MOMM*%
G71*
G04*
G04 #@! TF.SameCoordinates,02D7BDB2-D434-4152-92C4-171F5B89420C*
G04*
G04*
G04 #@! TF.FilePolarity,Positive*
G04*
G01*
G75*
%ADD11R,1.0200X2.5000*%
%ADD25C,1.5240*%
%ADD26C,1.6000*%
%ADD27R,1.6000X1.6000*%
%ADD28C,1.6500*%
%ADD29R,1.6500X1.6500*%
%ADD30R,1.6000X1.6000*%
%ADD31C,2.0000*%
%ADD32C,1.7000*%
%ADD33C,3.2000*%
D11*
X458243Y329277D02*
D03*
X407443D02*
D03*
X356643D02*
D03*
X305843D02*
D03*
X255043D02*
D03*
X204243D02*
D03*
X153443D02*
D03*
X483643Y290277D02*
D03*
X432843D02*
D03*
X382043D02*
D03*
X331243D02*
D03*
X280443D02*
D03*
X229643D02*
D03*
X178843D02*
D03*
X128043D02*
D03*
X458243Y75277D02*
D03*
X407443D02*
D03*
X356643D02*
D03*
X305843D02*
D03*
X255043D02*
D03*
X204243D02*
D03*
X153443D02*
D03*
X483643Y36277D02*
D03*
X432843D02*
D03*
X382043D02*
D03*
X331243D02*
D03*
X280443D02*
D03*
X229643D02*
D03*
X178843D02*
D03*
X128043D02*
D03*
D25*
X540000Y590000D02*
D03*
X480000D02*
D03*
X420000D02*
D03*
X360000D02*
D03*
X300000D02*
D03*
X570000Y630000D02*
D03*
X510000D02*
D03*
X450000D02*
D03*
X390000D02*
D03*
X330000D02*
D03*
X270000D02*
D03*
X149643Y125119D02*
D03*
X124643Y75119D02*
D03*
Y175119D02*
D03*
X99643Y125119D02*
D03*
X74643Y75119D02*
D03*
X49643Y125119D02*
D03*
X74643Y175119D02*
D03*
X49643Y225119D02*
D03*
Y275119D02*
D03*
Y325119D02*
D03*
D26*
X499643Y491077D02*
D03*
Y465677D02*
D03*
Y440277D02*
D03*
Y414877D02*
D03*
Y389477D02*
D03*
X525043Y465677D02*
D03*
Y440277D02*
D03*
Y414877D02*
D03*
Y389477D02*
D03*
X799643Y30277D02*
D03*
X774243D02*
D03*
X748843D02*
D03*
X723443D02*
D03*
X698043D02*
D03*
X599643Y122477D02*
D03*
Y147877D02*
D03*
Y173277D02*
D03*
Y198677D02*
D03*
Y224077D02*
D03*
Y249477D02*
D03*
Y274877D02*
D03*
X664243Y590277D02*
D03*
X689643D02*
D03*
X766943D02*
D03*
X792343D02*
D03*
D27*
X525043Y491077D02*
D03*
X599643Y300277D02*
D03*
D28*
X624163Y33137D02*
D03*
D29*
X599163D02*
D03*
D30*
X825043Y30277D02*
D03*
D31*
X693643Y480277D02*
D03*
X769643D02*
D03*
D32*
X859643Y459277D02*
D03*
Y561277D02*
D03*
X599643D02*
D03*
Y459277D02*
D03*
D33*
X869643Y630119D02*
D03*
Y30119D02*
D03*
X29643D02*
D03*
Y630119D02*
D03*
M02*
