G04*
G04 #@! TF.GenerationSoftware,Altium Limited,Altium Designer,21.4.1 (30)*
G04*
G04 Layer_Color=65535*
%FSLAX44Y44*%
%MOMM*%
G71*
G04*
G04 #@! TF.SameCoordinates,02D7BDB2-D434-4152-92C4-171F5B89420C*
G04*
G04*
G04 #@! TF.FilePolarity,Positive*
G04*
G01*
G75*
%ADD10C,0.2000*%
G36*
X44254Y374385D02*
X43375D01*
X43199Y374326D01*
X42965Y374268D01*
X42701Y374150D01*
X42438Y374004D01*
X42174Y373770D01*
X41940Y373477D01*
Y373447D01*
X41911Y373389D01*
X41852Y373272D01*
X41823Y373096D01*
X41764Y372832D01*
X41706Y372510D01*
X41676Y372100D01*
Y371603D01*
Y364310D01*
Y364281D01*
Y364193D01*
Y364047D01*
Y363871D01*
X41647Y363637D01*
Y363373D01*
X41618Y362787D01*
X41530Y362114D01*
X41442Y361411D01*
X41296Y360737D01*
X41120Y360122D01*
Y360093D01*
X41091Y360064D01*
X41061Y359976D01*
X41003Y359888D01*
X40856Y359595D01*
X40651Y359244D01*
X40388Y358834D01*
X40007Y358424D01*
X39568Y357984D01*
X39011Y357574D01*
X38982D01*
X38953Y357516D01*
X38865Y357486D01*
X38718Y357399D01*
X38572Y357340D01*
X38367Y357252D01*
X38162Y357135D01*
X37898Y357047D01*
X37606Y356959D01*
X37283Y356842D01*
X36932Y356754D01*
X36581Y356696D01*
X35731Y356579D01*
X34765Y356520D01*
X34472D01*
X34296Y356549D01*
X34033D01*
X33769Y356579D01*
X33447Y356608D01*
X33125Y356637D01*
X32393Y356754D01*
X31660Y356930D01*
X30928Y357194D01*
X30606Y357340D01*
X30313Y357516D01*
X30284D01*
X30255Y357574D01*
X30079Y357691D01*
X29786Y357926D01*
X29464Y358248D01*
X29113Y358629D01*
X28761Y359097D01*
X28439Y359654D01*
X28146Y360269D01*
Y360298D01*
X28117Y360327D01*
Y360386D01*
X28087Y360503D01*
X28058Y360649D01*
X28029Y360825D01*
X27970Y361030D01*
X27941Y361264D01*
X27912Y361557D01*
X27853Y361850D01*
X27824Y362231D01*
X27795Y362641D01*
X27765Y363080D01*
Y363578D01*
X27736Y364105D01*
Y364691D01*
Y371720D01*
Y371749D01*
Y371778D01*
Y371866D01*
Y371983D01*
X27707Y372276D01*
X27678Y372598D01*
X27619Y372950D01*
X27531Y373301D01*
X27414Y373623D01*
X27267Y373857D01*
X27238Y373887D01*
X27180Y373945D01*
X27062Y374033D01*
X26916Y374121D01*
X26711Y374209D01*
X26448Y374297D01*
X26155Y374355D01*
X25803Y374385D01*
X25130D01*
Y374883D01*
X32891D01*
Y374385D01*
X32012D01*
X31807Y374355D01*
X31573Y374297D01*
X31309Y374209D01*
X31045Y374092D01*
X30811Y373916D01*
X30606Y373682D01*
Y373652D01*
X30548Y373594D01*
X30518Y373447D01*
X30460Y373272D01*
X30401Y373008D01*
X30343Y372657D01*
X30313Y372247D01*
X30284Y371720D01*
Y363871D01*
Y363812D01*
Y363695D01*
Y363461D01*
X30313Y363197D01*
Y362846D01*
X30372Y362436D01*
X30401Y361967D01*
X30460Y361469D01*
Y361411D01*
X30489Y361235D01*
X30548Y361001D01*
X30635Y360708D01*
X30723Y360357D01*
X30840Y360005D01*
X30987Y359683D01*
X31163Y359361D01*
X31192Y359332D01*
X31251Y359244D01*
X31368Y359097D01*
X31543Y358922D01*
X31719Y358746D01*
X31983Y358541D01*
X32276Y358336D01*
X32598Y358131D01*
X32656Y358102D01*
X32773Y358072D01*
X32978Y357984D01*
X33242Y357896D01*
X33593Y357809D01*
X34003Y357750D01*
X34443Y357691D01*
X34941Y357662D01*
X35233D01*
X35556Y357691D01*
X35995Y357750D01*
X36493Y357838D01*
X36991Y357984D01*
X37547Y358160D01*
X38074Y358424D01*
X38103D01*
X38133Y358453D01*
X38308Y358570D01*
X38543Y358717D01*
X38836Y358951D01*
X39158Y359244D01*
X39480Y359566D01*
X39743Y359947D01*
X39978Y360386D01*
Y360415D01*
X40007Y360444D01*
X40036Y360503D01*
X40066Y360620D01*
X40095Y360767D01*
X40153Y360913D01*
X40183Y361118D01*
X40241Y361352D01*
X40300Y361616D01*
X40329Y361909D01*
X40388Y362231D01*
X40417Y362612D01*
X40446Y362992D01*
X40476Y363432D01*
X40505Y363900D01*
Y364427D01*
Y371720D01*
Y371749D01*
Y371778D01*
Y371866D01*
Y371983D01*
X40476Y372276D01*
X40446Y372598D01*
X40417Y372950D01*
X40359Y373301D01*
X40241Y373594D01*
X40124Y373799D01*
X40095Y373828D01*
X40036Y373887D01*
X39919Y373975D01*
X39743Y374092D01*
X39509Y374209D01*
X39275Y374297D01*
X38953Y374355D01*
X38601Y374385D01*
X37928D01*
Y374883D01*
X44254D01*
Y374385D01*
D02*
G37*
G36*
X52541Y360093D02*
Y360064D01*
Y360034D01*
Y359859D01*
Y359595D01*
X52571Y359273D01*
Y358951D01*
X52600Y358658D01*
X52629Y358394D01*
X52659Y358189D01*
X52688Y358131D01*
X52776Y357984D01*
X52922Y357809D01*
X53156Y357633D01*
X53186D01*
X53244Y357604D01*
X53362Y357574D01*
X53508Y357545D01*
X53742Y357486D01*
X54035Y357457D01*
X54387Y357428D01*
X54797D01*
Y356930D01*
X48032D01*
Y357428D01*
X48442D01*
X48705Y357457D01*
X48998D01*
X49261Y357516D01*
X49496Y357545D01*
X49672Y357604D01*
X49701D01*
X49730Y357633D01*
X49876Y357750D01*
X50052Y357926D01*
X50199Y358131D01*
Y358160D01*
X50228Y358219D01*
X50257Y358336D01*
X50286Y358512D01*
Y358775D01*
X50316Y359097D01*
X50345Y359537D01*
Y359800D01*
Y360093D01*
Y369757D01*
Y369787D01*
Y369845D01*
Y369933D01*
Y370080D01*
Y370402D01*
X50316Y370782D01*
Y371222D01*
X50286Y371632D01*
X50257Y371983D01*
X50228Y372130D01*
X50199Y372247D01*
Y372276D01*
X50169Y372305D01*
X50111Y372481D01*
X50023Y372715D01*
X49847Y372891D01*
X49818Y372920D01*
X49701Y373008D01*
X49525Y373067D01*
X49291Y373096D01*
X49203D01*
X49086Y373067D01*
X48939Y373037D01*
X48734Y373008D01*
X48500Y372920D01*
X48236Y372832D01*
X47914Y372686D01*
X47739Y373096D01*
X52102Y375234D01*
X52541D01*
Y360093D01*
D02*
G37*
G36*
X610589Y89532D02*
X610706Y89502D01*
X611028Y89385D01*
X611175Y89298D01*
X611321Y89151D01*
X611350Y89122D01*
X611380Y89093D01*
X611438Y89005D01*
X611526Y88888D01*
X611672Y88595D01*
X611702Y88419D01*
X611731Y88214D01*
Y88185D01*
Y88126D01*
X611702Y88009D01*
X611672Y87892D01*
X611555Y87570D01*
X611467Y87394D01*
X611321Y87247D01*
X611292Y87218D01*
X611262Y87189D01*
X611175Y87130D01*
X611057Y87072D01*
X610765Y86925D01*
X610589Y86896D01*
X610384Y86867D01*
X610296D01*
X610179Y86896D01*
X610062Y86925D01*
X609739Y87043D01*
X609564Y87130D01*
X609417Y87247D01*
X609388Y87277D01*
X609359Y87335D01*
X609300Y87394D01*
X609242Y87511D01*
X609095Y87833D01*
X609066Y88009D01*
X609037Y88214D01*
Y88243D01*
Y88302D01*
X609066Y88419D01*
X609095Y88536D01*
X609212Y88858D01*
X609300Y89005D01*
X609417Y89151D01*
X609447Y89180D01*
X609476Y89210D01*
X609564Y89268D01*
X609681Y89356D01*
X609974Y89502D01*
X610179Y89532D01*
X610384Y89561D01*
X610472D01*
X610589Y89532D01*
D02*
G37*
G36*
X622772Y83177D02*
X623006Y83147D01*
X623270Y83089D01*
X623563Y83001D01*
X623855Y82884D01*
X624119Y82708D01*
X624148Y82679D01*
X624236Y82620D01*
X624353Y82503D01*
X624529Y82327D01*
X624705Y82093D01*
X624910Y81800D01*
X625085Y81478D01*
X625261Y81068D01*
Y81039D01*
X625320Y80922D01*
X625349Y80746D01*
X625408Y80482D01*
X625466Y80131D01*
X625495Y79721D01*
X625554Y79223D01*
Y78637D01*
Y73483D01*
Y73424D01*
Y73307D01*
Y73102D01*
X625583Y72839D01*
X625642Y72312D01*
X625671Y72077D01*
X625730Y71901D01*
X625759Y71843D01*
X625847Y71697D01*
X625993Y71521D01*
X626198Y71374D01*
X626228D01*
X626257Y71345D01*
X626345Y71316D01*
X626462Y71287D01*
X626638Y71257D01*
X626843Y71228D01*
X627106Y71199D01*
X627399D01*
Y70730D01*
X621395D01*
Y71199D01*
X621922D01*
X622098Y71228D01*
X622479Y71287D01*
X622655Y71345D01*
X622801Y71433D01*
X622830D01*
X622860Y71491D01*
X623006Y71638D01*
X623153Y71872D01*
X623299Y72224D01*
Y72282D01*
X623328Y72341D01*
Y72458D01*
Y72604D01*
X623358Y72839D01*
Y73131D01*
Y73483D01*
Y78432D01*
Y78462D01*
Y78491D01*
Y78579D01*
Y78696D01*
X623328Y78989D01*
X623299Y79340D01*
X623240Y79750D01*
X623182Y80131D01*
X623065Y80512D01*
X622918Y80834D01*
X622889Y80863D01*
X622830Y80951D01*
X622713Y81068D01*
X622567Y81215D01*
X622362Y81361D01*
X622127Y81478D01*
X621835Y81566D01*
X621483Y81595D01*
X621337D01*
X621220Y81566D01*
X620897Y81507D01*
X620517Y81390D01*
X620019Y81185D01*
X619785Y81039D01*
X619521Y80863D01*
X619228Y80658D01*
X618965Y80453D01*
X618672Y80160D01*
X618379Y79867D01*
Y73483D01*
Y73424D01*
Y73278D01*
Y73073D01*
X618408Y72809D01*
Y72546D01*
X618437Y72312D01*
X618467Y72077D01*
X618496Y71931D01*
Y71901D01*
X618525Y71872D01*
X618643Y71726D01*
X618818Y71550D01*
X619023Y71374D01*
X619053D01*
X619082Y71345D01*
X619170Y71316D01*
X619316Y71287D01*
X619492Y71257D01*
X619726Y71228D01*
X619990Y71199D01*
X620341D01*
Y70730D01*
X614337D01*
Y71199D01*
X614747D01*
X614894Y71228D01*
X615099Y71257D01*
X615304Y71316D01*
X615509Y71404D01*
X615685Y71521D01*
X615831Y71667D01*
X615860Y71697D01*
X615890Y71755D01*
X615948Y71901D01*
X616007Y72077D01*
X616065Y72312D01*
X616124Y72634D01*
X616182Y73014D01*
Y73483D01*
Y77993D01*
Y78022D01*
Y78081D01*
Y78198D01*
Y78344D01*
Y78696D01*
Y79135D01*
X616153Y79604D01*
X616124Y80014D01*
X616095Y80394D01*
Y80512D01*
X616065Y80629D01*
Y80658D01*
X616036Y80717D01*
X616007Y80892D01*
X615919Y81097D01*
X615831Y81215D01*
X615772Y81273D01*
X615743Y81302D01*
X615626Y81361D01*
X615450Y81419D01*
X615216Y81449D01*
X615070D01*
X614952Y81419D01*
X614660Y81390D01*
X614308Y81273D01*
X614132Y81742D01*
X617793Y83206D01*
X618379D01*
Y80629D01*
X618408Y80658D01*
X618467Y80746D01*
X618584Y80863D01*
X618730Y81039D01*
X618935Y81215D01*
X619140Y81449D01*
X619404Y81683D01*
X619668Y81917D01*
X620283Y82386D01*
X620634Y82620D01*
X620985Y82796D01*
X621337Y82972D01*
X621688Y83089D01*
X622069Y83177D01*
X622420Y83206D01*
X622596D01*
X622772Y83177D01*
D02*
G37*
G36*
X606079Y88185D02*
X606049D01*
X605932Y88155D01*
X605756Y88097D01*
X605522Y88038D01*
X605054Y87863D01*
X604819Y87716D01*
X604614Y87570D01*
X604585Y87540D01*
X604497Y87452D01*
X604351Y87306D01*
X604204Y87072D01*
X603999Y86808D01*
X603794Y86457D01*
X603589Y86047D01*
X603384Y85578D01*
X597146Y70320D01*
X596648D01*
X589971Y85754D01*
X589942Y85813D01*
X589883Y85959D01*
X589795Y86135D01*
X589678Y86398D01*
X589561Y86632D01*
X589444Y86867D01*
X589327Y87072D01*
X589239Y87218D01*
Y87247D01*
X589180Y87277D01*
X589005Y87452D01*
X588770Y87657D01*
X588419Y87863D01*
X588390D01*
X588331Y87892D01*
X588214Y87950D01*
X588097Y87980D01*
X587892Y88038D01*
X587687Y88097D01*
X587423Y88155D01*
X587131Y88185D01*
Y88682D01*
X594423D01*
Y88185D01*
X594364D01*
X594218Y88155D01*
X594013Y88126D01*
X593749Y88068D01*
X593486Y88009D01*
X593222Y87950D01*
X592988Y87863D01*
X592812Y87745D01*
X592753Y87687D01*
X592636Y87540D01*
X592519Y87277D01*
X592490Y87130D01*
X592461Y86955D01*
Y86925D01*
Y86838D01*
X592490Y86691D01*
X592548Y86457D01*
X592607Y86164D01*
X592724Y85813D01*
X592871Y85402D01*
X593076Y84905D01*
X597615Y74391D01*
X601861Y84758D01*
Y84787D01*
X601891Y84817D01*
X601949Y85022D01*
X602066Y85285D01*
X602184Y85607D01*
X602271Y85959D01*
X602389Y86310D01*
X602447Y86632D01*
X602477Y86896D01*
Y86925D01*
Y86955D01*
X602418Y87130D01*
X602330Y87365D01*
X602213Y87511D01*
X602096Y87628D01*
X602066Y87657D01*
X602037Y87687D01*
X601920Y87745D01*
X601803Y87833D01*
X601598Y87892D01*
X601393Y87980D01*
X601100Y88068D01*
X600778Y88126D01*
X600719Y88155D01*
X600661D01*
X600573Y88185D01*
Y88682D01*
X606079D01*
Y88185D01*
D02*
G37*
G36*
X611497Y73483D02*
Y73424D01*
Y73307D01*
Y73102D01*
X611526Y72839D01*
X611555Y72341D01*
X611585Y72106D01*
X611643Y71931D01*
Y71901D01*
X611672Y71872D01*
X611760Y71726D01*
X611936Y71550D01*
X612141Y71374D01*
X612170D01*
X612200Y71345D01*
X612287Y71316D01*
X612405Y71287D01*
X612580Y71257D01*
X612785Y71228D01*
X613049Y71199D01*
X613342D01*
Y70730D01*
X607455D01*
Y71199D01*
X607748D01*
X607924Y71228D01*
X608334Y71257D01*
X608480Y71287D01*
X608627Y71345D01*
X608685Y71374D01*
X608802Y71491D01*
X608949Y71667D01*
X609095Y71931D01*
Y71960D01*
X609124Y72019D01*
X609154Y72136D01*
X609212Y72282D01*
X609242Y72487D01*
X609271Y72751D01*
X609300Y73102D01*
Y73483D01*
Y78169D01*
Y78198D01*
Y78257D01*
Y78344D01*
Y78491D01*
Y78813D01*
X609271Y79223D01*
Y79662D01*
X609242Y80072D01*
X609212Y80453D01*
X609183Y80599D01*
X609154Y80717D01*
Y80746D01*
X609124Y80775D01*
X609095Y80951D01*
X609007Y81127D01*
X608861Y81273D01*
X608832Y81302D01*
X608744Y81361D01*
X608568Y81419D01*
X608334Y81449D01*
X608187D01*
X608070Y81419D01*
X607777Y81390D01*
X607426Y81273D01*
X607250Y81742D01*
X610911Y83206D01*
X611497D01*
Y73483D01*
D02*
G37*
G36*
X188051Y182683D02*
X187553D01*
Y182712D01*
Y182771D01*
X187524Y182859D01*
X187494Y182976D01*
X187436Y183298D01*
X187348Y183708D01*
X187231Y184176D01*
X187084Y184645D01*
X186879Y185114D01*
X186674Y185523D01*
X186645Y185582D01*
X186557Y185699D01*
X186411Y185904D01*
X186235Y186138D01*
X185971Y186402D01*
X185679Y186666D01*
X185327Y186959D01*
X184917Y187193D01*
X184858Y187222D01*
X184712Y187281D01*
X184507Y187398D01*
X184214Y187515D01*
X183863Y187632D01*
X183453Y187749D01*
X183043Y187808D01*
X182574Y187837D01*
X182340D01*
X182106Y187808D01*
X181784Y187720D01*
X181403Y187632D01*
X181022Y187486D01*
X180641Y187281D01*
X180290Y186988D01*
X180261Y186959D01*
X180143Y186841D01*
X180026Y186666D01*
X179851Y186431D01*
X179704Y186138D01*
X179558Y185816D01*
X179441Y185436D01*
X179411Y185055D01*
Y185026D01*
Y184909D01*
X179441Y184762D01*
X179470Y184557D01*
X179558Y184323D01*
X179646Y184088D01*
X179792Y183825D01*
X179968Y183561D01*
X179997Y183503D01*
X180143Y183386D01*
X180261Y183269D01*
X180378Y183151D01*
X180553Y183034D01*
X180758Y182859D01*
X180993Y182683D01*
X181286Y182478D01*
X181608Y182273D01*
X181959Y182038D01*
X182369Y181775D01*
X182808Y181511D01*
X183306Y181218D01*
X183863Y180926D01*
X183892D01*
X183980Y180867D01*
X184097Y180809D01*
X184273Y180691D01*
X184478Y180603D01*
X184712Y180457D01*
X185239Y180164D01*
X185796Y179813D01*
X186381Y179491D01*
X186879Y179139D01*
X187113Y178993D01*
X187289Y178846D01*
X187318Y178817D01*
X187436Y178729D01*
X187611Y178553D01*
X187816Y178348D01*
X188051Y178114D01*
X188285Y177821D01*
X188519Y177499D01*
X188724Y177148D01*
X188754Y177118D01*
X188812Y176972D01*
X188871Y176796D01*
X188988Y176533D01*
X189076Y176210D01*
X189134Y175888D01*
X189193Y175508D01*
X189222Y175098D01*
Y175068D01*
Y175010D01*
Y174893D01*
X189193Y174746D01*
X189164Y174571D01*
X189134Y174366D01*
X189017Y173897D01*
X188841Y173340D01*
X188549Y172755D01*
X188373Y172462D01*
X188168Y172169D01*
X187934Y171876D01*
X187641Y171583D01*
X187611Y171554D01*
X187582Y171525D01*
X187465Y171437D01*
X187348Y171349D01*
X187201Y171232D01*
X186996Y171115D01*
X186791Y170998D01*
X186528Y170851D01*
X185942Y170588D01*
X185268Y170353D01*
X184449Y170178D01*
X184039Y170148D01*
X183570Y170119D01*
X183277D01*
X183101Y170148D01*
X182867D01*
X182633Y170178D01*
X182106Y170265D01*
X182076D01*
X182018Y170295D01*
X181901D01*
X181754Y170353D01*
X181520Y170412D01*
X181227Y170500D01*
X180846Y170588D01*
X180407Y170734D01*
X180348Y170763D01*
X180202Y170793D01*
X179968Y170851D01*
X179733Y170939D01*
X179441Y171027D01*
X179177Y171085D01*
X178943Y171115D01*
X178767Y171144D01*
X178708D01*
X178591Y171115D01*
X178416Y171056D01*
X178240Y170939D01*
X178211Y170910D01*
X178152Y170763D01*
X178093Y170646D01*
X178064Y170500D01*
X178006Y170324D01*
X177976Y170119D01*
X177478D01*
Y176269D01*
X177976D01*
Y176240D01*
X178006Y176181D01*
Y176093D01*
X178035Y175947D01*
X178123Y175595D01*
X178211Y175156D01*
X178328Y174688D01*
X178503Y174219D01*
X178679Y173750D01*
X178884Y173340D01*
X178913Y173311D01*
X179001Y173194D01*
X179148Y173018D01*
X179323Y172784D01*
X179587Y172550D01*
X179880Y172286D01*
X180261Y172023D01*
X180671Y171759D01*
X180729Y171730D01*
X180876Y171671D01*
X181139Y171554D01*
X181461Y171466D01*
X181842Y171349D01*
X182281Y171232D01*
X182779Y171173D01*
X183306Y171144D01*
X183570D01*
X183863Y171203D01*
X184244Y171261D01*
X184653Y171349D01*
X185093Y171495D01*
X185532Y171700D01*
X185913Y171993D01*
X185942Y172023D01*
X186059Y172140D01*
X186206Y172345D01*
X186411Y172579D01*
X186586Y172901D01*
X186733Y173253D01*
X186850Y173633D01*
X186879Y174073D01*
Y174102D01*
Y174190D01*
X186850Y174336D01*
X186821Y174483D01*
X186791Y174688D01*
X186733Y174922D01*
X186616Y175156D01*
X186499Y175420D01*
X186469Y175449D01*
X186440Y175537D01*
X186352Y175654D01*
X186235Y175830D01*
X186059Y176035D01*
X185884Y176240D01*
X185649Y176445D01*
X185386Y176679D01*
X185356Y176708D01*
X185268Y176767D01*
X185093Y176884D01*
X184829Y177060D01*
X184653Y177148D01*
X184449Y177265D01*
X184244Y177411D01*
X183980Y177558D01*
X183658Y177733D01*
X183336Y177938D01*
X182955Y178143D01*
X182545Y178378D01*
X182516Y178407D01*
X182457Y178436D01*
X182340Y178495D01*
X182164Y178583D01*
X181989Y178700D01*
X181784Y178817D01*
X181286Y179110D01*
X180729Y179432D01*
X180202Y179783D01*
X179704Y180135D01*
X179470Y180281D01*
X179265Y180428D01*
X179236Y180457D01*
X179118Y180574D01*
X178943Y180721D01*
X178708Y180926D01*
X178474Y181160D01*
X178240Y181453D01*
X178006Y181775D01*
X177801Y182097D01*
X177771Y182126D01*
X177713Y182273D01*
X177654Y182449D01*
X177566Y182712D01*
X177449Y183005D01*
X177390Y183356D01*
X177332Y183737D01*
X177303Y184147D01*
Y184176D01*
Y184235D01*
Y184323D01*
X177332Y184469D01*
X177361Y184645D01*
X177390Y184821D01*
X177478Y185289D01*
X177654Y185816D01*
X177918Y186373D01*
X178093Y186666D01*
X178298Y186929D01*
X178503Y187222D01*
X178767Y187486D01*
X178796Y187515D01*
X178826Y187544D01*
X178913Y187603D01*
X179031Y187720D01*
X179177Y187808D01*
X179353Y187925D01*
X179792Y188189D01*
X180348Y188452D01*
X180993Y188686D01*
X181725Y188833D01*
X182135Y188862D01*
X182545Y188891D01*
X182808D01*
X183072Y188862D01*
X183453Y188804D01*
X183921Y188716D01*
X184449Y188599D01*
X185005Y188423D01*
X185591Y188189D01*
X185620D01*
X185708Y188130D01*
X185825Y188101D01*
X186001Y188042D01*
X186323Y187925D01*
X186499Y187896D01*
X186616Y187866D01*
X186674D01*
X186821Y187896D01*
X186996Y187954D01*
X187172Y188042D01*
X187201Y188071D01*
X187260Y188130D01*
X187318Y188218D01*
X187377Y188335D01*
X187436Y188481D01*
X187494Y188657D01*
X187553Y188891D01*
X188051D01*
Y182683D01*
D02*
G37*
G36*
X322562Y182800D02*
X322152D01*
Y182829D01*
X322123Y182917D01*
X322064Y183064D01*
X322006Y183239D01*
X321918Y183473D01*
X321801Y183737D01*
X321567Y184323D01*
X321215Y184967D01*
X320805Y185611D01*
X320336Y186226D01*
X320073Y186490D01*
X319809Y186724D01*
X319780Y186754D01*
X319751Y186783D01*
X319663Y186841D01*
X319546Y186929D01*
X319399Y187017D01*
X319224Y187105D01*
X318784Y187339D01*
X318257Y187574D01*
X317613Y187749D01*
X316910Y187896D01*
X316148Y187954D01*
X315856D01*
X315680Y187925D01*
X315504Y187896D01*
X315065Y187837D01*
X314567Y187720D01*
X314040Y187574D01*
X313484Y187339D01*
X312927Y187046D01*
X312898D01*
X312868Y187017D01*
X312693Y186871D01*
X312429Y186666D01*
X312107Y186344D01*
X311756Y185934D01*
X311375Y185436D01*
X310994Y184850D01*
X310672Y184147D01*
Y184118D01*
X310643Y184059D01*
X310584Y183942D01*
X310555Y183796D01*
X310496Y183591D01*
X310408Y183356D01*
X310350Y183093D01*
X310262Y182771D01*
X310174Y182449D01*
X310116Y182068D01*
X310057Y181658D01*
X309969Y181218D01*
X309881Y180252D01*
X309852Y179198D01*
Y179168D01*
Y179081D01*
Y178963D01*
Y178788D01*
X309881Y178583D01*
Y178348D01*
X309911Y178056D01*
X309940Y177763D01*
X310028Y177089D01*
X310174Y176386D01*
X310350Y175683D01*
X310613Y174981D01*
Y174951D01*
X310643Y174893D01*
X310701Y174805D01*
X310760Y174688D01*
X310936Y174366D01*
X311199Y173955D01*
X311521Y173516D01*
X311931Y173077D01*
X312400Y172638D01*
X312956Y172228D01*
X312986D01*
X313015Y172198D01*
X313103Y172140D01*
X313249Y172081D01*
X313396Y172023D01*
X313571Y171935D01*
X314011Y171759D01*
X314538Y171583D01*
X315124Y171437D01*
X315797Y171320D01*
X316529Y171290D01*
X316822D01*
X317144Y171320D01*
X317584Y171378D01*
X318052Y171466D01*
X318579Y171613D01*
X319106Y171788D01*
X319604Y172023D01*
X319634D01*
X319663Y172052D01*
X319839Y172169D01*
X320102Y172374D01*
X320483Y172696D01*
X320922Y173077D01*
X321157Y173340D01*
X321420Y173604D01*
X321684Y173897D01*
X321977Y174248D01*
X322269Y174600D01*
X322562Y175010D01*
X322972Y174746D01*
X322943Y174717D01*
X322914Y174629D01*
X322826Y174512D01*
X322738Y174366D01*
X322592Y174160D01*
X322445Y173926D01*
X322064Y173399D01*
X321596Y172843D01*
X321069Y172257D01*
X320454Y171700D01*
X320131Y171466D01*
X319809Y171232D01*
X319780D01*
X319722Y171173D01*
X319634Y171144D01*
X319487Y171056D01*
X319312Y170968D01*
X319106Y170881D01*
X318872Y170793D01*
X318609Y170676D01*
X317994Y170470D01*
X317261Y170295D01*
X316441Y170178D01*
X315534Y170119D01*
X315329D01*
X315094Y170148D01*
X314801Y170178D01*
X314421Y170207D01*
X314011Y170295D01*
X313513Y170383D01*
X313015Y170529D01*
X312458Y170705D01*
X311902Y170939D01*
X311316Y171203D01*
X310760Y171525D01*
X310203Y171905D01*
X309647Y172345D01*
X309120Y172843D01*
X308651Y173428D01*
X308622Y173458D01*
X308563Y173545D01*
X308476Y173692D01*
X308358Y173868D01*
X308241Y174102D01*
X308066Y174395D01*
X307919Y174717D01*
X307743Y175068D01*
X307568Y175478D01*
X307421Y175918D01*
X307246Y176416D01*
X307128Y176913D01*
X307011Y177441D01*
X306923Y178026D01*
X306865Y178612D01*
X306835Y179227D01*
Y179256D01*
Y179344D01*
Y179491D01*
X306865Y179666D01*
Y179901D01*
X306894Y180194D01*
X306923Y180486D01*
X306982Y180838D01*
X307128Y181599D01*
X307333Y182419D01*
X307626Y183298D01*
X308007Y184147D01*
X308036Y184176D01*
X308066Y184235D01*
X308124Y184352D01*
X308241Y184528D01*
X308358Y184704D01*
X308505Y184938D01*
X308886Y185436D01*
X309354Y185992D01*
X309911Y186578D01*
X310584Y187134D01*
X311316Y187632D01*
X311346Y187661D01*
X311404Y187691D01*
X311521Y187749D01*
X311697Y187837D01*
X311873Y187925D01*
X312107Y188042D01*
X312371Y188159D01*
X312693Y188277D01*
X313366Y188482D01*
X314157Y188687D01*
X315006Y188833D01*
X315446Y188892D01*
X316236D01*
X316412Y188862D01*
X316617Y188833D01*
X317115Y188774D01*
X317701Y188657D01*
X318345Y188482D01*
X319048Y188247D01*
X319751Y187925D01*
X319780D01*
X319839Y187896D01*
X319926Y187837D01*
X320073Y187808D01*
X320307Y187691D01*
X320454Y187661D01*
X320600D01*
X320746Y187691D01*
X320951Y187749D01*
X321157Y187896D01*
X321186Y187925D01*
X321215Y187954D01*
X321274Y188042D01*
X321362Y188159D01*
X321420Y188306D01*
X321508Y188452D01*
X321654Y188892D01*
X322152D01*
X322562Y182800D01*
D02*
G37*
G36*
X267826Y189331D02*
X267943Y189301D01*
X268266Y189184D01*
X268412Y189097D01*
X268559Y188950D01*
X268588Y188921D01*
X268617Y188892D01*
X268676Y188804D01*
X268764Y188687D01*
X268910Y188394D01*
X268939Y188218D01*
X268969Y188013D01*
Y187984D01*
Y187925D01*
X268939Y187808D01*
X268910Y187691D01*
X268793Y187369D01*
X268705Y187193D01*
X268559Y187046D01*
X268529Y187017D01*
X268500Y186988D01*
X268412Y186929D01*
X268295Y186871D01*
X268002Y186724D01*
X267826Y186695D01*
X267621Y186666D01*
X267533D01*
X267416Y186695D01*
X267299Y186724D01*
X266977Y186841D01*
X266801Y186929D01*
X266655Y187046D01*
X266626Y187076D01*
X266596Y187134D01*
X266538Y187193D01*
X266479Y187310D01*
X266333Y187632D01*
X266303Y187808D01*
X266274Y188013D01*
Y188042D01*
Y188101D01*
X266303Y188218D01*
X266333Y188335D01*
X266450Y188657D01*
X266538Y188804D01*
X266655Y188950D01*
X266684Y188979D01*
X266713Y189009D01*
X266801Y189067D01*
X266918Y189155D01*
X267211Y189301D01*
X267416Y189331D01*
X267621Y189360D01*
X267709D01*
X267826Y189331D01*
D02*
G37*
G36*
X173671Y184528D02*
X173144D01*
Y184557D01*
Y184586D01*
X173085Y184762D01*
X173027Y184996D01*
X172968Y185289D01*
X172763Y185933D01*
X172617Y186226D01*
X172500Y186461D01*
Y186490D01*
X172441Y186549D01*
X172353Y186666D01*
X172265Y186783D01*
X172119Y186900D01*
X171943Y187046D01*
X171768Y187193D01*
X171533Y187310D01*
X171504D01*
X171445Y187339D01*
X171299Y187369D01*
X171094Y187427D01*
X170830Y187456D01*
X170508Y187486D01*
X170128Y187515D01*
X164768D01*
Y180398D01*
X168927D01*
X169190Y180428D01*
X169513Y180457D01*
X169864Y180516D01*
X170186Y180574D01*
X170479Y180691D01*
X170713Y180838D01*
X170743Y180867D01*
X170830Y180955D01*
X170948Y181101D01*
X171065Y181336D01*
X171211Y181628D01*
X171358Y182009D01*
X171445Y182478D01*
X171504Y183005D01*
X172002D01*
Y176767D01*
X171504D01*
Y176796D01*
Y176826D01*
X171475Y176972D01*
X171445Y177206D01*
X171387Y177470D01*
X171328Y177733D01*
X171270Y178026D01*
X171182Y178261D01*
X171123Y178436D01*
Y178466D01*
X171065Y178524D01*
X170948Y178700D01*
X170684Y178905D01*
X170538Y179022D01*
X170333Y179139D01*
X170303D01*
X170245Y179198D01*
X170098Y179227D01*
X169923Y179286D01*
X169688Y179344D01*
X169425Y179373D01*
X169073Y179432D01*
X164768D01*
Y173487D01*
Y173428D01*
Y173311D01*
Y173106D01*
Y172872D01*
X164797Y172608D01*
Y172374D01*
X164827Y172198D01*
X164856Y172052D01*
X164885Y172023D01*
X164944Y171905D01*
X165061Y171759D01*
X165237Y171642D01*
X165295Y171613D01*
X165354Y171583D01*
X165471D01*
X165588Y171554D01*
X165764Y171525D01*
X165969Y171495D01*
X169805D01*
X170128Y171525D01*
X170479Y171554D01*
X170860Y171583D01*
X171182Y171642D01*
X171475Y171700D01*
X171504D01*
X171592Y171730D01*
X171738Y171788D01*
X171914Y171876D01*
X172119Y171993D01*
X172324Y172140D01*
X172558Y172316D01*
X172793Y172521D01*
X172822Y172550D01*
X172939Y172667D01*
X173085Y172872D01*
X173320Y173165D01*
X173554Y173516D01*
X173847Y173955D01*
X174169Y174453D01*
X174491Y175039D01*
X175018D01*
X173466Y170529D01*
X159643D01*
Y171027D01*
X160375D01*
X160492Y171056D01*
X160668D01*
X161049Y171144D01*
X161488Y171320D01*
X161517D01*
X161547Y171349D01*
X161722Y171466D01*
X161898Y171671D01*
X162045Y171935D01*
Y171964D01*
X162074Y172023D01*
X162103Y172140D01*
X162132Y172316D01*
X162162Y172550D01*
X162191Y172872D01*
X162220Y173253D01*
Y173692D01*
Y185348D01*
Y185377D01*
Y185436D01*
Y185494D01*
Y185611D01*
X162191Y185904D01*
Y186256D01*
X162132Y186607D01*
X162074Y186929D01*
X161986Y187222D01*
X161927Y187339D01*
X161869Y187427D01*
X161840Y187456D01*
X161781Y187515D01*
X161664Y187603D01*
X161488Y187720D01*
X161254Y187808D01*
X160990Y187896D01*
X160639Y187954D01*
X160258Y187984D01*
X159643D01*
Y188481D01*
X173496D01*
X173671Y184528D01*
D02*
G37*
G36*
X346255Y182976D02*
X346489Y182946D01*
X346753Y182888D01*
X347046Y182800D01*
X347338Y182683D01*
X347602Y182507D01*
X347631Y182478D01*
X347719Y182419D01*
X347836Y182302D01*
X348012Y182126D01*
X348188Y181892D01*
X348393Y181599D01*
X348568Y181277D01*
X348744Y180867D01*
Y180838D01*
X348803Y180721D01*
X348832Y180545D01*
X348890Y180281D01*
X348949Y179930D01*
X348978Y179520D01*
X349037Y179022D01*
Y178436D01*
Y173282D01*
Y173223D01*
Y173106D01*
Y172901D01*
X349066Y172638D01*
X349125Y172111D01*
X349154Y171876D01*
X349213Y171700D01*
X349242Y171642D01*
X349330Y171495D01*
X349476Y171320D01*
X349681Y171173D01*
X349711D01*
X349740Y171144D01*
X349828Y171115D01*
X349945Y171085D01*
X350121Y171056D01*
X350326Y171027D01*
X350589Y170998D01*
X350882D01*
Y170529D01*
X344878D01*
Y170998D01*
X345406D01*
X345581Y171027D01*
X345962Y171085D01*
X346138Y171144D01*
X346284Y171232D01*
X346313D01*
X346343Y171290D01*
X346489Y171437D01*
X346636Y171671D01*
X346782Y172023D01*
Y172081D01*
X346811Y172140D01*
Y172257D01*
Y172403D01*
X346841Y172638D01*
Y172931D01*
Y173282D01*
Y178231D01*
Y178261D01*
Y178290D01*
Y178378D01*
Y178495D01*
X346811Y178788D01*
X346782Y179139D01*
X346723Y179549D01*
X346665Y179930D01*
X346548Y180311D01*
X346401Y180633D01*
X346372Y180662D01*
X346313Y180750D01*
X346196Y180867D01*
X346050Y181014D01*
X345845Y181160D01*
X345611Y181277D01*
X345318Y181365D01*
X344966Y181394D01*
X344820D01*
X344703Y181365D01*
X344380Y181306D01*
X344000Y181189D01*
X343502Y180984D01*
X343268Y180838D01*
X343004Y180662D01*
X342711Y180457D01*
X342448Y180252D01*
X342155Y179959D01*
X341862Y179666D01*
Y173282D01*
Y173223D01*
Y173077D01*
Y172872D01*
X341891Y172608D01*
Y172345D01*
X341920Y172111D01*
X341950Y171876D01*
X341979Y171730D01*
Y171700D01*
X342008Y171671D01*
X342125Y171525D01*
X342301Y171349D01*
X342506Y171173D01*
X342535D01*
X342565Y171144D01*
X342653Y171115D01*
X342799Y171085D01*
X342975Y171056D01*
X343209Y171027D01*
X343473Y170998D01*
X343824D01*
Y170529D01*
X337820D01*
Y170998D01*
X338230D01*
X338377Y171027D01*
X338582Y171056D01*
X338787Y171115D01*
X338992Y171203D01*
X339168Y171320D01*
X339314Y171466D01*
X339343Y171495D01*
X339372Y171554D01*
X339431Y171700D01*
X339490Y171876D01*
X339548Y172111D01*
X339607Y172433D01*
X339665Y172813D01*
Y173282D01*
Y177792D01*
Y177821D01*
Y177880D01*
Y177997D01*
Y178143D01*
Y178495D01*
Y178934D01*
X339636Y179403D01*
X339607Y179813D01*
X339577Y180194D01*
Y180311D01*
X339548Y180428D01*
Y180457D01*
X339519Y180516D01*
X339490Y180691D01*
X339402Y180896D01*
X339314Y181014D01*
X339255Y181072D01*
X339226Y181101D01*
X339109Y181160D01*
X338933Y181218D01*
X338699Y181248D01*
X338553D01*
X338435Y181218D01*
X338143Y181189D01*
X337791Y181072D01*
X337615Y181541D01*
X341276Y183005D01*
X341862D01*
Y180428D01*
X341891Y180457D01*
X341950Y180545D01*
X342067Y180662D01*
X342213Y180838D01*
X342418Y181014D01*
X342623Y181248D01*
X342887Y181482D01*
X343150Y181716D01*
X343765Y182185D01*
X344117Y182419D01*
X344468Y182595D01*
X344820Y182771D01*
X345171Y182888D01*
X345552Y182976D01*
X345903Y183005D01*
X346079D01*
X346255Y182976D01*
D02*
G37*
G36*
X415985Y182976D02*
X416161Y182946D01*
X416337Y182888D01*
X416542Y182800D01*
X416747Y182683D01*
X416922Y182536D01*
X416952Y182507D01*
X417010Y182449D01*
X417069Y182361D01*
X417186Y182243D01*
X417332Y181921D01*
X417391Y181716D01*
X417420Y181511D01*
Y181482D01*
Y181423D01*
X417391Y181336D01*
Y181218D01*
X417274Y180955D01*
X417186Y180809D01*
X417069Y180662D01*
X417039D01*
X417010Y180604D01*
X416834Y180486D01*
X416571Y180369D01*
X416424Y180340D01*
X416249Y180311D01*
X416161D01*
X416073Y180340D01*
X415956Y180369D01*
X415780Y180428D01*
X415605Y180486D01*
X415400Y180604D01*
X415195Y180750D01*
X415165Y180779D01*
X415107Y180838D01*
X414990Y180896D01*
X414872Y180984D01*
X414609Y181160D01*
X414462Y181189D01*
X414345Y181218D01*
X414316D01*
X414199Y181189D01*
X414023Y181101D01*
X413818Y180926D01*
X413789Y180896D01*
X413730Y180838D01*
X413613Y180691D01*
X413437Y180516D01*
X413262Y180252D01*
X413057Y179959D01*
X412852Y179608D01*
X412617Y179168D01*
Y173370D01*
Y173311D01*
Y173194D01*
Y173018D01*
X412647Y172784D01*
X412705Y172286D01*
X412764Y172023D01*
X412852Y171818D01*
X412881Y171759D01*
X412998Y171613D01*
X413174Y171437D01*
X413467Y171232D01*
X413496D01*
X413554Y171203D01*
X413642Y171173D01*
X413789Y171115D01*
X413965Y171085D01*
X414199Y171027D01*
X414433Y170998D01*
X414726D01*
Y170529D01*
X408517D01*
Y170998D01*
X408664D01*
X408839Y171027D01*
X409015D01*
X409484Y171115D01*
X409689Y171203D01*
X409864Y171290D01*
X409894D01*
X409923Y171320D01*
X410069Y171466D01*
X410216Y171671D01*
X410333Y171964D01*
X410362Y172023D01*
Y172111D01*
X410392Y172228D01*
Y172403D01*
X410421Y172608D01*
Y172901D01*
Y173282D01*
Y177968D01*
Y177997D01*
Y178056D01*
Y178173D01*
Y178319D01*
Y178671D01*
Y179081D01*
X410392Y179520D01*
Y179930D01*
X410362Y180252D01*
Y180399D01*
X410333Y180486D01*
Y180516D01*
X410304Y180545D01*
X410274Y180721D01*
X410157Y180896D01*
X410011Y181072D01*
X409981Y181101D01*
X409864Y181160D01*
X409659Y181218D01*
X409425Y181248D01*
X409279D01*
X409161Y181218D01*
X408869Y181189D01*
X408488Y181072D01*
X408371Y181541D01*
X412032Y183005D01*
X412617D01*
Y180281D01*
X412647Y180311D01*
X412676Y180399D01*
X412764Y180545D01*
X412881Y180721D01*
X413027Y180926D01*
X413174Y181131D01*
X413554Y181658D01*
X414023Y182156D01*
X414287Y182361D01*
X414550Y182595D01*
X414843Y182741D01*
X415136Y182888D01*
X415429Y182976D01*
X415722Y183005D01*
X415839D01*
X415985Y182976D01*
D02*
G37*
G36*
X366316Y182976D02*
X366492Y182946D01*
X366667Y182888D01*
X366872Y182800D01*
X367077Y182683D01*
X367253Y182536D01*
X367282Y182507D01*
X367341Y182449D01*
X367399Y182361D01*
X367517Y182243D01*
X367663Y181921D01*
X367721Y181716D01*
X367751Y181511D01*
Y181482D01*
Y181423D01*
X367721Y181336D01*
Y181218D01*
X367604Y180955D01*
X367517Y180809D01*
X367399Y180662D01*
X367370D01*
X367341Y180604D01*
X367165Y180486D01*
X366902Y180369D01*
X366755Y180340D01*
X366579Y180311D01*
X366492D01*
X366404Y180340D01*
X366287Y180369D01*
X366111Y180428D01*
X365935Y180486D01*
X365730Y180604D01*
X365525Y180750D01*
X365496Y180779D01*
X365437Y180838D01*
X365320Y180896D01*
X365203Y180984D01*
X364939Y181160D01*
X364793Y181189D01*
X364676Y181218D01*
X364646D01*
X364529Y181189D01*
X364354Y181101D01*
X364149Y180926D01*
X364119Y180896D01*
X364061Y180838D01*
X363944Y180691D01*
X363768Y180516D01*
X363592Y180252D01*
X363387Y179959D01*
X363182Y179608D01*
X362948Y179168D01*
Y173370D01*
Y173311D01*
Y173194D01*
Y173018D01*
X362977Y172784D01*
X363036Y172286D01*
X363094Y172023D01*
X363182Y171818D01*
X363212Y171759D01*
X363329Y171613D01*
X363504Y171437D01*
X363797Y171232D01*
X363826D01*
X363885Y171203D01*
X363973Y171173D01*
X364119Y171115D01*
X364295Y171085D01*
X364529Y171027D01*
X364764Y170998D01*
X365056D01*
Y170529D01*
X358848D01*
Y170998D01*
X358994D01*
X359170Y171027D01*
X359346D01*
X359814Y171115D01*
X360019Y171203D01*
X360195Y171290D01*
X360224D01*
X360254Y171320D01*
X360400Y171466D01*
X360546Y171671D01*
X360664Y171964D01*
X360693Y172023D01*
Y172111D01*
X360722Y172228D01*
Y172403D01*
X360751Y172608D01*
Y172901D01*
Y173282D01*
Y177968D01*
Y177997D01*
Y178056D01*
Y178173D01*
Y178319D01*
Y178671D01*
Y179081D01*
X360722Y179520D01*
Y179930D01*
X360693Y180252D01*
Y180399D01*
X360664Y180486D01*
Y180516D01*
X360634Y180545D01*
X360605Y180721D01*
X360488Y180896D01*
X360341Y181072D01*
X360312Y181101D01*
X360195Y181160D01*
X359990Y181218D01*
X359756Y181248D01*
X359609D01*
X359492Y181218D01*
X359199Y181189D01*
X358819Y181072D01*
X358701Y181541D01*
X362362Y183005D01*
X362948D01*
Y180281D01*
X362977Y180311D01*
X363007Y180399D01*
X363094Y180545D01*
X363212Y180721D01*
X363358Y180926D01*
X363504Y181131D01*
X363885Y181658D01*
X364354Y182156D01*
X364617Y182361D01*
X364881Y182595D01*
X365174Y182741D01*
X365466Y182888D01*
X365759Y182976D01*
X366052Y183005D01*
X366169D01*
X366316Y182976D01*
D02*
G37*
G36*
X291021D02*
X291197Y182946D01*
X291372Y182888D01*
X291577Y182800D01*
X291782Y182683D01*
X291958Y182536D01*
X291987Y182507D01*
X292046Y182449D01*
X292105Y182361D01*
X292222Y182243D01*
X292368Y181921D01*
X292427Y181716D01*
X292456Y181511D01*
Y181482D01*
Y181423D01*
X292427Y181336D01*
Y181218D01*
X292310Y180955D01*
X292222Y180809D01*
X292105Y180662D01*
X292075D01*
X292046Y180604D01*
X291870Y180486D01*
X291607Y180369D01*
X291460Y180340D01*
X291285Y180311D01*
X291197D01*
X291109Y180340D01*
X290992Y180369D01*
X290816Y180428D01*
X290640Y180486D01*
X290435Y180604D01*
X290230Y180750D01*
X290201Y180779D01*
X290142Y180838D01*
X290025Y180896D01*
X289908Y180984D01*
X289645Y181160D01*
X289498Y181189D01*
X289381Y181218D01*
X289352D01*
X289235Y181189D01*
X289059Y181101D01*
X288854Y180926D01*
X288825Y180896D01*
X288766Y180838D01*
X288649Y180691D01*
X288473Y180516D01*
X288297Y180252D01*
X288092Y179959D01*
X287887Y179608D01*
X287653Y179168D01*
Y173370D01*
Y173311D01*
Y173194D01*
Y173018D01*
X287682Y172784D01*
X287741Y172286D01*
X287799Y172023D01*
X287887Y171818D01*
X287917Y171759D01*
X288034Y171613D01*
X288209Y171437D01*
X288502Y171232D01*
X288532D01*
X288590Y171203D01*
X288678Y171173D01*
X288825Y171115D01*
X289000Y171085D01*
X289235Y171027D01*
X289469Y170998D01*
X289762D01*
Y170529D01*
X283553D01*
Y170998D01*
X283699D01*
X283875Y171027D01*
X284051D01*
X284519Y171115D01*
X284724Y171203D01*
X284900Y171290D01*
X284930D01*
X284959Y171320D01*
X285105Y171466D01*
X285252Y171671D01*
X285369Y171964D01*
X285398Y172023D01*
Y172111D01*
X285427Y172228D01*
Y172403D01*
X285457Y172608D01*
Y172901D01*
Y173282D01*
Y177968D01*
Y177997D01*
Y178056D01*
Y178173D01*
Y178319D01*
Y178671D01*
Y179081D01*
X285427Y179520D01*
Y179930D01*
X285398Y180252D01*
Y180399D01*
X285369Y180486D01*
Y180516D01*
X285340Y180545D01*
X285310Y180721D01*
X285193Y180896D01*
X285047Y181072D01*
X285017Y181101D01*
X284900Y181160D01*
X284695Y181218D01*
X284461Y181248D01*
X284314D01*
X284197Y181218D01*
X283904Y181189D01*
X283524Y181072D01*
X283407Y181541D01*
X287067Y183005D01*
X287653D01*
Y180281D01*
X287682Y180311D01*
X287712Y180399D01*
X287799Y180545D01*
X287917Y180721D01*
X288063Y180926D01*
X288209Y181131D01*
X288590Y181658D01*
X289059Y182156D01*
X289322Y182361D01*
X289586Y182595D01*
X289879Y182741D01*
X290172Y182888D01*
X290464Y182976D01*
X290757Y183005D01*
X290875D01*
X291021Y182976D01*
D02*
G37*
G36*
X278545Y182946D02*
X278955Y182888D01*
X279424Y182771D01*
X279921Y182595D01*
X280419Y182361D01*
X280859Y182038D01*
X280917Y182009D01*
X281034Y181863D01*
X281239Y181687D01*
X281444Y181453D01*
X281649Y181160D01*
X281854Y180809D01*
X281971Y180457D01*
X282030Y180076D01*
Y180047D01*
Y179988D01*
X282001Y179901D01*
Y179783D01*
X281884Y179520D01*
X281796Y179373D01*
X281679Y179256D01*
X281620Y179198D01*
X281444Y179110D01*
X281152Y179022D01*
X280771Y178963D01*
X280654D01*
X280507Y178993D01*
X280331Y179022D01*
X280156Y179081D01*
X279980Y179168D01*
X279775Y179286D01*
X279629Y179461D01*
Y179491D01*
X279599Y179520D01*
X279541Y179608D01*
X279512Y179696D01*
X279453Y179842D01*
X279394Y180047D01*
X279336Y180281D01*
X279307Y180545D01*
Y180574D01*
X279277Y180662D01*
Y180809D01*
X279219Y180984D01*
X279160Y181189D01*
X279072Y181394D01*
X278926Y181570D01*
X278779Y181746D01*
X278750Y181775D01*
X278692Y181804D01*
X278574Y181863D01*
X278457Y181951D01*
X278252Y182038D01*
X278047Y182097D01*
X277784Y182126D01*
X277491Y182156D01*
X277286D01*
X277022Y182097D01*
X276729Y182038D01*
X276378Y181921D01*
X276026Y181746D01*
X275675Y181482D01*
X275353Y181160D01*
X275294Y181101D01*
X275177Y180926D01*
X275031Y180633D01*
X274826Y180252D01*
X274621Y179754D01*
X274474Y179168D01*
X274357Y178495D01*
X274299Y177733D01*
Y177704D01*
Y177646D01*
Y177528D01*
X274328Y177353D01*
Y177177D01*
X274357Y176943D01*
X274445Y176416D01*
X274562Y175830D01*
X274738Y175186D01*
X275001Y174512D01*
X275353Y173868D01*
Y173838D01*
X275411Y173809D01*
X275558Y173604D01*
X275792Y173340D01*
X276114Y173048D01*
X276524Y172755D01*
X277022Y172491D01*
X277579Y172286D01*
X277901Y172257D01*
X278223Y172228D01*
X278457D01*
X278692Y172286D01*
X279014Y172345D01*
X279365Y172433D01*
X279775Y172579D01*
X280185Y172784D01*
X280566Y173077D01*
X280595Y173106D01*
X280683Y173194D01*
X280829Y173370D01*
X281034Y173604D01*
X281239Y173897D01*
X281474Y174278D01*
X281737Y174776D01*
X282001Y175332D01*
X282382Y175127D01*
Y175098D01*
X282352Y175010D01*
X282323Y174893D01*
X282294Y174746D01*
X282235Y174541D01*
X282147Y174307D01*
X281942Y173780D01*
X281679Y173165D01*
X281357Y172550D01*
X280947Y171964D01*
X280449Y171437D01*
X280419D01*
X280390Y171378D01*
X280302Y171320D01*
X280185Y171232D01*
X279892Y171027D01*
X279512Y170822D01*
X279043Y170588D01*
X278516Y170383D01*
X277930Y170236D01*
X277608Y170207D01*
X277286Y170178D01*
X277081D01*
X276934Y170207D01*
X276759Y170236D01*
X276554Y170265D01*
X276056Y170383D01*
X275499Y170588D01*
X275206Y170734D01*
X274884Y170910D01*
X274591Y171115D01*
X274269Y171349D01*
X273976Y171613D01*
X273684Y171905D01*
X273654Y171935D01*
X273625Y171993D01*
X273537Y172081D01*
X273449Y172228D01*
X273332Y172403D01*
X273215Y172608D01*
X273069Y172843D01*
X272922Y173136D01*
X272776Y173458D01*
X272629Y173809D01*
X272512Y174190D01*
X272395Y174600D01*
X272307Y175039D01*
X272219Y175508D01*
X272190Y176035D01*
X272161Y176562D01*
Y176591D01*
Y176679D01*
Y176826D01*
X272190Y177031D01*
X272219Y177294D01*
X272248Y177558D01*
X272307Y177880D01*
X272366Y178231D01*
X272571Y178963D01*
X272717Y179344D01*
X272893Y179725D01*
X273069Y180135D01*
X273303Y180516D01*
X273566Y180867D01*
X273859Y181218D01*
X273889Y181248D01*
X273947Y181306D01*
X274035Y181394D01*
X274152Y181511D01*
X274328Y181628D01*
X274533Y181775D01*
X274738Y181951D01*
X275001Y182126D01*
X275587Y182449D01*
X276290Y182741D01*
X276671Y182829D01*
X277081Y182917D01*
X277491Y182976D01*
X277930Y183005D01*
X278223D01*
X278545Y182946D01*
D02*
G37*
G36*
X198506Y188452D02*
X199062Y188423D01*
X199677Y188364D01*
X200292Y188276D01*
X200907Y188159D01*
X201464Y187984D01*
X201493D01*
X201522Y187954D01*
X201698Y187896D01*
X201962Y187749D01*
X202284Y187574D01*
X202665Y187339D01*
X203045Y187046D01*
X203426Y186695D01*
X203807Y186285D01*
X203836Y186226D01*
X203953Y186080D01*
X204100Y185816D01*
X204305Y185494D01*
X204480Y185084D01*
X204627Y184616D01*
X204744Y184088D01*
X204773Y183503D01*
Y183473D01*
Y183415D01*
Y183298D01*
X204744Y183151D01*
Y182946D01*
X204685Y182741D01*
X204597Y182243D01*
X204422Y181658D01*
X204158Y181072D01*
X203982Y180779D01*
X203807Y180486D01*
X203572Y180193D01*
X203309Y179930D01*
X203279D01*
X203250Y179871D01*
X203162Y179813D01*
X203045Y179725D01*
X202899Y179608D01*
X202723Y179491D01*
X202518Y179373D01*
X202255Y179256D01*
X201991Y179139D01*
X201698Y179022D01*
X201347Y178905D01*
X200995Y178788D01*
X200585Y178700D01*
X200175Y178641D01*
X199707Y178612D01*
X199238Y178583D01*
X198828D01*
X198623Y178612D01*
X198389D01*
X197832Y178671D01*
X197803D01*
X197715Y178700D01*
X197569D01*
X197364Y178729D01*
X197129Y178788D01*
X196866Y178817D01*
X196251Y178934D01*
Y173692D01*
Y173663D01*
Y173633D01*
Y173545D01*
Y173428D01*
X196280Y173136D01*
X196309Y172784D01*
X196339Y172433D01*
X196397Y172081D01*
X196485Y171788D01*
X196544Y171671D01*
X196602Y171583D01*
X196632Y171554D01*
X196690Y171495D01*
X196807Y171408D01*
X196983Y171320D01*
X197188Y171203D01*
X197452Y171115D01*
X197774Y171056D01*
X198125Y171027D01*
X198828D01*
Y170529D01*
X191126D01*
Y171027D01*
X191975D01*
X192180Y171056D01*
X192444Y171115D01*
X192707Y171203D01*
X192971Y171349D01*
X193205Y171525D01*
X193410Y171759D01*
Y171788D01*
X193469Y171847D01*
X193498Y171964D01*
X193556Y172169D01*
X193615Y172403D01*
X193644Y172755D01*
X193703Y173165D01*
Y173692D01*
Y185319D01*
Y185348D01*
Y185406D01*
Y185465D01*
Y185582D01*
X193674Y185875D01*
X193644Y186197D01*
X193615Y186549D01*
X193556Y186900D01*
X193439Y187193D01*
X193381Y187310D01*
X193322Y187398D01*
X193293Y187427D01*
X193234Y187486D01*
X193117Y187574D01*
X192941Y187691D01*
X192736Y187808D01*
X192473Y187896D01*
X192151Y187954D01*
X191799Y187984D01*
X191126D01*
Y188481D01*
X198272D01*
X198506Y188452D01*
D02*
G37*
G36*
X263170Y187984D02*
X262350D01*
X262145Y187954D01*
X261881Y187896D01*
X261618Y187808D01*
X261354Y187691D01*
X261091Y187515D01*
X260886Y187281D01*
Y187251D01*
X260827Y187193D01*
X260798Y187076D01*
X260739Y186900D01*
X260681Y186636D01*
X260651Y186314D01*
X260593Y185875D01*
Y185377D01*
Y173633D01*
Y173604D01*
Y173575D01*
Y173487D01*
Y173370D01*
X260622Y173077D01*
X260651Y172755D01*
X260681Y172403D01*
X260739Y172052D01*
X260827Y171759D01*
X260886Y171642D01*
X260944Y171554D01*
X260973Y171525D01*
X261032Y171466D01*
X261149Y171378D01*
X261325Y171290D01*
X261559Y171203D01*
X261823Y171115D01*
X262145Y171056D01*
X262526Y171027D01*
X263170D01*
Y170529D01*
X255467D01*
Y171027D01*
X256287D01*
X256493Y171056D01*
X256756Y171115D01*
X257020Y171203D01*
X257283Y171320D01*
X257518Y171466D01*
X257723Y171700D01*
X257752Y171730D01*
X257781Y171788D01*
X257840Y171905D01*
X257898Y172111D01*
X257957Y172345D01*
X257986Y172696D01*
X258045Y173106D01*
Y173633D01*
Y185611D01*
X251133Y170529D01*
X250694D01*
X243782Y185611D01*
Y173633D01*
Y173604D01*
Y173575D01*
Y173487D01*
Y173370D01*
X243812Y173077D01*
X243841Y172755D01*
X243870Y172403D01*
X243929Y172052D01*
X244017Y171759D01*
X244075Y171642D01*
X244134Y171554D01*
X244163Y171525D01*
X244222Y171466D01*
X244339Y171378D01*
X244515Y171290D01*
X244749Y171203D01*
X245012Y171115D01*
X245334Y171056D01*
X245715Y171027D01*
X246360D01*
Y170529D01*
X240034D01*
Y171027D01*
X240854D01*
X241059Y171056D01*
X241322Y171115D01*
X241586Y171203D01*
X241849Y171320D01*
X242084Y171466D01*
X242289Y171700D01*
X242318Y171730D01*
X242347Y171788D01*
X242406Y171905D01*
X242465Y172111D01*
X242523Y172345D01*
X242552Y172696D01*
X242611Y173106D01*
Y173633D01*
Y185377D01*
Y185436D01*
Y185582D01*
Y185787D01*
X242582Y186021D01*
X242494Y186578D01*
X242406Y186841D01*
X242318Y187076D01*
Y187105D01*
X242289Y187134D01*
X242172Y187310D01*
X241967Y187515D01*
X241820Y187632D01*
X241644Y187720D01*
X241615D01*
X241557Y187749D01*
X241439Y187808D01*
X241264Y187866D01*
X241029Y187896D01*
X240766Y187954D01*
X240414Y187984D01*
X240034D01*
Y188482D01*
X245188D01*
X251631Y174424D01*
X258045Y188482D01*
X263170D01*
Y187984D01*
D02*
G37*
G36*
X212300Y188804D02*
X212475D01*
X212710Y188774D01*
X213178Y188657D01*
X213705Y188481D01*
X214262Y188247D01*
X214818Y187896D01*
X215053Y187661D01*
X215287Y187427D01*
X215316Y187369D01*
X215433Y187251D01*
X215580Y187017D01*
X215726Y186754D01*
X215902Y186402D01*
X216019Y186021D01*
X216136Y185611D01*
X216166Y185172D01*
Y185143D01*
Y185084D01*
X216136Y184967D01*
Y184821D01*
X216078Y184645D01*
X216048Y184440D01*
X215961Y184206D01*
X215873Y183942D01*
X215726Y183649D01*
X215580Y183327D01*
X215375Y182976D01*
X215140Y182654D01*
X214848Y182273D01*
X214525Y181892D01*
X214145Y181511D01*
X213705Y181131D01*
X213735D01*
X213764Y181101D01*
X213852Y181072D01*
X213969Y181014D01*
X214262Y180867D01*
X214643Y180662D01*
X215023Y180398D01*
X215463Y180076D01*
X215843Y179725D01*
X216195Y179286D01*
X216224Y179227D01*
X216341Y179081D01*
X216458Y178817D01*
X216634Y178495D01*
X216780Y178055D01*
X216927Y177587D01*
X217015Y177031D01*
X217044Y176445D01*
Y176416D01*
Y176357D01*
Y176210D01*
X217015Y176064D01*
X216985Y175859D01*
X216956Y175625D01*
X216868Y175068D01*
X216693Y174453D01*
X216429Y173750D01*
X216253Y173428D01*
X216048Y173077D01*
X215814Y172726D01*
X215550Y172403D01*
X215521Y172374D01*
X215463Y172316D01*
X215345Y172198D01*
X215199Y172052D01*
X214994Y171905D01*
X214760Y171700D01*
X214467Y171525D01*
X214115Y171320D01*
X213735Y171115D01*
X213325Y170910D01*
X212856Y170705D01*
X212358Y170558D01*
X211831Y170412D01*
X211216Y170295D01*
X210601Y170236D01*
X209928Y170207D01*
X209635D01*
X209312Y170236D01*
X208932Y170265D01*
X208522Y170324D01*
X208112Y170383D01*
X207760Y170500D01*
X207467Y170646D01*
X207438Y170675D01*
X207380Y170734D01*
X207262Y170822D01*
X207145Y170939D01*
X207028Y171085D01*
X206911Y171232D01*
X206852Y171408D01*
X206823Y171613D01*
Y171642D01*
Y171671D01*
X206852Y171847D01*
X206940Y172052D01*
X207116Y172286D01*
X207145D01*
X207175Y172345D01*
X207321Y172433D01*
X207585Y172521D01*
X207878Y172579D01*
X208083D01*
X208288Y172521D01*
X208551Y172462D01*
X208610Y172433D01*
X208668D01*
X208756Y172374D01*
X208873Y172316D01*
X209049Y172228D01*
X209283Y172111D01*
X209547Y171964D01*
X209576Y171935D01*
X209693Y171905D01*
X209810Y171818D01*
X209986Y171759D01*
X210367Y171583D01*
X210543Y171525D01*
X210660Y171466D01*
X210689D01*
X210748Y171437D01*
X210835D01*
X210982Y171408D01*
X211304Y171378D01*
X211714Y171349D01*
X211772D01*
X211948Y171378D01*
X212183Y171408D01*
X212505Y171466D01*
X212885Y171613D01*
X213266Y171788D01*
X213676Y172023D01*
X214057Y172374D01*
X214115Y172433D01*
X214233Y172550D01*
X214379Y172784D01*
X214584Y173077D01*
X214760Y173458D01*
X214935Y173868D01*
X215053Y174336D01*
X215082Y174863D01*
Y174922D01*
Y175039D01*
X215053Y175244D01*
X215023Y175508D01*
X214965Y175830D01*
X214877Y176181D01*
X214760Y176533D01*
X214613Y176913D01*
X214584Y176943D01*
X214555Y177031D01*
X214467Y177177D01*
X214379Y177323D01*
X214145Y177704D01*
X213998Y177880D01*
X213852Y178026D01*
X213823Y178055D01*
X213735Y178114D01*
X213618Y178231D01*
X213442Y178348D01*
X213207Y178495D01*
X212944Y178671D01*
X212622Y178817D01*
X212270Y178993D01*
X212241Y179022D01*
X212095Y179051D01*
X211919Y179139D01*
X211655Y179227D01*
X211362Y179286D01*
X211011Y179373D01*
X210630Y179403D01*
X210250Y179432D01*
X209840D01*
Y179842D01*
X209898D01*
X210015Y179871D01*
X210220Y179901D01*
X210513Y179988D01*
X210806Y180076D01*
X211187Y180193D01*
X211567Y180369D01*
X211948Y180574D01*
X212007Y180603D01*
X212124Y180691D01*
X212300Y180809D01*
X212534Y180984D01*
X212798Y181218D01*
X213032Y181453D01*
X213266Y181746D01*
X213471Y182068D01*
X213500Y182097D01*
X213559Y182214D01*
X213618Y182390D01*
X213735Y182654D01*
X213823Y182917D01*
X213881Y183269D01*
X213940Y183620D01*
X213969Y184001D01*
Y184030D01*
Y184059D01*
Y184235D01*
X213910Y184469D01*
X213852Y184791D01*
X213764Y185143D01*
X213588Y185494D01*
X213383Y185846D01*
X213090Y186197D01*
X213061Y186226D01*
X212944Y186343D01*
X212768Y186461D01*
X212505Y186636D01*
X212183Y186783D01*
X211831Y186929D01*
X211421Y187017D01*
X210952Y187046D01*
X210748D01*
X210601Y187017D01*
X210425Y186988D01*
X210220Y186929D01*
X209752Y186783D01*
X209488Y186666D01*
X209225Y186490D01*
X208932Y186314D01*
X208639Y186109D01*
X208346Y185846D01*
X208083Y185553D01*
X207790Y185201D01*
X207526Y184821D01*
X207087Y185055D01*
Y185084D01*
X207116Y185143D01*
X207175Y185231D01*
X207233Y185348D01*
X207380Y185670D01*
X207614Y186080D01*
X207907Y186519D01*
X208229Y186988D01*
X208610Y187427D01*
X209020Y187837D01*
X209078Y187866D01*
X209225Y187984D01*
X209488Y188159D01*
X209840Y188335D01*
X210250Y188511D01*
X210748Y188686D01*
X211333Y188804D01*
X211948Y188833D01*
X212153D01*
X212300Y188804D01*
D02*
G37*
G36*
X393698Y173282D02*
Y173223D01*
Y173106D01*
Y172901D01*
X393728Y172638D01*
X393757Y172140D01*
X393786Y171905D01*
X393845Y171730D01*
X393874Y171671D01*
X393962Y171525D01*
X394138Y171349D01*
X394343Y171173D01*
X394372D01*
X394401Y171144D01*
X394518Y171115D01*
X394636Y171085D01*
X394811Y171056D01*
X395046Y171027D01*
X395338Y170998D01*
X395661D01*
Y170529D01*
X389715D01*
Y170998D01*
X389979D01*
X390155Y171027D01*
X390536Y171056D01*
X390711Y171085D01*
X390828Y171144D01*
X390858D01*
X390887Y171173D01*
X391004Y171290D01*
X391180Y171466D01*
X391326Y171730D01*
Y171759D01*
X391356Y171818D01*
X391385Y171935D01*
X391414Y172081D01*
X391443Y172286D01*
X391473Y172550D01*
X391502Y172901D01*
Y173282D01*
Y184323D01*
Y184352D01*
Y184411D01*
Y184528D01*
Y184645D01*
Y184996D01*
Y185406D01*
X391473Y185816D01*
X391443Y186226D01*
X391414Y186578D01*
Y186695D01*
X391385Y186812D01*
Y186842D01*
X391356Y186900D01*
X391326Y187076D01*
X391238Y187281D01*
X391092Y187456D01*
X391063Y187486D01*
X390946Y187544D01*
X390770Y187603D01*
X390565Y187632D01*
X390506D01*
X390331Y187603D01*
X390038Y187544D01*
X389686Y187427D01*
X389481Y187896D01*
X393083Y189360D01*
X393698D01*
Y173282D01*
D02*
G37*
G36*
X386172D02*
Y173223D01*
Y173106D01*
Y172901D01*
X386201Y172638D01*
X386230Y172140D01*
X386260Y171905D01*
X386318Y171730D01*
X386348Y171671D01*
X386435Y171525D01*
X386611Y171349D01*
X386816Y171173D01*
X386845D01*
X386875Y171144D01*
X386992Y171115D01*
X387109Y171085D01*
X387285Y171056D01*
X387519Y171027D01*
X387812Y170998D01*
X388134D01*
Y170529D01*
X382189D01*
Y170998D01*
X382453D01*
X382628Y171027D01*
X383009Y171056D01*
X383185Y171085D01*
X383302Y171144D01*
X383331D01*
X383360Y171173D01*
X383478Y171290D01*
X383653Y171466D01*
X383800Y171730D01*
Y171759D01*
X383829Y171818D01*
X383858Y171935D01*
X383887Y172081D01*
X383917Y172286D01*
X383946Y172550D01*
X383975Y172901D01*
Y173282D01*
Y184323D01*
Y184352D01*
Y184411D01*
Y184528D01*
Y184645D01*
Y184996D01*
Y185406D01*
X383946Y185816D01*
X383917Y186226D01*
X383887Y186578D01*
Y186695D01*
X383858Y186812D01*
Y186842D01*
X383829Y186900D01*
X383800Y187076D01*
X383712Y187281D01*
X383565Y187456D01*
X383536Y187486D01*
X383419Y187544D01*
X383243Y187603D01*
X383038Y187632D01*
X382980D01*
X382804Y187603D01*
X382511Y187544D01*
X382160Y187427D01*
X381955Y187896D01*
X385557Y189360D01*
X386172D01*
Y173282D01*
D02*
G37*
G36*
X268734Y173282D02*
Y173223D01*
Y173106D01*
Y172901D01*
X268764Y172638D01*
X268793Y172140D01*
X268822Y171905D01*
X268881Y171730D01*
Y171700D01*
X268910Y171671D01*
X268998Y171525D01*
X269174Y171349D01*
X269379Y171173D01*
X269408D01*
X269437Y171144D01*
X269525Y171115D01*
X269642Y171085D01*
X269818Y171056D01*
X270023Y171027D01*
X270286Y170998D01*
X270579D01*
Y170529D01*
X264693D01*
Y170998D01*
X264986D01*
X265161Y171027D01*
X265571Y171056D01*
X265718Y171085D01*
X265864Y171144D01*
X265923Y171173D01*
X266040Y171290D01*
X266186Y171466D01*
X266333Y171730D01*
Y171759D01*
X266362Y171818D01*
X266391Y171935D01*
X266450Y172081D01*
X266479Y172286D01*
X266508Y172550D01*
X266538Y172901D01*
Y173282D01*
Y177968D01*
Y177997D01*
Y178056D01*
Y178143D01*
Y178290D01*
Y178612D01*
X266508Y179022D01*
Y179461D01*
X266479Y179871D01*
X266450Y180252D01*
X266421Y180399D01*
X266391Y180516D01*
Y180545D01*
X266362Y180574D01*
X266333Y180750D01*
X266245Y180926D01*
X266098Y181072D01*
X266069Y181101D01*
X265981Y181160D01*
X265806Y181218D01*
X265571Y181248D01*
X265425D01*
X265308Y181218D01*
X265015Y181189D01*
X264663Y181072D01*
X264488Y181541D01*
X268148Y183005D01*
X268734D01*
Y173282D01*
D02*
G37*
G36*
X225889Y188804D02*
X226094D01*
X226299Y188774D01*
X226796Y188657D01*
X227382Y188481D01*
X227997Y188247D01*
X228583Y187896D01*
X228876Y187661D01*
X229168Y187427D01*
X229198Y187398D01*
X229227Y187369D01*
X229315Y187281D01*
X229403Y187193D01*
X229637Y186871D01*
X229930Y186490D01*
X230194Y185992D01*
X230428Y185436D01*
X230604Y184821D01*
X230633Y184469D01*
X230662Y184118D01*
Y184088D01*
Y184059D01*
Y183883D01*
X230633Y183620D01*
X230574Y183269D01*
X230516Y182859D01*
X230399Y182390D01*
X230223Y181892D01*
X230018Y181394D01*
Y181365D01*
X229959Y181306D01*
X229901Y181189D01*
X229842Y181014D01*
X229725Y180838D01*
X229578Y180603D01*
X229432Y180311D01*
X229256Y180018D01*
X228788Y179344D01*
X228231Y178583D01*
X227587Y177733D01*
X226796Y176855D01*
X226767Y176826D01*
X226650Y176708D01*
X226474Y176533D01*
X226269Y176298D01*
X226006Y176005D01*
X225713Y175683D01*
X225039Y174981D01*
X224336Y174248D01*
X223663Y173545D01*
X223370Y173223D01*
X223106Y172960D01*
X222872Y172726D01*
X222696Y172550D01*
X228144D01*
X228788Y172579D01*
X229110Y172608D01*
X229344Y172638D01*
X229373D01*
X229432Y172667D01*
X229549Y172696D01*
X229696Y172726D01*
X230047Y172872D01*
X230399Y173077D01*
X230428Y173106D01*
X230486Y173136D01*
X230574Y173223D01*
X230691Y173311D01*
X230955Y173604D01*
X231219Y173985D01*
X231746D01*
X230486Y170529D01*
X219885D01*
Y170998D01*
X219943Y171056D01*
X220090Y171173D01*
X220324Y171408D01*
X220646Y171700D01*
X221027Y172081D01*
X221466Y172491D01*
X221964Y172960D01*
X222462Y173487D01*
X223018Y174014D01*
X223546Y174571D01*
X224629Y175742D01*
X225156Y176328D01*
X225654Y176884D01*
X226094Y177440D01*
X226474Y177968D01*
X226504Y177997D01*
X226562Y178085D01*
X226650Y178231D01*
X226767Y178436D01*
X226914Y178671D01*
X227089Y178934D01*
X227265Y179256D01*
X227441Y179608D01*
X227792Y180340D01*
X228114Y181189D01*
X228231Y181599D01*
X228319Y182038D01*
X228378Y182478D01*
X228407Y182888D01*
Y182917D01*
Y182976D01*
Y183064D01*
X228378Y183181D01*
X228349Y183503D01*
X228290Y183883D01*
X228144Y184323D01*
X227968Y184791D01*
X227704Y185260D01*
X227353Y185699D01*
X227294Y185758D01*
X227177Y185875D01*
X226943Y186051D01*
X226650Y186256D01*
X226269Y186461D01*
X225859Y186636D01*
X225361Y186754D01*
X224834Y186812D01*
X224600D01*
X224366Y186783D01*
X224043Y186724D01*
X223663Y186607D01*
X223282Y186490D01*
X222872Y186285D01*
X222462Y186021D01*
X222403Y185992D01*
X222286Y185875D01*
X222111Y185699D01*
X221876Y185465D01*
X221613Y185143D01*
X221349Y184762D01*
X221115Y184323D01*
X220881Y183796D01*
X220412D01*
Y183825D01*
X220441Y183913D01*
Y184030D01*
X220471Y184206D01*
X220529Y184411D01*
X220588Y184645D01*
X220734Y185172D01*
X220968Y185787D01*
X221261Y186402D01*
X221642Y186988D01*
X222111Y187515D01*
X222140Y187544D01*
X222169Y187574D01*
X222257Y187632D01*
X222345Y187720D01*
X222667Y187925D01*
X223048Y188189D01*
X223546Y188423D01*
X224131Y188628D01*
X224805Y188774D01*
X225156Y188833D01*
X225742D01*
X225889Y188804D01*
D02*
G37*
G36*
X355421Y182654D02*
X358233D01*
Y181746D01*
X355421Y181716D01*
Y173838D01*
Y173780D01*
Y173663D01*
X355451Y173458D01*
Y173194D01*
X355568Y172667D01*
X355626Y172433D01*
X355743Y172257D01*
X355773Y172228D01*
X355802Y172198D01*
X355978Y172052D01*
X356241Y171905D01*
X356417Y171876D01*
X356593Y171847D01*
X356681D01*
X356768Y171876D01*
X356856D01*
X357149Y171964D01*
X357442Y172111D01*
X357471D01*
X357501Y172169D01*
X357676Y172316D01*
X357881Y172579D01*
X358086Y172931D01*
X358614D01*
X358584Y172872D01*
X358526Y172726D01*
X358409Y172491D01*
X358262Y172198D01*
X358086Y171876D01*
X357852Y171554D01*
X357589Y171232D01*
X357296Y170968D01*
X357266Y170939D01*
X357149Y170881D01*
X356973Y170763D01*
X356768Y170646D01*
X356505Y170529D01*
X356183Y170412D01*
X355890Y170353D01*
X355538Y170324D01*
X355421D01*
X355304Y170353D01*
X355158D01*
X354777Y170470D01*
X354572Y170529D01*
X354338Y170646D01*
X354309Y170676D01*
X354250Y170705D01*
X354133Y170793D01*
X354016Y170910D01*
X353723Y171203D01*
X353606Y171408D01*
X353488Y171613D01*
Y171642D01*
X353459Y171730D01*
X353401Y171876D01*
X353371Y172111D01*
X353313Y172374D01*
X353254Y172696D01*
X353225Y173106D01*
Y173545D01*
Y181746D01*
X351292D01*
Y182156D01*
X351321Y182185D01*
X351409Y182214D01*
X351556Y182273D01*
X351761Y182390D01*
X351966Y182507D01*
X352229Y182683D01*
X352493Y182888D01*
X352786Y183122D01*
X352815Y183151D01*
X352903Y183239D01*
X353049Y183386D01*
X353254Y183591D01*
X353459Y183825D01*
X353664Y184118D01*
X353899Y184440D01*
X354133Y184791D01*
X354162Y184821D01*
X354191Y184879D01*
X354279Y185026D01*
X354367Y185201D01*
X354484Y185465D01*
X354631Y185787D01*
X354806Y186168D01*
X355011Y186636D01*
X355421D01*
Y182654D01*
D02*
G37*
G36*
X403129Y182976D02*
X403275D01*
X403480Y182946D01*
X403949Y182829D01*
X404476Y182683D01*
X405032Y182449D01*
X405589Y182097D01*
X405852Y181892D01*
X406116Y181658D01*
X406145Y181628D01*
X406174Y181599D01*
X406233Y181511D01*
X406321Y181423D01*
X406526Y181101D01*
X406789Y180721D01*
X407024Y180194D01*
X407229Y179578D01*
X407375Y178876D01*
X407434Y178495D01*
Y178085D01*
X399058D01*
Y178056D01*
Y177968D01*
Y177821D01*
X399087Y177646D01*
Y177411D01*
X399116Y177148D01*
X399204Y176562D01*
X399351Y175859D01*
X399585Y175156D01*
X399907Y174483D01*
X400112Y174160D01*
X400346Y173868D01*
X400376Y173838D01*
X400405Y173809D01*
X400581Y173633D01*
X400844Y173399D01*
X401225Y173106D01*
X401693Y172813D01*
X402221Y172579D01*
X402806Y172403D01*
X403129Y172374D01*
X403451Y172345D01*
X403656D01*
X403890Y172374D01*
X404154Y172433D01*
X404476Y172491D01*
X404827Y172608D01*
X405179Y172784D01*
X405530Y172989D01*
X405559Y173018D01*
X405676Y173106D01*
X405852Y173282D01*
X406057Y173516D01*
X406292Y173809D01*
X406526Y174219D01*
X406789Y174688D01*
X407024Y175244D01*
X407434Y174951D01*
Y174922D01*
Y174863D01*
X407404Y174776D01*
X407375Y174658D01*
X407317Y174483D01*
X407258Y174307D01*
X407112Y173868D01*
X406907Y173340D01*
X406614Y172784D01*
X406262Y172228D01*
X405794Y171642D01*
Y171613D01*
X405735Y171583D01*
X405559Y171408D01*
X405266Y171173D01*
X404886Y170910D01*
X404388Y170646D01*
X403831Y170412D01*
X403187Y170236D01*
X402836Y170207D01*
X402455Y170178D01*
X402250D01*
X402104Y170207D01*
X401898Y170236D01*
X401693Y170266D01*
X401166Y170383D01*
X400610Y170588D01*
X400288Y170734D01*
X399966Y170881D01*
X399644Y171085D01*
X399351Y171290D01*
X399029Y171554D01*
X398736Y171847D01*
X398706Y171876D01*
X398677Y171935D01*
X398589Y172023D01*
X398501Y172169D01*
X398384Y172316D01*
X398238Y172550D01*
X398091Y172784D01*
X397974Y173048D01*
X397828Y173370D01*
X397681Y173721D01*
X397535Y174073D01*
X397418Y174483D01*
X397330Y174922D01*
X397242Y175391D01*
X397213Y175888D01*
X397183Y176416D01*
Y176445D01*
Y176562D01*
Y176708D01*
X397213Y176943D01*
X397242Y177177D01*
X397271Y177499D01*
X397330Y177821D01*
X397388Y178173D01*
X397564Y178964D01*
X397857Y179754D01*
X398033Y180164D01*
X398238Y180545D01*
X398501Y180896D01*
X398765Y181248D01*
X398794Y181277D01*
X398853Y181336D01*
X398941Y181423D01*
X399058Y181511D01*
X399204Y181658D01*
X399380Y181804D01*
X399614Y181951D01*
X399849Y182126D01*
X400434Y182449D01*
X401137Y182741D01*
X401518Y182829D01*
X401898Y182917D01*
X402338Y182976D01*
X402777Y183005D01*
X402982D01*
X403129Y182976D01*
D02*
G37*
G36*
X374809Y182976D02*
X375043Y182946D01*
X375307Y182888D01*
X375600Y182829D01*
X375922Y182741D01*
X376273Y182624D01*
X376624Y182478D01*
X377005Y182331D01*
X377357Y182126D01*
X377737Y181863D01*
X378089Y181599D01*
X378440Y181277D01*
X378762Y180896D01*
X378792Y180867D01*
X378821Y180809D01*
X378909Y180721D01*
X378997Y180574D01*
X379085Y180399D01*
X379231Y180223D01*
X379348Y179988D01*
X379495Y179725D01*
X379758Y179110D01*
X379963Y178407D01*
X380139Y177646D01*
X380168Y177236D01*
X380197Y176796D01*
Y176767D01*
Y176738D01*
Y176650D01*
Y176533D01*
X380168Y176211D01*
X380110Y175771D01*
X379992Y175303D01*
X379875Y174746D01*
X379670Y174131D01*
X379407Y173516D01*
Y173487D01*
X379377Y173458D01*
X379319Y173370D01*
X379260Y173253D01*
X379085Y172931D01*
X378850Y172579D01*
X378528Y172169D01*
X378147Y171759D01*
X377737Y171349D01*
X377240Y170998D01*
X377181Y170968D01*
X377005Y170881D01*
X376712Y170734D01*
X376361Y170588D01*
X375892Y170441D01*
X375395Y170295D01*
X374809Y170207D01*
X374194Y170178D01*
X374077D01*
X373930Y170207D01*
X373755D01*
X373520Y170236D01*
X373257Y170295D01*
X372964Y170353D01*
X372642Y170441D01*
X372290Y170558D01*
X371939Y170705D01*
X371587Y170881D01*
X371207Y171085D01*
X370855Y171349D01*
X370504Y171642D01*
X370182Y171964D01*
X369859Y172345D01*
Y172374D01*
X369801Y172433D01*
X369742Y172521D01*
X369654Y172667D01*
X369537Y172843D01*
X369420Y173048D01*
X369303Y173282D01*
X369186Y173545D01*
X368952Y174160D01*
X368717Y174863D01*
X368571Y175654D01*
X368542Y176064D01*
X368512Y176474D01*
Y176503D01*
Y176562D01*
Y176650D01*
Y176767D01*
X368571Y177089D01*
X368629Y177528D01*
X368717Y178026D01*
X368864Y178583D01*
X369069Y179168D01*
X369332Y179783D01*
Y179813D01*
X369362Y179842D01*
X369420Y179930D01*
X369479Y180047D01*
X369654Y180340D01*
X369918Y180691D01*
X370211Y181101D01*
X370592Y181511D01*
X371031Y181892D01*
X371499Y182214D01*
X371529D01*
X371558Y182243D01*
X371734Y182331D01*
X371997Y182478D01*
X372349Y182624D01*
X372788Y182741D01*
X373257Y182888D01*
X373784Y182976D01*
X374340Y183005D01*
X374604D01*
X374809Y182976D01*
D02*
G37*
G36*
X331143D02*
X331377Y182946D01*
X331641Y182888D01*
X331934Y182829D01*
X332256Y182741D01*
X332607Y182624D01*
X332959Y182478D01*
X333340Y182331D01*
X333691Y182126D01*
X334072Y181863D01*
X334423Y181599D01*
X334775Y181277D01*
X335097Y180896D01*
X335126Y180867D01*
X335155Y180809D01*
X335243Y180721D01*
X335331Y180574D01*
X335419Y180399D01*
X335565Y180223D01*
X335682Y179988D01*
X335829Y179725D01*
X336092Y179110D01*
X336297Y178407D01*
X336473Y177646D01*
X336502Y177236D01*
X336532Y176796D01*
Y176767D01*
Y176738D01*
Y176650D01*
Y176533D01*
X336502Y176210D01*
X336444Y175771D01*
X336327Y175303D01*
X336210Y174746D01*
X336005Y174131D01*
X335741Y173516D01*
Y173487D01*
X335712Y173458D01*
X335653Y173370D01*
X335595Y173253D01*
X335419Y172931D01*
X335185Y172579D01*
X334862Y172169D01*
X334482Y171759D01*
X334072Y171349D01*
X333574Y170998D01*
X333515Y170968D01*
X333340Y170881D01*
X333047Y170734D01*
X332695Y170588D01*
X332227Y170441D01*
X331729Y170295D01*
X331143Y170207D01*
X330528Y170178D01*
X330411D01*
X330265Y170207D01*
X330089D01*
X329855Y170236D01*
X329591Y170295D01*
X329298Y170353D01*
X328976Y170441D01*
X328624Y170558D01*
X328273Y170705D01*
X327922Y170881D01*
X327541Y171085D01*
X327189Y171349D01*
X326838Y171642D01*
X326516Y171964D01*
X326194Y172345D01*
Y172374D01*
X326135Y172433D01*
X326077Y172521D01*
X325989Y172667D01*
X325872Y172843D01*
X325754Y173048D01*
X325637Y173282D01*
X325520Y173545D01*
X325286Y174160D01*
X325051Y174863D01*
X324905Y175654D01*
X324876Y176064D01*
X324846Y176474D01*
Y176503D01*
Y176562D01*
Y176650D01*
Y176767D01*
X324905Y177089D01*
X324964Y177528D01*
X325051Y178026D01*
X325198Y178583D01*
X325403Y179168D01*
X325667Y179783D01*
Y179813D01*
X325696Y179842D01*
X325754Y179930D01*
X325813Y180047D01*
X325989Y180340D01*
X326252Y180691D01*
X326545Y181101D01*
X326926Y181511D01*
X327365Y181892D01*
X327834Y182214D01*
X327863D01*
X327892Y182243D01*
X328068Y182331D01*
X328332Y182478D01*
X328683Y182624D01*
X329122Y182741D01*
X329591Y182888D01*
X330118Y182976D01*
X330675Y183005D01*
X330938D01*
X331143Y182976D01*
D02*
G37*
G36*
X299514D02*
X299748Y182946D01*
X300012Y182888D01*
X300305Y182829D01*
X300627Y182741D01*
X300978Y182624D01*
X301330Y182478D01*
X301710Y182331D01*
X302062Y182126D01*
X302443Y181863D01*
X302794Y181599D01*
X303146Y181277D01*
X303468Y180896D01*
X303497Y180867D01*
X303526Y180809D01*
X303614Y180721D01*
X303702Y180574D01*
X303790Y180399D01*
X303936Y180223D01*
X304053Y179988D01*
X304200Y179725D01*
X304463Y179110D01*
X304668Y178407D01*
X304844Y177646D01*
X304873Y177236D01*
X304903Y176796D01*
Y176767D01*
Y176738D01*
Y176650D01*
Y176533D01*
X304873Y176210D01*
X304815Y175771D01*
X304698Y175303D01*
X304580Y174746D01*
X304375Y174131D01*
X304112Y173516D01*
Y173487D01*
X304083Y173458D01*
X304024Y173370D01*
X303965Y173253D01*
X303790Y172931D01*
X303556Y172579D01*
X303233Y172169D01*
X302853Y171759D01*
X302443Y171349D01*
X301945Y170998D01*
X301886Y170968D01*
X301710Y170881D01*
X301418Y170734D01*
X301066Y170588D01*
X300598Y170441D01*
X300100Y170295D01*
X299514Y170207D01*
X298899Y170178D01*
X298782D01*
X298635Y170207D01*
X298460D01*
X298225Y170236D01*
X297962Y170295D01*
X297669Y170353D01*
X297347Y170441D01*
X296995Y170558D01*
X296644Y170705D01*
X296292Y170881D01*
X295912Y171085D01*
X295560Y171349D01*
X295209Y171642D01*
X294887Y171964D01*
X294565Y172345D01*
Y172374D01*
X294506Y172433D01*
X294447Y172521D01*
X294360Y172667D01*
X294242Y172843D01*
X294125Y173048D01*
X294008Y173282D01*
X293891Y173545D01*
X293657Y174160D01*
X293423Y174863D01*
X293276Y175654D01*
X293247Y176064D01*
X293217Y176474D01*
Y176503D01*
Y176562D01*
Y176650D01*
Y176767D01*
X293276Y177089D01*
X293335Y177528D01*
X293423Y178026D01*
X293569Y178583D01*
X293774Y179168D01*
X294037Y179783D01*
Y179813D01*
X294067Y179842D01*
X294125Y179930D01*
X294184Y180047D01*
X294360Y180340D01*
X294623Y180691D01*
X294916Y181101D01*
X295297Y181511D01*
X295736Y181892D01*
X296205Y182214D01*
X296234D01*
X296263Y182243D01*
X296439Y182331D01*
X296702Y182478D01*
X297054Y182624D01*
X297493Y182741D01*
X297962Y182888D01*
X298489Y182976D01*
X299045Y183005D01*
X299309D01*
X299514Y182976D01*
D02*
G37*
G36*
X559365Y68627D02*
X558516D01*
X558311Y68597D01*
X558076Y68539D01*
X557813Y68480D01*
X557549Y68363D01*
X557315Y68187D01*
X557080Y67982D01*
Y67953D01*
X557022Y67895D01*
X556993Y67748D01*
X556934Y67572D01*
X556875Y67309D01*
X556846Y66957D01*
X556788Y66518D01*
Y65962D01*
Y57176D01*
Y57147D01*
Y57088D01*
Y56971D01*
Y56824D01*
Y56649D01*
X556758Y56473D01*
X556729Y56004D01*
X556670Y55477D01*
X556583Y54921D01*
X556465Y54364D01*
X556319Y53866D01*
X556290Y53808D01*
X556231Y53661D01*
X556114Y53427D01*
X555968Y53134D01*
X555763Y52783D01*
X555499Y52402D01*
X555177Y52021D01*
X554796Y51670D01*
X554738Y51641D01*
X554591Y51523D01*
X554386Y51377D01*
X554064Y51231D01*
X553683Y51055D01*
X553244Y50908D01*
X552746Y50791D01*
X552190Y50762D01*
X551985D01*
X551750Y50791D01*
X551487Y50850D01*
X551165Y50908D01*
X550843Y51026D01*
X550520Y51172D01*
X550228Y51377D01*
X550198Y51406D01*
X550110Y51494D01*
X549993Y51611D01*
X549876Y51787D01*
X549759Y51992D01*
X549642Y52226D01*
X549554Y52490D01*
X549525Y52783D01*
Y52812D01*
Y52900D01*
X549554Y53017D01*
Y53134D01*
X549671Y53456D01*
X549730Y53603D01*
X549847Y53749D01*
X549876Y53779D01*
X549935Y53808D01*
X550023Y53896D01*
X550140Y53984D01*
X550462Y54130D01*
X550667Y54159D01*
X550872Y54189D01*
X550930D01*
X551106Y54159D01*
X551340Y54071D01*
X551604Y53896D01*
X551633D01*
X551663Y53837D01*
X551750Y53749D01*
X551838Y53603D01*
X551985Y53398D01*
X552131Y53134D01*
X552307Y52812D01*
X552483Y52402D01*
Y52373D01*
X552541Y52285D01*
X552600Y52168D01*
X552688Y52051D01*
X552805Y51933D01*
X552922Y51816D01*
X553068Y51729D01*
X553244Y51699D01*
X553303D01*
X553449Y51758D01*
X553683Y51875D01*
X553801Y51963D01*
X553918Y52109D01*
X553947Y52139D01*
X553976Y52197D01*
X554035Y52314D01*
X554093Y52461D01*
X554152Y52695D01*
X554181Y52958D01*
X554240Y53281D01*
Y53661D01*
Y65962D01*
Y65991D01*
Y66020D01*
Y66167D01*
Y66401D01*
X554211Y66694D01*
Y66987D01*
X554181Y67280D01*
X554123Y67514D01*
X554064Y67719D01*
Y67748D01*
X554035Y67777D01*
X553947Y67924D01*
X553771Y68129D01*
X553508Y68305D01*
X553478Y68334D01*
X553420Y68363D01*
X553303Y68422D01*
X553127Y68480D01*
X552746Y68568D01*
X552541Y68627D01*
X551663D01*
Y69124D01*
X559365D01*
Y68627D01*
D02*
G37*
G36*
X567506Y54335D02*
Y54306D01*
Y54276D01*
Y54101D01*
Y53837D01*
X567536Y53515D01*
Y53193D01*
X567565Y52900D01*
X567594Y52636D01*
X567624Y52431D01*
X567653Y52373D01*
X567741Y52226D01*
X567887Y52051D01*
X568121Y51875D01*
X568151D01*
X568209Y51846D01*
X568326Y51816D01*
X568473Y51787D01*
X568707Y51729D01*
X569000Y51699D01*
X569352Y51670D01*
X569762D01*
Y51172D01*
X562996D01*
Y51670D01*
X563406D01*
X563670Y51699D01*
X563963D01*
X564226Y51758D01*
X564461Y51787D01*
X564636Y51846D01*
X564666D01*
X564695Y51875D01*
X564841Y51992D01*
X565017Y52168D01*
X565163Y52373D01*
Y52402D01*
X565193Y52461D01*
X565222Y52578D01*
X565251Y52754D01*
Y53017D01*
X565281Y53339D01*
X565310Y53779D01*
Y54042D01*
Y54335D01*
Y63999D01*
Y64029D01*
Y64087D01*
Y64175D01*
Y64322D01*
Y64644D01*
X565281Y65024D01*
Y65464D01*
X565251Y65874D01*
X565222Y66225D01*
X565193Y66372D01*
X565163Y66489D01*
Y66518D01*
X565134Y66547D01*
X565076Y66723D01*
X564988Y66957D01*
X564812Y67133D01*
X564783Y67162D01*
X564666Y67250D01*
X564490Y67309D01*
X564256Y67338D01*
X564168D01*
X564051Y67309D01*
X563904Y67280D01*
X563699Y67250D01*
X563465Y67162D01*
X563201Y67074D01*
X562879Y66928D01*
X562704Y67338D01*
X567067Y69476D01*
X567506D01*
Y54335D01*
D02*
G37*
G36*
X833415Y63390D02*
X828027D01*
X826826Y60959D01*
X826855D01*
X826972Y60930D01*
X827177Y60900D01*
X827412Y60842D01*
X827704Y60783D01*
X828056Y60695D01*
X828437Y60578D01*
X828847Y60461D01*
X829725Y60110D01*
X830194Y59905D01*
X830662Y59641D01*
X831131Y59377D01*
X831570Y59085D01*
X831980Y58733D01*
X832390Y58352D01*
X832420Y58323D01*
X832478Y58265D01*
X832566Y58177D01*
X832683Y58030D01*
X832800Y57855D01*
X832947Y57650D01*
X833122Y57415D01*
X833298Y57152D01*
X833620Y56537D01*
X833913Y55834D01*
X834001Y55424D01*
X834089Y55014D01*
X834147Y54574D01*
X834177Y54135D01*
Y54106D01*
Y54077D01*
Y53901D01*
X834147Y53608D01*
X834118Y53257D01*
X834030Y52876D01*
X833942Y52407D01*
X833796Y51968D01*
X833591Y51500D01*
X833562Y51441D01*
X833474Y51294D01*
X833357Y51090D01*
X833181Y50797D01*
X832976Y50475D01*
X832742Y50123D01*
X832449Y49772D01*
X832127Y49450D01*
X832097Y49420D01*
X831980Y49303D01*
X831805Y49157D01*
X831570Y48952D01*
X831277Y48747D01*
X830955Y48512D01*
X830575Y48278D01*
X830194Y48073D01*
X830165D01*
X830135Y48044D01*
X830047Y48014D01*
X829930Y47956D01*
X829637Y47839D01*
X829227Y47722D01*
X828759Y47604D01*
X828232Y47487D01*
X827646Y47399D01*
X827060Y47370D01*
X826797D01*
X826504Y47399D01*
X826152Y47429D01*
X825772Y47487D01*
X825391Y47604D01*
X825040Y47722D01*
X824717Y47897D01*
X824688Y47927D01*
X824600Y47985D01*
X824483Y48102D01*
X824366Y48249D01*
X824220Y48454D01*
X824102Y48659D01*
X824015Y48893D01*
X823985Y49127D01*
Y49157D01*
Y49186D01*
X824015Y49332D01*
X824102Y49537D01*
X824278Y49772D01*
X824337Y49830D01*
X824483Y49918D01*
X824717Y50006D01*
X825040Y50065D01*
X825245D01*
X825450Y50006D01*
X825625Y49947D01*
X825684Y49918D01*
X825742Y49889D01*
X825830Y49859D01*
X825977Y49772D01*
X826123Y49684D01*
X826299Y49567D01*
X826533Y49420D01*
X826592Y49391D01*
X826709Y49303D01*
X826914Y49186D01*
X827148Y49069D01*
X827470Y48952D01*
X827792Y48834D01*
X828144Y48747D01*
X828524Y48717D01*
X828671D01*
X828788Y48747D01*
X829081Y48776D01*
X829462Y48864D01*
X829872Y49010D01*
X830340Y49215D01*
X830809Y49508D01*
X831248Y49889D01*
X831307Y49947D01*
X831424Y50094D01*
X831629Y50357D01*
X831863Y50679D01*
X832068Y51090D01*
X832273Y51587D01*
X832390Y52115D01*
X832449Y52730D01*
Y52759D01*
Y52817D01*
Y52905D01*
X832420Y53022D01*
X832390Y53315D01*
X832332Y53725D01*
X832185Y54194D01*
X832010Y54721D01*
X831746Y55248D01*
X831395Y55775D01*
Y55805D01*
X831336Y55834D01*
X831190Y56010D01*
X830955Y56273D01*
X830633Y56595D01*
X830223Y56947D01*
X829725Y57298D01*
X829139Y57650D01*
X828495Y57972D01*
X828466D01*
X828437Y58001D01*
X828349Y58030D01*
X828232Y58060D01*
X828085Y58118D01*
X827909Y58177D01*
X827704Y58235D01*
X827470Y58294D01*
X826914Y58411D01*
X826240Y58528D01*
X825450Y58616D01*
X824571Y58675D01*
X828027Y65645D01*
X834470D01*
X833415Y63390D01*
D02*
G37*
G36*
X822404Y65147D02*
X821525D01*
X821349Y65088D01*
X821115Y65030D01*
X820852Y64913D01*
X820588Y64766D01*
X820324Y64532D01*
X820090Y64239D01*
Y64210D01*
X820061Y64151D01*
X820002Y64034D01*
X819973Y63858D01*
X819914Y63595D01*
X819856Y63273D01*
X819827Y62863D01*
Y62365D01*
Y55072D01*
Y55043D01*
Y54955D01*
Y54809D01*
Y54633D01*
X819797Y54399D01*
Y54135D01*
X819768Y53549D01*
X819680Y52876D01*
X819592Y52173D01*
X819446Y51500D01*
X819270Y50884D01*
Y50855D01*
X819241Y50826D01*
X819212Y50738D01*
X819153Y50650D01*
X819007Y50357D01*
X818801Y50006D01*
X818538Y49596D01*
X818157Y49186D01*
X817718Y48747D01*
X817161Y48337D01*
X817132D01*
X817103Y48278D01*
X817015Y48249D01*
X816869Y48161D01*
X816722Y48102D01*
X816517Y48014D01*
X816312Y47897D01*
X816049Y47809D01*
X815756Y47722D01*
X815434Y47604D01*
X815082Y47517D01*
X814731Y47458D01*
X813881Y47341D01*
X812915Y47282D01*
X812622D01*
X812446Y47312D01*
X812183D01*
X811919Y47341D01*
X811597Y47370D01*
X811275Y47399D01*
X810543Y47517D01*
X809811Y47692D01*
X809079Y47956D01*
X808756Y48102D01*
X808464Y48278D01*
X808434D01*
X808405Y48337D01*
X808229Y48454D01*
X807936Y48688D01*
X807614Y49010D01*
X807263Y49391D01*
X806911Y49859D01*
X806589Y50416D01*
X806296Y51031D01*
Y51060D01*
X806267Y51090D01*
Y51148D01*
X806238Y51265D01*
X806208Y51412D01*
X806179Y51587D01*
X806121Y51792D01*
X806091Y52027D01*
X806062Y52319D01*
X806003Y52612D01*
X805974Y52993D01*
X805945Y53403D01*
X805916Y53842D01*
Y54340D01*
X805886Y54867D01*
Y55453D01*
Y62482D01*
Y62511D01*
Y62540D01*
Y62628D01*
Y62745D01*
X805857Y63038D01*
X805828Y63360D01*
X805769Y63712D01*
X805681Y64063D01*
X805564Y64385D01*
X805418Y64620D01*
X805388Y64649D01*
X805330Y64708D01*
X805213Y64795D01*
X805066Y64883D01*
X804861Y64971D01*
X804598Y65059D01*
X804305Y65118D01*
X803953Y65147D01*
X803280D01*
Y65645D01*
X811041D01*
Y65147D01*
X810162D01*
X809957Y65118D01*
X809723Y65059D01*
X809459Y64971D01*
X809196Y64854D01*
X808961Y64678D01*
X808756Y64444D01*
Y64415D01*
X808698Y64356D01*
X808669Y64210D01*
X808610Y64034D01*
X808551Y63770D01*
X808493Y63419D01*
X808464Y63009D01*
X808434Y62482D01*
Y54633D01*
Y54574D01*
Y54457D01*
Y54223D01*
X808464Y53959D01*
Y53608D01*
X808522Y53198D01*
X808551Y52730D01*
X808610Y52232D01*
Y52173D01*
X808639Y51997D01*
X808698Y51763D01*
X808786Y51470D01*
X808874Y51119D01*
X808991Y50767D01*
X809137Y50445D01*
X809313Y50123D01*
X809342Y50094D01*
X809401Y50006D01*
X809518Y49859D01*
X809694Y49684D01*
X809869Y49508D01*
X810133Y49303D01*
X810426Y49098D01*
X810748Y48893D01*
X810806Y48864D01*
X810923Y48834D01*
X811128Y48747D01*
X811392Y48659D01*
X811743Y48571D01*
X812153Y48512D01*
X812593Y48454D01*
X813091Y48424D01*
X813384D01*
X813706Y48454D01*
X814145Y48512D01*
X814643Y48600D01*
X815141Y48747D01*
X815697Y48922D01*
X816224Y49186D01*
X816254D01*
X816283Y49215D01*
X816459Y49332D01*
X816693Y49479D01*
X816986Y49713D01*
X817308Y50006D01*
X817630Y50328D01*
X817894Y50709D01*
X818128Y51148D01*
Y51177D01*
X818157Y51207D01*
X818186Y51265D01*
X818216Y51382D01*
X818245Y51529D01*
X818304Y51675D01*
X818333Y51880D01*
X818391Y52115D01*
X818450Y52378D01*
X818479Y52671D01*
X818538Y52993D01*
X818567Y53374D01*
X818596Y53755D01*
X818626Y54194D01*
X818655Y54662D01*
Y55190D01*
Y62482D01*
Y62511D01*
Y62540D01*
Y62628D01*
Y62745D01*
X818626Y63038D01*
X818596Y63360D01*
X818567Y63712D01*
X818509Y64063D01*
X818391Y64356D01*
X818274Y64561D01*
X818245Y64590D01*
X818186Y64649D01*
X818069Y64737D01*
X817894Y64854D01*
X817659Y64971D01*
X817425Y65059D01*
X817103Y65118D01*
X816751Y65147D01*
X816078D01*
Y65645D01*
X822404D01*
Y65147D01*
D02*
G37*
G36*
X466993Y507227D02*
X466115D01*
X465939Y507168D01*
X465705Y507109D01*
X465441Y506992D01*
X465178Y506846D01*
X464914Y506612D01*
X464680Y506319D01*
Y506289D01*
X464650Y506231D01*
X464592Y506114D01*
X464563Y505938D01*
X464504Y505675D01*
X464445Y505352D01*
X464416Y504942D01*
Y504445D01*
Y497152D01*
Y497123D01*
Y497035D01*
Y496889D01*
Y496713D01*
X464387Y496479D01*
Y496215D01*
X464358Y495629D01*
X464270Y494956D01*
X464182Y494253D01*
X464035Y493579D01*
X463860Y492964D01*
Y492935D01*
X463830Y492906D01*
X463801Y492818D01*
X463743Y492730D01*
X463596Y492437D01*
X463391Y492086D01*
X463128Y491676D01*
X462747Y491266D01*
X462308Y490826D01*
X461751Y490416D01*
X461722D01*
X461693Y490358D01*
X461605Y490328D01*
X461458Y490241D01*
X461312Y490182D01*
X461107Y490094D01*
X460902Y489977D01*
X460638Y489889D01*
X460345Y489801D01*
X460023Y489684D01*
X459672Y489596D01*
X459320Y489538D01*
X458471Y489421D01*
X457505Y489362D01*
X457212D01*
X457036Y489391D01*
X456772D01*
X456509Y489421D01*
X456187Y489450D01*
X455865Y489479D01*
X455132Y489596D01*
X454400Y489772D01*
X453668Y490036D01*
X453346Y490182D01*
X453053Y490358D01*
X453024D01*
X452995Y490416D01*
X452819Y490533D01*
X452526Y490768D01*
X452204Y491090D01*
X451852Y491471D01*
X451501Y491939D01*
X451179Y492496D01*
X450886Y493111D01*
Y493140D01*
X450857Y493169D01*
Y493228D01*
X450827Y493345D01*
X450798Y493491D01*
X450769Y493667D01*
X450710Y493872D01*
X450681Y494106D01*
X450652Y494399D01*
X450593Y494692D01*
X450564Y495073D01*
X450535Y495483D01*
X450505Y495922D01*
Y496420D01*
X450476Y496947D01*
Y497533D01*
Y504562D01*
Y504591D01*
Y504620D01*
Y504708D01*
Y504825D01*
X450447Y505118D01*
X450417Y505440D01*
X450359Y505792D01*
X450271Y506143D01*
X450154Y506465D01*
X450007Y506699D01*
X449978Y506729D01*
X449920Y506787D01*
X449802Y506875D01*
X449656Y506963D01*
X449451Y507051D01*
X449187Y507139D01*
X448895Y507197D01*
X448543Y507227D01*
X447869D01*
Y507724D01*
X455630D01*
Y507227D01*
X454752D01*
X454547Y507197D01*
X454313Y507139D01*
X454049Y507051D01*
X453785Y506934D01*
X453551Y506758D01*
X453346Y506524D01*
Y506494D01*
X453288Y506436D01*
X453258Y506289D01*
X453200Y506114D01*
X453141Y505850D01*
X453083Y505499D01*
X453053Y505089D01*
X453024Y504562D01*
Y496713D01*
Y496654D01*
Y496537D01*
Y496303D01*
X453053Y496039D01*
Y495688D01*
X453112Y495278D01*
X453141Y494809D01*
X453200Y494311D01*
Y494253D01*
X453229Y494077D01*
X453288Y493843D01*
X453375Y493550D01*
X453463Y493199D01*
X453580Y492847D01*
X453727Y492525D01*
X453903Y492203D01*
X453932Y492174D01*
X453990Y492086D01*
X454108Y491939D01*
X454283Y491763D01*
X454459Y491588D01*
X454723Y491383D01*
X455015Y491178D01*
X455337Y490973D01*
X455396Y490943D01*
X455513Y490914D01*
X455718Y490826D01*
X455982Y490738D01*
X456333Y490651D01*
X456743Y490592D01*
X457183Y490533D01*
X457680Y490504D01*
X457973D01*
X458295Y490533D01*
X458735Y490592D01*
X459233Y490680D01*
X459730Y490826D01*
X460287Y491002D01*
X460814Y491266D01*
X460843D01*
X460873Y491295D01*
X461048Y491412D01*
X461283Y491558D01*
X461576Y491793D01*
X461898Y492086D01*
X462220Y492408D01*
X462483Y492789D01*
X462718Y493228D01*
Y493257D01*
X462747Y493286D01*
X462776Y493345D01*
X462805Y493462D01*
X462835Y493609D01*
X462893Y493755D01*
X462923Y493960D01*
X462981Y494194D01*
X463040Y494458D01*
X463069Y494751D01*
X463128Y495073D01*
X463157Y495454D01*
X463186Y495834D01*
X463215Y496274D01*
X463245Y496742D01*
Y497269D01*
Y504562D01*
Y504591D01*
Y504620D01*
Y504708D01*
Y504825D01*
X463215Y505118D01*
X463186Y505440D01*
X463157Y505792D01*
X463098Y506143D01*
X462981Y506436D01*
X462864Y506641D01*
X462835Y506670D01*
X462776Y506729D01*
X462659Y506817D01*
X462483Y506934D01*
X462249Y507051D01*
X462015Y507139D01*
X461693Y507197D01*
X461341Y507227D01*
X460668D01*
Y507724D01*
X466993D01*
Y507227D01*
D02*
G37*
G36*
X477507Y496391D02*
X479909D01*
Y494516D01*
X477507D01*
Y489772D01*
X475311D01*
Y494516D01*
X467696D01*
Y496186D01*
X476043Y508076D01*
X477507D01*
Y496391D01*
D02*
G37*
G36*
X820259Y439605D02*
X820435D01*
X820669Y439575D01*
X821138Y439458D01*
X821665Y439282D01*
X822222Y439048D01*
X822778Y438697D01*
X823012Y438462D01*
X823247Y438228D01*
X823276Y438170D01*
X823393Y438052D01*
X823539Y437818D01*
X823686Y437555D01*
X823861Y437203D01*
X823979Y436823D01*
X824096Y436413D01*
X824125Y435973D01*
Y435944D01*
Y435885D01*
X824096Y435768D01*
Y435622D01*
X824037Y435446D01*
X824008Y435241D01*
X823920Y435007D01*
X823832Y434743D01*
X823686Y434450D01*
X823539Y434128D01*
X823334Y433777D01*
X823100Y433455D01*
X822807Y433074D01*
X822485Y432693D01*
X822104Y432312D01*
X821665Y431932D01*
X821694D01*
X821724Y431902D01*
X821812Y431873D01*
X821929Y431814D01*
X822222Y431668D01*
X822602Y431463D01*
X822983Y431199D01*
X823422Y430877D01*
X823803Y430526D01*
X824154Y430087D01*
X824184Y430028D01*
X824301Y429882D01*
X824418Y429618D01*
X824594Y429296D01*
X824740Y428857D01*
X824887Y428388D01*
X824974Y427832D01*
X825004Y427246D01*
Y427217D01*
Y427158D01*
Y427012D01*
X824974Y426865D01*
X824945Y426660D01*
X824916Y426426D01*
X824828Y425869D01*
X824652Y425254D01*
X824389Y424552D01*
X824213Y424229D01*
X824008Y423878D01*
X823774Y423526D01*
X823510Y423204D01*
X823481Y423175D01*
X823422Y423116D01*
X823305Y422999D01*
X823159Y422853D01*
X822954Y422706D01*
X822719Y422501D01*
X822427Y422326D01*
X822075Y422121D01*
X821694Y421916D01*
X821284Y421711D01*
X820816Y421506D01*
X820318Y421359D01*
X819791Y421213D01*
X819176Y421096D01*
X818561Y421037D01*
X817887Y421008D01*
X817594D01*
X817272Y421037D01*
X816891Y421067D01*
X816481Y421125D01*
X816071Y421184D01*
X815720Y421301D01*
X815427Y421447D01*
X815398Y421477D01*
X815339Y421535D01*
X815222Y421623D01*
X815105Y421740D01*
X814988Y421886D01*
X814871Y422033D01*
X814812Y422209D01*
X814783Y422414D01*
Y422443D01*
Y422472D01*
X814812Y422648D01*
X814900Y422853D01*
X815076Y423087D01*
X815105D01*
X815134Y423146D01*
X815281Y423234D01*
X815544Y423321D01*
X815837Y423380D01*
X816042D01*
X816247Y423321D01*
X816511Y423263D01*
X816569Y423234D01*
X816628D01*
X816716Y423175D01*
X816833Y423116D01*
X817009Y423029D01*
X817243Y422911D01*
X817506Y422765D01*
X817536Y422736D01*
X817653Y422706D01*
X817770Y422619D01*
X817946Y422560D01*
X818326Y422384D01*
X818502Y422326D01*
X818619Y422267D01*
X818649D01*
X818707Y422238D01*
X818795D01*
X818941Y422209D01*
X819264Y422179D01*
X819674Y422150D01*
X819732D01*
X819908Y422179D01*
X820142Y422209D01*
X820464Y422267D01*
X820845Y422414D01*
X821226Y422589D01*
X821636Y422824D01*
X822017Y423175D01*
X822075Y423234D01*
X822192Y423351D01*
X822339Y423585D01*
X822544Y423878D01*
X822719Y424259D01*
X822895Y424669D01*
X823012Y425137D01*
X823042Y425664D01*
Y425723D01*
Y425840D01*
X823012Y426045D01*
X822983Y426309D01*
X822924Y426631D01*
X822837Y426982D01*
X822719Y427334D01*
X822573Y427715D01*
X822544Y427744D01*
X822514Y427832D01*
X822427Y427978D01*
X822339Y428125D01*
X822104Y428505D01*
X821958Y428681D01*
X821812Y428827D01*
X821782Y428857D01*
X821694Y428915D01*
X821577Y429032D01*
X821402Y429150D01*
X821167Y429296D01*
X820904Y429472D01*
X820582Y429618D01*
X820230Y429794D01*
X820201Y429823D01*
X820054Y429852D01*
X819879Y429940D01*
X819615Y430028D01*
X819322Y430087D01*
X818971Y430174D01*
X818590Y430204D01*
X818209Y430233D01*
X817799D01*
Y430643D01*
X817858D01*
X817975Y430672D01*
X818180Y430702D01*
X818473Y430789D01*
X818766Y430877D01*
X819146Y430994D01*
X819527Y431170D01*
X819908Y431375D01*
X819967Y431404D01*
X820084Y431492D01*
X820259Y431609D01*
X820494Y431785D01*
X820757Y432020D01*
X820992Y432254D01*
X821226Y432547D01*
X821431Y432869D01*
X821460Y432898D01*
X821519Y433015D01*
X821577Y433191D01*
X821694Y433455D01*
X821782Y433718D01*
X821841Y434070D01*
X821899Y434421D01*
X821929Y434802D01*
Y434831D01*
Y434860D01*
Y435036D01*
X821870Y435270D01*
X821812Y435592D01*
X821724Y435944D01*
X821548Y436295D01*
X821343Y436647D01*
X821050Y436998D01*
X821021Y437028D01*
X820904Y437145D01*
X820728Y437262D01*
X820464Y437438D01*
X820142Y437584D01*
X819791Y437730D01*
X819381Y437818D01*
X818912Y437848D01*
X818707D01*
X818561Y437818D01*
X818385Y437789D01*
X818180Y437730D01*
X817711Y437584D01*
X817448Y437467D01*
X817184Y437291D01*
X816891Y437115D01*
X816599Y436910D01*
X816306Y436647D01*
X816042Y436354D01*
X815749Y436003D01*
X815486Y435622D01*
X815046Y435856D01*
Y435885D01*
X815076Y435944D01*
X815134Y436032D01*
X815193Y436149D01*
X815339Y436471D01*
X815574Y436881D01*
X815866Y437320D01*
X816189Y437789D01*
X816569Y438228D01*
X816979Y438638D01*
X817038Y438667D01*
X817184Y438785D01*
X817448Y438960D01*
X817799Y439136D01*
X818209Y439312D01*
X818707Y439487D01*
X819293Y439605D01*
X819908Y439634D01*
X820113D01*
X820259Y439605D01*
D02*
G37*
G36*
X813406Y438785D02*
X812528D01*
X812352Y438726D01*
X812118Y438667D01*
X811854Y438550D01*
X811591Y438404D01*
X811327Y438170D01*
X811093Y437877D01*
Y437848D01*
X811064Y437789D01*
X811005Y437672D01*
X810976Y437496D01*
X810917Y437233D01*
X810859Y436910D01*
X810829Y436500D01*
Y436003D01*
Y428710D01*
Y428681D01*
Y428593D01*
Y428447D01*
Y428271D01*
X810800Y428037D01*
Y427773D01*
X810771Y427187D01*
X810683Y426514D01*
X810595Y425811D01*
X810449Y425137D01*
X810273Y424522D01*
Y424493D01*
X810244Y424464D01*
X810214Y424376D01*
X810156Y424288D01*
X810009Y423995D01*
X809804Y423644D01*
X809541Y423234D01*
X809160Y422824D01*
X808721Y422384D01*
X808164Y421974D01*
X808135D01*
X808106Y421916D01*
X808018Y421886D01*
X807871Y421799D01*
X807725Y421740D01*
X807520Y421652D01*
X807315Y421535D01*
X807051Y421447D01*
X806758Y421359D01*
X806436Y421242D01*
X806085Y421154D01*
X805733Y421096D01*
X804884Y420979D01*
X803918Y420920D01*
X803625D01*
X803449Y420949D01*
X803186D01*
X802922Y420979D01*
X802600Y421008D01*
X802278Y421037D01*
X801545Y421154D01*
X800813Y421330D01*
X800081Y421594D01*
X799759Y421740D01*
X799466Y421916D01*
X799437D01*
X799408Y421974D01*
X799232Y422091D01*
X798939Y422326D01*
X798617Y422648D01*
X798265Y423029D01*
X797914Y423497D01*
X797592Y424054D01*
X797299Y424669D01*
Y424698D01*
X797270Y424727D01*
Y424786D01*
X797240Y424903D01*
X797211Y425049D01*
X797182Y425225D01*
X797123Y425430D01*
X797094Y425664D01*
X797065Y425957D01*
X797006Y426250D01*
X796977Y426631D01*
X796947Y427041D01*
X796918Y427480D01*
Y427978D01*
X796889Y428505D01*
Y429091D01*
Y436120D01*
Y436149D01*
Y436178D01*
Y436266D01*
Y436383D01*
X796860Y436676D01*
X796830Y436998D01*
X796772Y437350D01*
X796684Y437701D01*
X796567Y438023D01*
X796420Y438257D01*
X796391Y438287D01*
X796332Y438345D01*
X796215Y438433D01*
X796069Y438521D01*
X795864Y438609D01*
X795600Y438697D01*
X795307Y438755D01*
X794956Y438785D01*
X794283D01*
Y439282D01*
X802043D01*
Y438785D01*
X801165D01*
X800960Y438755D01*
X800725Y438697D01*
X800462Y438609D01*
X800198Y438492D01*
X799964Y438316D01*
X799759Y438082D01*
Y438052D01*
X799700Y437994D01*
X799671Y437848D01*
X799613Y437672D01*
X799554Y437408D01*
X799495Y437057D01*
X799466Y436647D01*
X799437Y436120D01*
Y428271D01*
Y428212D01*
Y428095D01*
Y427861D01*
X799466Y427597D01*
Y427246D01*
X799525Y426836D01*
X799554Y426367D01*
X799613Y425869D01*
Y425811D01*
X799642Y425635D01*
X799700Y425401D01*
X799788Y425108D01*
X799876Y424757D01*
X799993Y424405D01*
X800140Y424083D01*
X800315Y423761D01*
X800345Y423731D01*
X800403Y423644D01*
X800520Y423497D01*
X800696Y423321D01*
X800872Y423146D01*
X801135Y422941D01*
X801428Y422736D01*
X801750Y422531D01*
X801809Y422501D01*
X801926Y422472D01*
X802131Y422384D01*
X802395Y422296D01*
X802746Y422209D01*
X803156Y422150D01*
X803596Y422091D01*
X804093Y422062D01*
X804386D01*
X804708Y422091D01*
X805148Y422150D01*
X805646Y422238D01*
X806143Y422384D01*
X806700Y422560D01*
X807227Y422824D01*
X807256D01*
X807286Y422853D01*
X807461Y422970D01*
X807696Y423116D01*
X807988Y423351D01*
X808311Y423644D01*
X808633Y423966D01*
X808896Y424347D01*
X809131Y424786D01*
Y424815D01*
X809160Y424844D01*
X809189Y424903D01*
X809218Y425020D01*
X809248Y425167D01*
X809306Y425313D01*
X809336Y425518D01*
X809394Y425752D01*
X809453Y426016D01*
X809482Y426309D01*
X809541Y426631D01*
X809570Y427012D01*
X809599Y427392D01*
X809629Y427832D01*
X809658Y428300D01*
Y428827D01*
Y436120D01*
Y436149D01*
Y436178D01*
Y436266D01*
Y436383D01*
X809629Y436676D01*
X809599Y436998D01*
X809570Y437350D01*
X809511Y437701D01*
X809394Y437994D01*
X809277Y438199D01*
X809248Y438228D01*
X809189Y438287D01*
X809072Y438375D01*
X808896Y438492D01*
X808662Y438609D01*
X808428Y438697D01*
X808106Y438755D01*
X807754Y438785D01*
X807081D01*
Y439282D01*
X813406D01*
Y438785D01*
D02*
G37*
G36*
X638795Y524041D02*
Y513440D01*
X638326D01*
X638268Y513498D01*
X638151Y513645D01*
X637916Y513879D01*
X637624Y514201D01*
X637243Y514582D01*
X636833Y515021D01*
X636364Y515519D01*
X635837Y516017D01*
X635310Y516573D01*
X634753Y517101D01*
X633582Y518184D01*
X632996Y518711D01*
X632440Y519209D01*
X631884Y519649D01*
X631356Y520029D01*
X631327Y520059D01*
X631239Y520117D01*
X631093Y520205D01*
X630888Y520322D01*
X630653Y520469D01*
X630390Y520644D01*
X630068Y520820D01*
X629716Y520996D01*
X628984Y521347D01*
X628135Y521669D01*
X627725Y521786D01*
X627285Y521874D01*
X626846Y521933D01*
X626436Y521962D01*
X626407D01*
X626348D01*
X626260D01*
X626143Y521933D01*
X625821Y521904D01*
X625440Y521845D01*
X625001Y521699D01*
X624533Y521523D01*
X624064Y521259D01*
X623625Y520908D01*
X623566Y520849D01*
X623449Y520732D01*
X623273Y520498D01*
X623068Y520205D01*
X622863Y519824D01*
X622688Y519414D01*
X622570Y518916D01*
X622512Y518389D01*
Y518155D01*
X622541Y517921D01*
X622600Y517598D01*
X622717Y517218D01*
X622834Y516837D01*
X623039Y516427D01*
X623303Y516017D01*
X623332Y515959D01*
X623449Y515841D01*
X623625Y515666D01*
X623859Y515431D01*
X624181Y515168D01*
X624562Y514904D01*
X625001Y514670D01*
X625528Y514436D01*
Y513967D01*
X625499D01*
X625411Y513996D01*
X625294D01*
X625118Y514026D01*
X624913Y514084D01*
X624679Y514143D01*
X624152Y514289D01*
X623537Y514524D01*
X622922Y514816D01*
X622336Y515197D01*
X621809Y515666D01*
X621780Y515695D01*
X621750Y515724D01*
X621692Y515812D01*
X621604Y515900D01*
X621399Y516222D01*
X621135Y516603D01*
X620901Y517101D01*
X620696Y517686D01*
X620550Y518360D01*
X620491Y518711D01*
Y519297D01*
X620520Y519444D01*
Y519649D01*
X620550Y519854D01*
X620667Y520351D01*
X620843Y520937D01*
X621077Y521552D01*
X621428Y522138D01*
X621663Y522431D01*
X621897Y522724D01*
X621926Y522753D01*
X621955Y522782D01*
X622043Y522870D01*
X622131Y522958D01*
X622453Y523192D01*
X622834Y523485D01*
X623332Y523749D01*
X623888Y523983D01*
X624503Y524159D01*
X624855Y524188D01*
X625206Y524217D01*
X625235D01*
X625265D01*
X625440D01*
X625704Y524188D01*
X626055Y524129D01*
X626465Y524071D01*
X626934Y523954D01*
X627432Y523778D01*
X627930Y523573D01*
X627959D01*
X628018Y523514D01*
X628135Y523456D01*
X628311Y523397D01*
X628486Y523280D01*
X628721Y523134D01*
X629013Y522987D01*
X629306Y522812D01*
X629980Y522343D01*
X630741Y521786D01*
X631591Y521142D01*
X632469Y520351D01*
X632499Y520322D01*
X632616Y520205D01*
X632791Y520029D01*
X633026Y519824D01*
X633318Y519561D01*
X633641Y519268D01*
X634343Y518594D01*
X635076Y517891D01*
X635779Y517218D01*
X636101Y516925D01*
X636364Y516661D01*
X636599Y516427D01*
X636774Y516251D01*
Y521699D01*
X636745Y522343D01*
X636716Y522665D01*
X636686Y522899D01*
Y522929D01*
X636657Y522987D01*
X636628Y523104D01*
X636599Y523251D01*
X636452Y523602D01*
X636247Y523954D01*
X636218Y523983D01*
X636189Y524041D01*
X636101Y524129D01*
X636013Y524246D01*
X635720Y524510D01*
X635339Y524774D01*
Y525301D01*
X638795Y524041D01*
D02*
G37*
G36*
Y508285D02*
X630390Y502165D01*
Y501784D01*
X630419Y501462D01*
Y500525D01*
X630390Y500378D01*
X635632D01*
X635661D01*
X635691D01*
X635779D01*
X635896D01*
X636189Y500407D01*
X636540Y500437D01*
X636891Y500466D01*
X637243Y500525D01*
X637536Y500612D01*
X637653Y500671D01*
X637741Y500730D01*
X637770Y500759D01*
X637829Y500817D01*
X637916Y500935D01*
X638004Y501110D01*
X638121Y501315D01*
X638209Y501579D01*
X638268Y501901D01*
X638297Y502253D01*
Y502955D01*
X638795D01*
Y495253D01*
X638297D01*
Y496102D01*
X638268Y496307D01*
X638209Y496542D01*
X638121Y496805D01*
X637975Y497069D01*
X637799Y497332D01*
X637565Y497537D01*
X637536D01*
X637477Y497596D01*
X637360Y497625D01*
X637155Y497684D01*
X636921Y497743D01*
X636569Y497772D01*
X636159Y497830D01*
X635632D01*
X624006D01*
X623976D01*
X623918D01*
X623859D01*
X623742D01*
X623449Y497801D01*
X623127Y497772D01*
X622775Y497743D01*
X622424Y497684D01*
X622131Y497567D01*
X622014Y497508D01*
X621926Y497450D01*
X621897Y497420D01*
X621838Y497362D01*
X621750Y497245D01*
X621633Y497069D01*
X621516Y496835D01*
X621428Y496600D01*
X621370Y496278D01*
X621340Y495927D01*
Y495253D01*
X620843D01*
Y502487D01*
X620872Y502750D01*
X620901Y503365D01*
X620960Y504068D01*
X621018Y504742D01*
X621135Y505415D01*
X621194Y505708D01*
X621282Y505972D01*
Y506001D01*
X621311Y506031D01*
X621370Y506206D01*
X621458Y506470D01*
X621633Y506792D01*
X621838Y507143D01*
X622102Y507524D01*
X622424Y507905D01*
X622805Y508285D01*
X622863Y508315D01*
X623010Y508432D01*
X623244Y508578D01*
X623566Y508783D01*
X623947Y508959D01*
X624386Y509105D01*
X624913Y509223D01*
X625470Y509252D01*
X625499D01*
X625528D01*
X625645D01*
X625763Y509223D01*
X626055Y509193D01*
X626465Y509105D01*
X626905Y508988D01*
X627403Y508783D01*
X627901Y508520D01*
X628369Y508168D01*
X628428Y508110D01*
X628574Y507963D01*
X628779Y507700D01*
X629043Y507348D01*
X629306Y506880D01*
X629599Y506294D01*
X629863Y505591D01*
X630068Y504800D01*
X635222Y508520D01*
X635251Y508549D01*
X635310Y508578D01*
X635398Y508637D01*
X635515Y508725D01*
X635808Y508988D01*
X636159Y509281D01*
X636569Y509633D01*
X636950Y509984D01*
X637301Y510365D01*
X637565Y510716D01*
X637594Y510746D01*
X637653Y510892D01*
X637770Y511068D01*
X637887Y511361D01*
X638004Y511683D01*
X638121Y512093D01*
X638209Y512561D01*
X638297Y513088D01*
X638795D01*
Y508285D01*
D02*
G37*
G36*
X838795Y517438D02*
X838297D01*
Y517848D01*
X838268Y518111D01*
Y518404D01*
X838209Y518667D01*
X838180Y518902D01*
X838121Y519077D01*
Y519107D01*
X838092Y519136D01*
X837975Y519282D01*
X837799Y519458D01*
X837594Y519605D01*
X837565D01*
X837506Y519634D01*
X837389Y519663D01*
X837214Y519692D01*
X836950D01*
X836628Y519722D01*
X836189Y519751D01*
X835925D01*
X835632D01*
X825968D01*
X825938D01*
X825880D01*
X825792D01*
X825646D01*
X825323D01*
X824943Y519722D01*
X824503D01*
X824093Y519692D01*
X823742Y519663D01*
X823596Y519634D01*
X823478Y519605D01*
X823449D01*
X823420Y519575D01*
X823244Y519517D01*
X823010Y519429D01*
X822834Y519253D01*
X822805Y519224D01*
X822717Y519107D01*
X822658Y518931D01*
X822629Y518697D01*
Y518609D01*
X822658Y518492D01*
X822688Y518345D01*
X822717Y518140D01*
X822805Y517906D01*
X822893Y517643D01*
X823039Y517320D01*
X822629Y517145D01*
X820491Y521508D01*
Y521948D01*
X835632D01*
X835661D01*
X835691D01*
X835866D01*
X836130D01*
X836452Y521977D01*
X836774D01*
X837067Y522006D01*
X837331Y522035D01*
X837536Y522065D01*
X837594Y522094D01*
X837741Y522182D01*
X837916Y522328D01*
X838092Y522563D01*
Y522592D01*
X838121Y522650D01*
X838151Y522768D01*
X838180Y522914D01*
X838239Y523148D01*
X838268Y523441D01*
X838297Y523793D01*
Y524203D01*
X838795D01*
Y517438D01*
D02*
G37*
G36*
Y509384D02*
X830390Y503263D01*
Y502882D01*
X830419Y502560D01*
Y501623D01*
X830390Y501477D01*
X835632D01*
X835661D01*
X835691D01*
X835779D01*
X835896D01*
X836189Y501506D01*
X836540Y501535D01*
X836891Y501564D01*
X837243Y501623D01*
X837536Y501711D01*
X837653Y501769D01*
X837741Y501828D01*
X837770Y501857D01*
X837829Y501916D01*
X837916Y502033D01*
X838004Y502209D01*
X838121Y502414D01*
X838209Y502677D01*
X838268Y502999D01*
X838297Y503351D01*
Y504054D01*
X838795D01*
Y496351D01*
X838297D01*
Y497201D01*
X838268Y497406D01*
X838209Y497640D01*
X838121Y497904D01*
X837975Y498167D01*
X837799Y498431D01*
X837565Y498636D01*
X837536D01*
X837477Y498694D01*
X837360Y498724D01*
X837155Y498782D01*
X836921Y498841D01*
X836569Y498870D01*
X836159Y498929D01*
X835632D01*
X824006D01*
X823976D01*
X823918D01*
X823859D01*
X823742D01*
X823449Y498899D01*
X823127Y498870D01*
X822775Y498841D01*
X822424Y498782D01*
X822131Y498665D01*
X822014Y498606D01*
X821926Y498548D01*
X821897Y498519D01*
X821838Y498460D01*
X821750Y498343D01*
X821633Y498167D01*
X821516Y497933D01*
X821428Y497699D01*
X821370Y497376D01*
X821340Y497025D01*
Y496351D01*
X820843D01*
Y503585D01*
X820872Y503849D01*
X820901Y504464D01*
X820960Y505167D01*
X821018Y505840D01*
X821135Y506514D01*
X821194Y506807D01*
X821282Y507070D01*
Y507099D01*
X821311Y507129D01*
X821370Y507304D01*
X821458Y507568D01*
X821633Y507890D01*
X821838Y508242D01*
X822102Y508622D01*
X822424Y509003D01*
X822805Y509384D01*
X822863Y509413D01*
X823010Y509530D01*
X823244Y509677D01*
X823566Y509882D01*
X823947Y510057D01*
X824386Y510204D01*
X824913Y510321D01*
X825470Y510350D01*
X825499D01*
X825528D01*
X825646D01*
X825763Y510321D01*
X826056Y510292D01*
X826466Y510204D01*
X826905Y510087D01*
X827403Y509882D01*
X827901Y509618D01*
X828369Y509267D01*
X828428Y509208D01*
X828574Y509062D01*
X828779Y508798D01*
X829043Y508447D01*
X829306Y507978D01*
X829599Y507392D01*
X829863Y506689D01*
X830068Y505899D01*
X835222Y509618D01*
X835251Y509647D01*
X835310Y509677D01*
X835398Y509735D01*
X835515Y509823D01*
X835808Y510087D01*
X836159Y510379D01*
X836569Y510731D01*
X836950Y511082D01*
X837301Y511463D01*
X837565Y511814D01*
X837594Y511844D01*
X837653Y511990D01*
X837770Y512166D01*
X837887Y512459D01*
X838004Y512781D01*
X838121Y513191D01*
X838209Y513660D01*
X838297Y514187D01*
X838795D01*
Y509384D01*
D02*
G37*
G36*
X679058Y637942D02*
X678531D01*
Y637971D01*
Y638000D01*
X678472Y638176D01*
X678414Y638410D01*
X678355Y638703D01*
X678150Y639347D01*
X678004Y639640D01*
X677886Y639875D01*
Y639904D01*
X677828Y639963D01*
X677740Y640080D01*
X677652Y640197D01*
X677506Y640314D01*
X677330Y640460D01*
X677154Y640607D01*
X676920Y640724D01*
X676891D01*
X676832Y640753D01*
X676686Y640783D01*
X676481Y640841D01*
X676217Y640870D01*
X675895Y640900D01*
X675514Y640929D01*
X670155D01*
Y633812D01*
X674314D01*
X674577Y633842D01*
X674899Y633871D01*
X675251Y633930D01*
X675573Y633988D01*
X675866Y634105D01*
X676100Y634252D01*
X676129Y634281D01*
X676217Y634369D01*
X676334Y634515D01*
X676451Y634750D01*
X676598Y635042D01*
X676744Y635423D01*
X676832Y635892D01*
X676891Y636419D01*
X677389D01*
Y630181D01*
X676891D01*
Y630210D01*
Y630239D01*
X676861Y630386D01*
X676832Y630620D01*
X676774Y630884D01*
X676715Y631147D01*
X676656Y631440D01*
X676569Y631675D01*
X676510Y631850D01*
Y631880D01*
X676451Y631938D01*
X676334Y632114D01*
X676071Y632319D01*
X675924Y632436D01*
X675719Y632553D01*
X675690D01*
X675631Y632612D01*
X675485Y632641D01*
X675309Y632700D01*
X675075Y632758D01*
X674811Y632787D01*
X674460Y632846D01*
X670155D01*
Y626901D01*
Y626842D01*
Y626725D01*
Y626520D01*
Y626286D01*
X670184Y626022D01*
Y625788D01*
X670213Y625612D01*
X670243Y625466D01*
X670272Y625437D01*
X670331Y625320D01*
X670448Y625173D01*
X670623Y625056D01*
X670682Y625027D01*
X670741Y624997D01*
X670858D01*
X670975Y624968D01*
X671151Y624939D01*
X671356Y624909D01*
X675192D01*
X675514Y624939D01*
X675866Y624968D01*
X676246Y624997D01*
X676569Y625056D01*
X676861Y625114D01*
X676891D01*
X676979Y625144D01*
X677125Y625202D01*
X677301Y625290D01*
X677506Y625407D01*
X677711Y625554D01*
X677945Y625729D01*
X678179Y625934D01*
X678209Y625964D01*
X678326Y626081D01*
X678472Y626286D01*
X678706Y626579D01*
X678941Y626930D01*
X679234Y627369D01*
X679556Y627867D01*
X679878Y628453D01*
X680405D01*
X678853Y623943D01*
X665030D01*
Y624441D01*
X665762D01*
X665879Y624470D01*
X666055D01*
X666435Y624558D01*
X666875Y624734D01*
X666904D01*
X666933Y624763D01*
X667109Y624880D01*
X667285Y625085D01*
X667431Y625349D01*
Y625378D01*
X667460Y625437D01*
X667490Y625554D01*
X667519Y625729D01*
X667548Y625964D01*
X667578Y626286D01*
X667607Y626667D01*
Y627106D01*
Y638762D01*
Y638791D01*
Y638850D01*
Y638908D01*
Y639025D01*
X667578Y639318D01*
Y639670D01*
X667519Y640021D01*
X667460Y640343D01*
X667373Y640636D01*
X667314Y640753D01*
X667255Y640841D01*
X667226Y640870D01*
X667168Y640929D01*
X667050Y641017D01*
X666875Y641134D01*
X666640Y641222D01*
X666377Y641310D01*
X666025Y641368D01*
X665645Y641398D01*
X665030D01*
Y641895D01*
X678882D01*
X679058Y637942D01*
D02*
G37*
G36*
X707173Y642218D02*
X707378D01*
X707583Y642188D01*
X708081Y642071D01*
X708666Y641895D01*
X709281Y641661D01*
X709867Y641310D01*
X710160Y641075D01*
X710453Y640841D01*
X710482Y640812D01*
X710511Y640783D01*
X710599Y640695D01*
X710687Y640607D01*
X710921Y640285D01*
X711214Y639904D01*
X711478Y639406D01*
X711712Y638850D01*
X711888Y638235D01*
X711917Y637883D01*
X711946Y637532D01*
Y637503D01*
Y637473D01*
Y637298D01*
X711917Y637034D01*
X711858Y636683D01*
X711800Y636273D01*
X711683Y635804D01*
X711507Y635306D01*
X711302Y634808D01*
Y634779D01*
X711243Y634720D01*
X711185Y634603D01*
X711126Y634427D01*
X711009Y634252D01*
X710863Y634017D01*
X710716Y633725D01*
X710540Y633432D01*
X710072Y632758D01*
X709516Y631997D01*
X708871Y631147D01*
X708081Y630269D01*
X708051Y630239D01*
X707934Y630122D01*
X707758Y629947D01*
X707553Y629712D01*
X707290Y629420D01*
X706997Y629097D01*
X706323Y628395D01*
X705620Y627662D01*
X704947Y626959D01*
X704654Y626637D01*
X704390Y626374D01*
X704156Y626139D01*
X703980Y625964D01*
X709428D01*
X710072Y625993D01*
X710394Y626022D01*
X710628Y626052D01*
X710658D01*
X710716Y626081D01*
X710833Y626110D01*
X710980Y626139D01*
X711331Y626286D01*
X711683Y626491D01*
X711712Y626520D01*
X711771Y626549D01*
X711858Y626637D01*
X711976Y626725D01*
X712239Y627018D01*
X712503Y627399D01*
X713030D01*
X711771Y623943D01*
X701169D01*
Y624412D01*
X701227Y624470D01*
X701374Y624587D01*
X701608Y624822D01*
X701930Y625114D01*
X702311Y625495D01*
X702750Y625905D01*
X703248Y626374D01*
X703746Y626901D01*
X704303Y627428D01*
X704830Y627985D01*
X705913Y629156D01*
X706441Y629742D01*
X706938Y630298D01*
X707378Y630854D01*
X707758Y631382D01*
X707788Y631411D01*
X707846Y631499D01*
X707934Y631645D01*
X708051Y631850D01*
X708198Y632085D01*
X708373Y632348D01*
X708549Y632670D01*
X708725Y633022D01*
X709076Y633754D01*
X709398Y634603D01*
X709516Y635013D01*
X709603Y635452D01*
X709662Y635892D01*
X709691Y636302D01*
Y636331D01*
Y636390D01*
Y636478D01*
X709662Y636595D01*
X709633Y636917D01*
X709574Y637298D01*
X709428Y637737D01*
X709252Y638205D01*
X708988Y638674D01*
X708637Y639113D01*
X708578Y639172D01*
X708461Y639289D01*
X708227Y639465D01*
X707934Y639670D01*
X707553Y639875D01*
X707143Y640050D01*
X706646Y640168D01*
X706118Y640226D01*
X705884D01*
X705650Y640197D01*
X705328Y640138D01*
X704947Y640021D01*
X704566Y639904D01*
X704156Y639699D01*
X703746Y639435D01*
X703688Y639406D01*
X703570Y639289D01*
X703395Y639113D01*
X703160Y638879D01*
X702897Y638557D01*
X702633Y638176D01*
X702399Y637737D01*
X702165Y637210D01*
X701696D01*
Y637239D01*
X701725Y637327D01*
Y637444D01*
X701755Y637620D01*
X701813Y637825D01*
X701872Y638059D01*
X702018Y638586D01*
X702253Y639201D01*
X702545Y639816D01*
X702926Y640402D01*
X703395Y640929D01*
X703424Y640958D01*
X703453Y640988D01*
X703541Y641046D01*
X703629Y641134D01*
X703951Y641339D01*
X704332Y641603D01*
X704830Y641837D01*
X705415Y642042D01*
X706089Y642188D01*
X706441Y642247D01*
X707026D01*
X707173Y642218D01*
D02*
G37*
G36*
X689777Y641866D02*
X690157Y641837D01*
X690597Y641808D01*
X691036Y641778D01*
X692032Y641661D01*
X693057Y641515D01*
X694023Y641280D01*
X694462Y641134D01*
X694872Y640958D01*
X694902D01*
X694960Y640929D01*
X695077Y640870D01*
X695224Y640783D01*
X695400Y640695D01*
X695605Y640548D01*
X696102Y640226D01*
X696630Y639816D01*
X697186Y639289D01*
X697742Y638645D01*
X698270Y637912D01*
X698299Y637883D01*
X698328Y637825D01*
X698387Y637707D01*
X698475Y637532D01*
X698562Y637327D01*
X698680Y637093D01*
X698797Y636829D01*
X698914Y636507D01*
X699031Y636155D01*
X699148Y635775D01*
X699353Y634955D01*
X699500Y634017D01*
X699558Y633520D01*
Y632992D01*
Y632963D01*
Y632817D01*
Y632641D01*
X699529Y632377D01*
X699500Y632055D01*
X699441Y631675D01*
X699353Y631264D01*
X699265Y630796D01*
X699148Y630327D01*
X699002Y629829D01*
X698826Y629302D01*
X698592Y628775D01*
X698328Y628248D01*
X698035Y627721D01*
X697684Y627223D01*
X697274Y626725D01*
X697245Y626696D01*
X697157Y626608D01*
X697010Y626462D01*
X696805Y626286D01*
X696512Y626081D01*
X696190Y625847D01*
X695810Y625583D01*
X695341Y625349D01*
X694843Y625085D01*
X694257Y624822D01*
X693613Y624587D01*
X692910Y624382D01*
X692149Y624207D01*
X691329Y624060D01*
X690450Y623972D01*
X689484Y623943D01*
X681489D01*
Y624441D01*
X682338D01*
X682543Y624470D01*
X682777Y624529D01*
X683041Y624617D01*
X683304Y624734D01*
X683568Y624909D01*
X683773Y625144D01*
Y625173D01*
X683831Y625232D01*
X683861Y625378D01*
X683919Y625554D01*
X683978Y625817D01*
X684007Y626169D01*
X684066Y626579D01*
Y627106D01*
Y638732D01*
Y638762D01*
Y638791D01*
Y638879D01*
Y638996D01*
X684036Y639289D01*
X684007Y639611D01*
X683978Y639963D01*
X683919Y640314D01*
X683802Y640607D01*
X683685Y640812D01*
X683656Y640841D01*
X683597Y640900D01*
X683480Y640988D01*
X683304Y641105D01*
X683070Y641222D01*
X682836Y641310D01*
X682514Y641368D01*
X682162Y641398D01*
X681489D01*
Y641895D01*
X689454D01*
X689777Y641866D01*
D02*
G37*
G36*
X656625Y641398D02*
X656127D01*
X655834Y641368D01*
X655160Y641280D01*
X654867Y641193D01*
X654604Y641105D01*
X654575D01*
X654516Y641046D01*
X654399Y640988D01*
X654282Y640929D01*
X654018Y640724D01*
X653901Y640578D01*
X653813Y640431D01*
Y640402D01*
X653784Y640343D01*
X653755Y640226D01*
X653725Y640021D01*
X653667Y639757D01*
X653637Y639406D01*
X653608Y638967D01*
Y638440D01*
Y627135D01*
Y627077D01*
Y626959D01*
Y626754D01*
X653637Y626520D01*
X653696Y626022D01*
X653755Y625788D01*
X653813Y625612D01*
X653842Y625583D01*
X653930Y625466D01*
X654077Y625320D01*
X654282Y625202D01*
X654311D01*
X654370Y625173D01*
X654487D01*
X654662Y625144D01*
X654955Y625114D01*
X655307D01*
X655775Y625085D01*
X657972D01*
X658353Y625114D01*
X658792D01*
X659260Y625144D01*
X659729Y625202D01*
X660168Y625290D01*
X660520Y625378D01*
X660549Y625407D01*
X660666Y625437D01*
X660813Y625524D01*
X661018Y625612D01*
X661252Y625759D01*
X661515Y625934D01*
X661779Y626169D01*
X662043Y626432D01*
X662072Y626462D01*
X662160Y626579D01*
X662306Y626784D01*
X662482Y627047D01*
X662687Y627399D01*
X662921Y627809D01*
X663185Y628336D01*
X663448Y628922D01*
X663888Y628805D01*
X662365Y623943D01*
X648483D01*
Y624441D01*
X649332D01*
X649537Y624470D01*
X649772Y624529D01*
X650035Y624617D01*
X650299Y624734D01*
X650562Y624909D01*
X650767Y625144D01*
Y625173D01*
X650826Y625232D01*
X650855Y625378D01*
X650914Y625554D01*
X650972Y625817D01*
X651002Y626169D01*
X651060Y626579D01*
Y627106D01*
Y638732D01*
Y638762D01*
Y638791D01*
Y638879D01*
Y638996D01*
X651031Y639289D01*
X651002Y639611D01*
X650972Y639963D01*
X650914Y640314D01*
X650797Y640607D01*
X650679Y640812D01*
X650650Y640841D01*
X650592Y640900D01*
X650474Y640988D01*
X650299Y641105D01*
X650064Y641222D01*
X649830Y641310D01*
X649508Y641368D01*
X649157Y641398D01*
X648483D01*
Y641895D01*
X656625D01*
Y641398D01*
D02*
G37*
G36*
X781674Y637942D02*
X781147D01*
Y637971D01*
Y638000D01*
X781088Y638176D01*
X781030Y638410D01*
X780971Y638703D01*
X780766Y639347D01*
X780620Y639640D01*
X780502Y639875D01*
Y639904D01*
X780444Y639963D01*
X780356Y640080D01*
X780268Y640197D01*
X780122Y640314D01*
X779946Y640460D01*
X779770Y640607D01*
X779536Y640724D01*
X779507D01*
X779448Y640753D01*
X779302Y640783D01*
X779097Y640841D01*
X778833Y640870D01*
X778511Y640900D01*
X778130Y640929D01*
X772771D01*
Y633812D01*
X776929D01*
X777193Y633842D01*
X777515Y633871D01*
X777867Y633930D01*
X778189Y633988D01*
X778482Y634105D01*
X778716Y634252D01*
X778745Y634281D01*
X778833Y634369D01*
X778950Y634515D01*
X779067Y634750D01*
X779214Y635042D01*
X779360Y635423D01*
X779448Y635892D01*
X779507Y636419D01*
X780005D01*
Y630181D01*
X779507D01*
Y630210D01*
Y630239D01*
X779477Y630386D01*
X779448Y630620D01*
X779390Y630884D01*
X779331Y631147D01*
X779272Y631440D01*
X779184Y631675D01*
X779126Y631850D01*
Y631880D01*
X779067Y631938D01*
X778950Y632114D01*
X778687Y632319D01*
X778540Y632436D01*
X778335Y632553D01*
X778306D01*
X778247Y632612D01*
X778101Y632641D01*
X777925Y632700D01*
X777691Y632758D01*
X777427Y632787D01*
X777076Y632846D01*
X772771D01*
Y626901D01*
Y626842D01*
Y626725D01*
Y626520D01*
Y626286D01*
X772800Y626022D01*
Y625788D01*
X772829Y625612D01*
X772859Y625466D01*
X772888Y625437D01*
X772947Y625320D01*
X773064Y625173D01*
X773239Y625056D01*
X773298Y625027D01*
X773357Y624997D01*
X773474D01*
X773591Y624968D01*
X773767Y624939D01*
X773972Y624909D01*
X777808D01*
X778130Y624939D01*
X778482Y624968D01*
X778862Y624997D01*
X779184Y625056D01*
X779477Y625114D01*
X779507D01*
X779595Y625144D01*
X779741Y625202D01*
X779917Y625290D01*
X780122Y625407D01*
X780327Y625554D01*
X780561Y625729D01*
X780795Y625934D01*
X780825Y625964D01*
X780942Y626081D01*
X781088Y626286D01*
X781322Y626579D01*
X781557Y626930D01*
X781850Y627369D01*
X782172Y627867D01*
X782494Y628453D01*
X783021D01*
X781469Y623943D01*
X767646D01*
Y624441D01*
X768378D01*
X768495Y624470D01*
X768671D01*
X769052Y624558D01*
X769491Y624734D01*
X769520D01*
X769549Y624763D01*
X769725Y624880D01*
X769901Y625085D01*
X770047Y625349D01*
Y625378D01*
X770077Y625437D01*
X770106Y625554D01*
X770135Y625729D01*
X770164Y625964D01*
X770194Y626286D01*
X770223Y626667D01*
Y627106D01*
Y638762D01*
Y638791D01*
Y638850D01*
Y638908D01*
Y639025D01*
X770194Y639318D01*
Y639670D01*
X770135Y640021D01*
X770077Y640343D01*
X769989Y640636D01*
X769930Y640753D01*
X769872Y640841D01*
X769842Y640870D01*
X769784Y640929D01*
X769667Y641017D01*
X769491Y641134D01*
X769257Y641222D01*
X768993Y641310D01*
X768642Y641368D01*
X768261Y641398D01*
X767646D01*
Y641895D01*
X781498D01*
X781674Y637942D01*
D02*
G37*
G36*
X811194Y627106D02*
Y627077D01*
Y627047D01*
Y626872D01*
Y626608D01*
X811224Y626286D01*
Y625964D01*
X811253Y625671D01*
X811282Y625407D01*
X811311Y625202D01*
X811341Y625144D01*
X811429Y624997D01*
X811575Y624822D01*
X811809Y624646D01*
X811839D01*
X811897Y624617D01*
X812014Y624587D01*
X812161Y624558D01*
X812395Y624499D01*
X812688Y624470D01*
X813039Y624441D01*
X813449D01*
Y623943D01*
X806684D01*
Y624441D01*
X807094D01*
X807358Y624470D01*
X807651D01*
X807914Y624529D01*
X808149Y624558D01*
X808324Y624617D01*
X808354D01*
X808383Y624646D01*
X808529Y624763D01*
X808705Y624939D01*
X808851Y625144D01*
Y625173D01*
X808881Y625232D01*
X808910Y625349D01*
X808939Y625524D01*
Y625788D01*
X808969Y626110D01*
X808998Y626549D01*
Y626813D01*
Y627106D01*
Y636770D01*
Y636800D01*
Y636858D01*
Y636946D01*
Y637093D01*
Y637415D01*
X808969Y637795D01*
Y638235D01*
X808939Y638645D01*
X808910Y638996D01*
X808881Y639142D01*
X808851Y639260D01*
Y639289D01*
X808822Y639318D01*
X808764Y639494D01*
X808676Y639728D01*
X808500Y639904D01*
X808471Y639933D01*
X808354Y640021D01*
X808178Y640080D01*
X807944Y640109D01*
X807856D01*
X807739Y640080D01*
X807592Y640050D01*
X807387Y640021D01*
X807153Y639933D01*
X806889Y639845D01*
X806567Y639699D01*
X806391Y640109D01*
X810755Y642247D01*
X811194D01*
Y627106D01*
D02*
G37*
G36*
X792393Y641866D02*
X792773Y641837D01*
X793213Y641808D01*
X793652Y641778D01*
X794648Y641661D01*
X795673Y641515D01*
X796639Y641280D01*
X797078Y641134D01*
X797488Y640958D01*
X797518D01*
X797576Y640929D01*
X797693Y640870D01*
X797840Y640783D01*
X798016Y640695D01*
X798221Y640548D01*
X798718Y640226D01*
X799246Y639816D01*
X799802Y639289D01*
X800359Y638645D01*
X800886Y637912D01*
X800915Y637883D01*
X800944Y637825D01*
X801003Y637707D01*
X801091Y637532D01*
X801179Y637327D01*
X801296Y637093D01*
X801413Y636829D01*
X801530Y636507D01*
X801647Y636155D01*
X801764Y635775D01*
X801969Y634955D01*
X802116Y634017D01*
X802174Y633520D01*
Y632992D01*
Y632963D01*
Y632817D01*
Y632641D01*
X802145Y632377D01*
X802116Y632055D01*
X802057Y631675D01*
X801969Y631264D01*
X801881Y630796D01*
X801764Y630327D01*
X801618Y629829D01*
X801442Y629302D01*
X801208Y628775D01*
X800944Y628248D01*
X800651Y627721D01*
X800300Y627223D01*
X799890Y626725D01*
X799861Y626696D01*
X799773Y626608D01*
X799626Y626462D01*
X799421Y626286D01*
X799128Y626081D01*
X798806Y625847D01*
X798426Y625583D01*
X797957Y625349D01*
X797459Y625085D01*
X796873Y624822D01*
X796229Y624587D01*
X795526Y624382D01*
X794765Y624207D01*
X793945Y624060D01*
X793066Y623972D01*
X792100Y623943D01*
X784105D01*
Y624441D01*
X784954D01*
X785159Y624470D01*
X785393Y624529D01*
X785657Y624617D01*
X785920Y624734D01*
X786184Y624909D01*
X786389Y625144D01*
Y625173D01*
X786448Y625232D01*
X786477Y625378D01*
X786535Y625554D01*
X786594Y625817D01*
X786623Y626169D01*
X786682Y626579D01*
Y627106D01*
Y638732D01*
Y638762D01*
Y638791D01*
Y638879D01*
Y638996D01*
X786653Y639289D01*
X786623Y639611D01*
X786594Y639963D01*
X786535Y640314D01*
X786418Y640607D01*
X786301Y640812D01*
X786272Y640841D01*
X786213Y640900D01*
X786096Y640988D01*
X785920Y641105D01*
X785686Y641222D01*
X785452Y641310D01*
X785130Y641368D01*
X784778Y641398D01*
X784105D01*
Y641895D01*
X792070D01*
X792393Y641866D01*
D02*
G37*
G36*
X759241Y641398D02*
X758743D01*
X758450Y641368D01*
X757776Y641280D01*
X757484Y641193D01*
X757220Y641105D01*
X757191D01*
X757132Y641046D01*
X757015Y640988D01*
X756898Y640929D01*
X756634Y640724D01*
X756517Y640578D01*
X756429Y640431D01*
Y640402D01*
X756400Y640343D01*
X756371Y640226D01*
X756341Y640021D01*
X756283Y639757D01*
X756254Y639406D01*
X756224Y638967D01*
Y638440D01*
Y627135D01*
Y627077D01*
Y626959D01*
Y626754D01*
X756254Y626520D01*
X756312Y626022D01*
X756371Y625788D01*
X756429Y625612D01*
X756459Y625583D01*
X756546Y625466D01*
X756693Y625320D01*
X756898Y625202D01*
X756927D01*
X756986Y625173D01*
X757103D01*
X757279Y625144D01*
X757571Y625114D01*
X757923D01*
X758391Y625085D01*
X760588D01*
X760968Y625114D01*
X761408D01*
X761876Y625144D01*
X762345Y625202D01*
X762784Y625290D01*
X763136Y625378D01*
X763165Y625407D01*
X763282Y625437D01*
X763429Y625524D01*
X763634Y625612D01*
X763868Y625759D01*
X764131Y625934D01*
X764395Y626169D01*
X764659Y626432D01*
X764688Y626462D01*
X764776Y626579D01*
X764922Y626784D01*
X765098Y627047D01*
X765303Y627399D01*
X765537Y627809D01*
X765801Y628336D01*
X766064Y628922D01*
X766504Y628805D01*
X764981Y623943D01*
X751099D01*
Y624441D01*
X751948D01*
X752153Y624470D01*
X752388Y624529D01*
X752651Y624617D01*
X752915Y624734D01*
X753178Y624909D01*
X753383Y625144D01*
Y625173D01*
X753442Y625232D01*
X753471Y625378D01*
X753530Y625554D01*
X753588Y625817D01*
X753618Y626169D01*
X753676Y626579D01*
Y627106D01*
Y638732D01*
Y638762D01*
Y638791D01*
Y638879D01*
Y638996D01*
X753647Y639289D01*
X753618Y639611D01*
X753588Y639963D01*
X753530Y640314D01*
X753413Y640607D01*
X753296Y640812D01*
X753266Y640841D01*
X753208Y640900D01*
X753091Y640988D01*
X752915Y641105D01*
X752681Y641222D01*
X752446Y641310D01*
X752124Y641368D01*
X751773Y641398D01*
X751099D01*
Y641895D01*
X759241D01*
Y641398D01*
D02*
G37*
%LPC*%
G36*
X197949Y187398D02*
X197686D01*
X197481Y187369D01*
X197247Y187339D01*
X196954Y187281D01*
X196632Y187222D01*
X196251Y187134D01*
Y179696D01*
X196280D01*
X196368Y179666D01*
X196485Y179637D01*
X196661Y179608D01*
X197042Y179549D01*
X197452Y179491D01*
X197539D01*
X197657Y179461D01*
X197774D01*
X198096Y179432D01*
X198447D01*
X198623Y179461D01*
X198887Y179491D01*
X199209Y179578D01*
X199560Y179696D01*
X199970Y179871D01*
X200380Y180135D01*
X200761Y180486D01*
X200790Y180545D01*
X200907Y180691D01*
X201083Y180896D01*
X201259Y181218D01*
X201434Y181628D01*
X201610Y182097D01*
X201727Y182624D01*
X201757Y183239D01*
Y183298D01*
Y183444D01*
X201727Y183649D01*
X201698Y183942D01*
X201639Y184293D01*
X201552Y184645D01*
X201434Y185026D01*
X201259Y185406D01*
X201229Y185465D01*
X201171Y185582D01*
X201054Y185758D01*
X200907Y185963D01*
X200732Y186197D01*
X200497Y186461D01*
X200234Y186695D01*
X199912Y186900D01*
X199882Y186929D01*
X199765Y186988D01*
X199590Y187046D01*
X199355Y187164D01*
X199062Y187251D01*
X198740Y187310D01*
X198359Y187369D01*
X197949Y187398D01*
D02*
G37*
G36*
X402016Y182068D02*
X401840D01*
X401635Y182009D01*
X401371Y181951D01*
X401049Y181863D01*
X400727Y181687D01*
X400405Y181482D01*
X400053Y181189D01*
X400024Y181160D01*
X399907Y181043D01*
X399761Y180838D01*
X399614Y180574D01*
X399439Y180252D01*
X399263Y179842D01*
X399146Y179373D01*
X399058Y178846D01*
X404681D01*
Y178905D01*
X404651Y179022D01*
Y179227D01*
X404622Y179491D01*
X404534Y180018D01*
X404446Y180252D01*
X404388Y180457D01*
Y180486D01*
X404329Y180574D01*
X404241Y180721D01*
X404154Y180896D01*
X404007Y181072D01*
X403831Y181277D01*
X403626Y181453D01*
X403392Y181628D01*
X403363Y181658D01*
X403275Y181687D01*
X403158Y181775D01*
X402982Y181863D01*
X402777Y181921D01*
X402543Y182009D01*
X402279Y182038D01*
X402016Y182068D01*
D02*
G37*
G36*
X374194Y182156D02*
X373813D01*
X373667Y182126D01*
X373491Y182097D01*
X373286Y182038D01*
X373052Y181980D01*
X372788Y181863D01*
X372524Y181716D01*
X372495Y181687D01*
X372407Y181628D01*
X372290Y181541D01*
X372114Y181394D01*
X371939Y181189D01*
X371734Y180926D01*
X371558Y180633D01*
X371382Y180252D01*
X371353Y180194D01*
X371324Y180076D01*
X371265Y179842D01*
X371177Y179549D01*
X371090Y179139D01*
X371031Y178700D01*
X371002Y178173D01*
X370972Y177587D01*
Y177558D01*
Y177470D01*
Y177323D01*
X371002Y177148D01*
Y176913D01*
X371031Y176650D01*
X371060Y176357D01*
X371090Y176005D01*
X371236Y175303D01*
X371412Y174541D01*
X371646Y173750D01*
X371997Y173018D01*
Y172989D01*
X372056Y172931D01*
X372114Y172843D01*
X372202Y172726D01*
X372437Y172403D01*
X372729Y172081D01*
X373139Y171730D01*
X373608Y171408D01*
X373872Y171290D01*
X374165Y171203D01*
X374457Y171144D01*
X374780Y171115D01*
X374838D01*
X374985Y171144D01*
X375219Y171173D01*
X375541Y171261D01*
X375863Y171378D01*
X376214Y171554D01*
X376566Y171818D01*
X376888Y172169D01*
X376917Y172228D01*
X377035Y172374D01*
X377152Y172638D01*
X377240Y172813D01*
X377327Y173018D01*
X377386Y173253D01*
X377474Y173516D01*
X377532Y173809D01*
X377620Y174160D01*
X377650Y174512D01*
X377708Y174893D01*
X377737Y175332D01*
Y175801D01*
Y175830D01*
Y175947D01*
Y176123D01*
X377708Y176328D01*
Y176591D01*
X377679Y176913D01*
X377620Y177265D01*
X377562Y177646D01*
X377386Y178466D01*
X377152Y179286D01*
X376800Y180135D01*
X376566Y180516D01*
X376332Y180867D01*
Y180896D01*
X376302Y180926D01*
X376156Y181072D01*
X375951Y181277D01*
X375687Y181511D01*
X375336Y181746D01*
X374926Y181951D01*
X374457Y182097D01*
X374194Y182156D01*
D02*
G37*
G36*
X330528D02*
X330147D01*
X330001Y182126D01*
X329825Y182097D01*
X329620Y182038D01*
X329386Y181980D01*
X329122Y181863D01*
X328859Y181716D01*
X328829Y181687D01*
X328742Y181628D01*
X328624Y181541D01*
X328449Y181394D01*
X328273Y181189D01*
X328068Y180926D01*
X327892Y180633D01*
X327717Y180252D01*
X327687Y180194D01*
X327658Y180076D01*
X327599Y179842D01*
X327512Y179549D01*
X327424Y179139D01*
X327365Y178700D01*
X327336Y178173D01*
X327307Y177587D01*
Y177558D01*
Y177470D01*
Y177323D01*
X327336Y177148D01*
Y176913D01*
X327365Y176650D01*
X327394Y176357D01*
X327424Y176005D01*
X327570Y175303D01*
X327746Y174541D01*
X327980Y173750D01*
X328332Y173018D01*
Y172989D01*
X328390Y172931D01*
X328449Y172843D01*
X328537Y172726D01*
X328771Y172403D01*
X329064Y172081D01*
X329474Y171730D01*
X329942Y171408D01*
X330206Y171290D01*
X330499Y171203D01*
X330792Y171144D01*
X331114Y171115D01*
X331172D01*
X331319Y171144D01*
X331553Y171173D01*
X331875Y171261D01*
X332197Y171378D01*
X332549Y171554D01*
X332900Y171818D01*
X333222Y172169D01*
X333252Y172228D01*
X333369Y172374D01*
X333486Y172638D01*
X333574Y172813D01*
X333662Y173018D01*
X333720Y173253D01*
X333808Y173516D01*
X333867Y173809D01*
X333955Y174160D01*
X333984Y174512D01*
X334042Y174893D01*
X334072Y175332D01*
Y175800D01*
Y175830D01*
Y175947D01*
Y176123D01*
X334042Y176328D01*
Y176591D01*
X334013Y176913D01*
X333955Y177265D01*
X333896Y177646D01*
X333720Y178466D01*
X333486Y179286D01*
X333134Y180135D01*
X332900Y180516D01*
X332666Y180867D01*
Y180896D01*
X332637Y180926D01*
X332490Y181072D01*
X332285Y181277D01*
X332022Y181511D01*
X331670Y181746D01*
X331260Y181951D01*
X330792Y182097D01*
X330528Y182156D01*
D02*
G37*
G36*
X298899D02*
X298518D01*
X298372Y182126D01*
X298196Y182097D01*
X297991Y182038D01*
X297757Y181980D01*
X297493Y181863D01*
X297230Y181716D01*
X297200Y181687D01*
X297113Y181628D01*
X296995Y181541D01*
X296820Y181394D01*
X296644Y181189D01*
X296439Y180926D01*
X296263Y180633D01*
X296087Y180252D01*
X296058Y180194D01*
X296029Y180076D01*
X295970Y179842D01*
X295882Y179549D01*
X295795Y179139D01*
X295736Y178700D01*
X295707Y178173D01*
X295678Y177587D01*
Y177558D01*
Y177470D01*
Y177323D01*
X295707Y177148D01*
Y176913D01*
X295736Y176650D01*
X295765Y176357D01*
X295795Y176005D01*
X295941Y175303D01*
X296117Y174541D01*
X296351Y173750D01*
X296702Y173018D01*
Y172989D01*
X296761Y172931D01*
X296820Y172843D01*
X296908Y172726D01*
X297142Y172403D01*
X297435Y172081D01*
X297845Y171730D01*
X298313Y171408D01*
X298577Y171290D01*
X298870Y171203D01*
X299163Y171144D01*
X299485Y171115D01*
X299543D01*
X299690Y171144D01*
X299924Y171173D01*
X300246Y171261D01*
X300568Y171378D01*
X300920Y171554D01*
X301271Y171818D01*
X301593Y172169D01*
X301623Y172228D01*
X301740Y172374D01*
X301857Y172638D01*
X301945Y172813D01*
X302033Y173018D01*
X302091Y173253D01*
X302179Y173516D01*
X302238Y173809D01*
X302325Y174160D01*
X302355Y174512D01*
X302413Y174893D01*
X302443Y175332D01*
Y175800D01*
Y175830D01*
Y175947D01*
Y176123D01*
X302413Y176328D01*
Y176591D01*
X302384Y176913D01*
X302325Y177265D01*
X302267Y177646D01*
X302091Y178466D01*
X301857Y179286D01*
X301505Y180135D01*
X301271Y180516D01*
X301037Y180867D01*
Y180896D01*
X301008Y180926D01*
X300861Y181072D01*
X300656Y181277D01*
X300393Y181511D01*
X300041Y181746D01*
X299631Y181951D01*
X299163Y182097D01*
X298899Y182156D01*
D02*
G37*
G36*
X475311Y505294D02*
X468985Y496391D01*
X475311D01*
Y505294D01*
D02*
G37*
G36*
X625968Y506236D02*
X625645D01*
X625616D01*
X625558D01*
X625470D01*
X625353Y506206D01*
X625060Y506177D01*
X624650Y506118D01*
X624240Y505972D01*
X623771Y505796D01*
X623303Y505533D01*
X622893Y505181D01*
X622834Y505123D01*
X622717Y505005D01*
X622570Y504771D01*
X622365Y504449D01*
X622160Y504039D01*
X622014Y503570D01*
X621897Y503043D01*
X621838Y502428D01*
Y502106D01*
X621868Y501901D01*
X621897Y501608D01*
X621955Y501257D01*
X622014Y500847D01*
X622102Y500378D01*
X629570D01*
Y500642D01*
X629599Y500788D01*
Y501345D01*
X629570Y501520D01*
Y501725D01*
X629541Y501989D01*
X629453Y502545D01*
X629336Y503160D01*
X629131Y503775D01*
X628867Y504390D01*
X628486Y504918D01*
Y504947D01*
X628428Y504976D01*
X628281Y505123D01*
X628047Y505328D01*
X627725Y505591D01*
X627315Y505826D01*
X626817Y506031D01*
X626260Y506177D01*
X625968Y506236D01*
D02*
G37*
G36*
X825968Y507334D02*
X825646D01*
X825616D01*
X825558D01*
X825470D01*
X825353Y507304D01*
X825060Y507275D01*
X824650Y507217D01*
X824240Y507070D01*
X823771Y506894D01*
X823303Y506631D01*
X822893Y506279D01*
X822834Y506221D01*
X822717Y506104D01*
X822570Y505869D01*
X822365Y505547D01*
X822160Y505137D01*
X822014Y504669D01*
X821897Y504142D01*
X821838Y503526D01*
Y503204D01*
X821868Y502999D01*
X821897Y502706D01*
X821955Y502355D01*
X822014Y501945D01*
X822102Y501477D01*
X829570D01*
Y501740D01*
X829599Y501886D01*
Y502443D01*
X829570Y502619D01*
Y502824D01*
X829541Y503087D01*
X829453Y503644D01*
X829336Y504259D01*
X829131Y504874D01*
X828867Y505489D01*
X828486Y506016D01*
Y506045D01*
X828428Y506074D01*
X828281Y506221D01*
X828047Y506426D01*
X827725Y506689D01*
X827315Y506924D01*
X826817Y507129D01*
X826261Y507275D01*
X825968Y507334D01*
D02*
G37*
G36*
X689308Y640900D02*
X689103D01*
X688839Y640870D01*
X688517Y640841D01*
X688137Y640812D01*
X687668Y640724D01*
X687170Y640636D01*
X686614Y640490D01*
Y625232D01*
X686702D01*
X686789Y625202D01*
X686907Y625173D01*
X687199Y625114D01*
X687580Y625056D01*
X688049Y624997D01*
X688517Y624939D01*
X688986Y624909D01*
X689425Y624880D01*
X689572D01*
X689718Y624909D01*
X689923D01*
X690187Y624939D01*
X690509Y624997D01*
X690831Y625056D01*
X691212Y625144D01*
X691592Y625261D01*
X692002Y625407D01*
X692412Y625583D01*
X692852Y625788D01*
X693262Y626022D01*
X693701Y626315D01*
X694111Y626637D01*
X694492Y627018D01*
X694521Y627047D01*
X694580Y627106D01*
X694667Y627252D01*
X694814Y627428D01*
X694960Y627633D01*
X695136Y627897D01*
X695341Y628219D01*
X695517Y628570D01*
X695722Y628951D01*
X695897Y629390D01*
X696073Y629888D01*
X696220Y630415D01*
X696366Y630972D01*
X696454Y631557D01*
X696512Y632202D01*
X696542Y632875D01*
Y632905D01*
Y633051D01*
Y633227D01*
X696512Y633490D01*
X696483Y633812D01*
X696425Y634164D01*
X696366Y634574D01*
X696278Y635013D01*
X696190Y635452D01*
X696044Y635950D01*
X695868Y636419D01*
X695692Y636917D01*
X695429Y637385D01*
X695165Y637854D01*
X694843Y638322D01*
X694492Y638732D01*
X694462Y638762D01*
X694404Y638820D01*
X694287Y638937D01*
X694140Y639084D01*
X693935Y639230D01*
X693701Y639406D01*
X693408Y639611D01*
X693086Y639816D01*
X692735Y640021D01*
X692325Y640226D01*
X691915Y640402D01*
X691446Y640548D01*
X690948Y640695D01*
X690450Y640812D01*
X689894Y640870D01*
X689308Y640900D01*
D02*
G37*
G36*
X791924D02*
X791719D01*
X791456Y640870D01*
X791133Y640841D01*
X790753Y640812D01*
X790284Y640724D01*
X789786Y640636D01*
X789230Y640490D01*
Y625232D01*
X789318D01*
X789405Y625202D01*
X789523Y625173D01*
X789815Y625114D01*
X790196Y625056D01*
X790665Y624997D01*
X791133Y624939D01*
X791602Y624909D01*
X792041Y624880D01*
X792188D01*
X792334Y624909D01*
X792539D01*
X792803Y624939D01*
X793125Y624997D01*
X793447Y625056D01*
X793828Y625144D01*
X794208Y625261D01*
X794618Y625407D01*
X795028Y625583D01*
X795468Y625788D01*
X795878Y626022D01*
X796317Y626315D01*
X796727Y626637D01*
X797108Y627018D01*
X797137Y627047D01*
X797196Y627106D01*
X797283Y627252D01*
X797430Y627428D01*
X797576Y627633D01*
X797752Y627897D01*
X797957Y628219D01*
X798133Y628570D01*
X798338Y628951D01*
X798513Y629390D01*
X798689Y629888D01*
X798836Y630415D01*
X798982Y630972D01*
X799070Y631557D01*
X799128Y632202D01*
X799158Y632875D01*
Y632905D01*
Y633051D01*
Y633227D01*
X799128Y633490D01*
X799099Y633812D01*
X799041Y634164D01*
X798982Y634574D01*
X798894Y635013D01*
X798806Y635452D01*
X798660Y635950D01*
X798484Y636419D01*
X798308Y636917D01*
X798045Y637385D01*
X797781Y637854D01*
X797459Y638322D01*
X797108Y638732D01*
X797078Y638762D01*
X797020Y638820D01*
X796903Y638937D01*
X796756Y639084D01*
X796551Y639230D01*
X796317Y639406D01*
X796024Y639611D01*
X795702Y639816D01*
X795350Y640021D01*
X794940Y640226D01*
X794530Y640402D01*
X794062Y640548D01*
X793564Y640695D01*
X793066Y640812D01*
X792510Y640870D01*
X791924Y640900D01*
D02*
G37*
%LPD*%
D10*
X27843Y178077D02*
G03*
X27843Y208037I0J14980D01*
G01*
X704443Y590277D02*
G03*
X704443Y590277I-27500J0D01*
G01*
X807143D02*
G03*
X807143Y590277I-27500J0D01*
G01*
X794643Y480277D02*
G03*
X668643Y480277I-63000J0D01*
G01*
D02*
G03*
X794643Y480277I63000J0D01*
G01*
X27843Y345337D02*
X539523Y345337D01*
X27843Y20217D02*
X539523Y20217D01*
Y345337D01*
X27843Y20217D02*
Y178077D01*
Y208037D02*
Y345337D01*
X485927Y373729D02*
Y507333D01*
X538759D01*
Y373729D02*
Y507333D01*
X485927Y373729D02*
X538759D01*
X573763Y9769D02*
X647677D01*
Y67173D01*
X573763D02*
X647677D01*
X573763Y9769D02*
Y67173D01*
X685343Y17323D02*
Y42469D01*
X837743D01*
Y17323D02*
Y42469D01*
X685343Y17323D02*
X837743D01*
X870393Y480277D02*
Y508277D01*
X848893Y480277D02*
X870393D01*
X848893D02*
Y540277D01*
X870393D01*
Y508277D02*
Y540277D01*
X859643D02*
Y548277D01*
Y472277D02*
Y480277D01*
X599643Y472277D02*
Y480277D01*
Y540277D02*
Y548277D01*
X610393Y508277D02*
Y540277D01*
X588893D02*
X610393D01*
X588893Y480277D02*
Y540277D01*
Y480277D02*
X610393D01*
Y508277D01*
M02*
