G04*
G04 #@! TF.GenerationSoftware,Altium Limited,Altium Designer,21.4.1 (30)*
G04*
G04 Layer_Physical_Order=2*
G04 Layer_Color=16711680*
%FSLAX44Y44*%
%MOMM*%
G71*
G04*
G04 #@! TF.SameCoordinates,02D7BDB2-D434-4152-92C4-171F5B89420C*
G04*
G04*
G04 #@! TF.FilePolarity,Positive*
G04*
G01*
G75*
%ADD22C,1.0000*%
%ADD24C,0.3000*%
%ADD25C,1.5240*%
%ADD26C,1.6000*%
%ADD27R,1.6000X1.6000*%
%ADD28C,1.6500*%
%ADD29R,1.6500X1.6500*%
%ADD30R,1.6000X1.6000*%
%ADD31C,2.0000*%
%ADD32C,1.7000*%
%ADD33C,3.2000*%
%ADD34C,0.6000*%
G36*
X895943Y10277D02*
X652938D01*
X652685Y11547D01*
X653230Y11773D01*
X654692Y12895D01*
X680014Y38217D01*
X706018D01*
X713443Y30792D01*
Y28960D01*
X714125Y26417D01*
X715441Y24137D01*
X717303Y22275D01*
X719583Y20958D01*
X722126Y20277D01*
X724760D01*
X727303Y20958D01*
X729583Y22275D01*
X731445Y24137D01*
X732762Y26417D01*
X733443Y28960D01*
Y31593D01*
X732762Y34137D01*
X731445Y36417D01*
X729583Y38279D01*
X727303Y39595D01*
X724760Y40277D01*
X723928D01*
X720104Y44101D01*
Y45277D01*
Y98419D01*
X719863Y100246D01*
X719158Y101949D01*
X718036Y103412D01*
X693897Y127550D01*
X692435Y128672D01*
X690732Y129378D01*
X688904Y129618D01*
X661284D01*
X661120Y129597D01*
X652044D01*
X650217Y129356D01*
X648514Y128651D01*
X647052Y127529D01*
X645930Y126066D01*
X645225Y124364D01*
X644984Y122536D01*
X645225Y120709D01*
X645930Y119006D01*
X647052Y117544D01*
X648514Y116422D01*
X650217Y115716D01*
X652044Y115476D01*
X661263D01*
X661427Y115497D01*
X685980D01*
X705983Y95495D01*
Y52337D01*
X677089D01*
X675262Y52097D01*
X673559Y51392D01*
X672097Y50269D01*
X646775Y24947D01*
X609413D01*
Y43387D01*
X606223D01*
Y56387D01*
X605983Y58214D01*
X605278Y59917D01*
X604156Y61379D01*
X591846Y73689D01*
X590383Y74812D01*
X588680Y75517D01*
X586853Y75757D01*
X276568D01*
X186723Y165602D01*
Y216017D01*
X186483Y217844D01*
X185778Y219547D01*
X184655Y221009D01*
X154176Y251489D01*
X149095Y256569D01*
X147633Y257691D01*
X145930Y258397D01*
X144103Y258637D01*
X142276Y258397D01*
X140573Y257691D01*
X139111Y256569D01*
X137989Y255107D01*
X137283Y253404D01*
X137043Y251577D01*
X137283Y249750D01*
X137989Y248047D01*
X139111Y246584D01*
X144191Y241504D01*
X172603Y213092D01*
Y162677D01*
X172843Y160850D01*
X173549Y159147D01*
X174671Y157684D01*
X268651Y63705D01*
X270113Y62583D01*
X271816Y61877D01*
X273643Y61637D01*
X583929D01*
X592103Y53463D01*
Y43387D01*
X588913D01*
Y24947D01*
X177518D01*
X161796Y40669D01*
X160333Y41792D01*
X158630Y42497D01*
X156803Y42737D01*
X146643D01*
X144816Y42497D01*
X143113Y41792D01*
X141651Y40669D01*
X140529Y39207D01*
X139823Y37504D01*
X139583Y35677D01*
X139823Y33850D01*
X140529Y32147D01*
X141651Y30684D01*
X143113Y29562D01*
X144816Y28857D01*
X146643Y28617D01*
X153879D01*
X169601Y12895D01*
X171063Y11773D01*
X171607Y11547D01*
X171355Y10277D01*
X6943D01*
Y416677D01*
X222843D01*
Y607177D01*
X6943D01*
Y655437D01*
X895943D01*
Y10277D01*
D02*
G37*
%LPC*%
G36*
X871416Y648119D02*
X867870D01*
X864393Y647427D01*
X861117Y646070D01*
X858169Y644100D01*
X855662Y641593D01*
X853692Y638645D01*
X852335Y635369D01*
X851643Y631892D01*
Y628346D01*
X852335Y624869D01*
X853692Y621593D01*
X855662Y618645D01*
X858169Y616138D01*
X861117Y614168D01*
X864393Y612811D01*
X867870Y612119D01*
X871416D01*
X874893Y612811D01*
X878169Y614168D01*
X881117Y616138D01*
X883625Y618645D01*
X885594Y621593D01*
X886951Y624869D01*
X887643Y628346D01*
Y631892D01*
X886951Y635369D01*
X885594Y638645D01*
X883625Y641593D01*
X881117Y644100D01*
X878169Y646070D01*
X874893Y647427D01*
X871416Y648119D01*
D02*
G37*
G36*
X31416D02*
X27870D01*
X24393Y647427D01*
X21117Y646070D01*
X18169Y644100D01*
X15662Y641593D01*
X13692Y638645D01*
X12335Y635369D01*
X11643Y631892D01*
Y628346D01*
X12335Y624869D01*
X13692Y621593D01*
X15662Y618645D01*
X18169Y616138D01*
X21117Y614168D01*
X24393Y612811D01*
X27870Y612119D01*
X31416D01*
X34894Y612811D01*
X38169Y614168D01*
X41117Y616138D01*
X43625Y618645D01*
X45594Y621593D01*
X46951Y624869D01*
X47643Y628346D01*
Y631892D01*
X46951Y635369D01*
X45594Y638645D01*
X43625Y641593D01*
X41117Y644100D01*
X38169Y646070D01*
X34894Y647427D01*
X31416Y648119D01*
D02*
G37*
G36*
X793660Y600277D02*
X791027D01*
X788483Y599595D01*
X786203Y598279D01*
X784341Y596417D01*
X783025Y594137D01*
X782343Y591594D01*
Y588960D01*
X783025Y586417D01*
X784341Y584137D01*
X786203Y582275D01*
X788483Y580959D01*
X791027Y580277D01*
X793660D01*
X796203Y580959D01*
X798483Y582275D01*
X800345Y584137D01*
X801662Y586417D01*
X802343Y588960D01*
Y591594D01*
X801662Y594137D01*
X800345Y596417D01*
X798483Y598279D01*
X796203Y599595D01*
X793660Y600277D01*
D02*
G37*
G36*
X665560D02*
X662927D01*
X660383Y599595D01*
X658103Y598279D01*
X656241Y596417D01*
X654925Y594137D01*
X654243Y591594D01*
Y588960D01*
X654925Y586417D01*
X656241Y584137D01*
X658103Y582275D01*
X660383Y580959D01*
X662927Y580277D01*
X665560D01*
X668103Y580959D01*
X670383Y582275D01*
X672245Y584137D01*
X673562Y586417D01*
X674243Y588960D01*
Y591594D01*
X673562Y594137D01*
X672245Y596417D01*
X670383Y598279D01*
X668103Y599595D01*
X665560Y600277D01*
D02*
G37*
G36*
X861025Y571777D02*
X858261D01*
X855590Y571061D01*
X853196Y569679D01*
X851241Y567724D01*
X849859Y565330D01*
X849143Y562659D01*
Y559895D01*
X849859Y557224D01*
X851241Y554830D01*
X853196Y552875D01*
X855590Y551493D01*
X858261Y550777D01*
X861025D01*
X863696Y551493D01*
X866090Y552875D01*
X868045Y554830D01*
X869427Y557224D01*
X870143Y559895D01*
Y562659D01*
X869427Y565330D01*
X868045Y567724D01*
X866090Y569679D01*
X863696Y571061D01*
X861025Y571777D01*
D02*
G37*
G36*
X601025D02*
X598261D01*
X595590Y571061D01*
X593196Y569679D01*
X591241Y567724D01*
X589859Y565330D01*
X589143Y562659D01*
Y559895D01*
X589859Y557224D01*
X591241Y554830D01*
X593196Y552875D01*
X595590Y551493D01*
X598261Y550777D01*
X601025D01*
X603696Y551493D01*
X606090Y552875D01*
X608045Y554830D01*
X609427Y557224D01*
X610143Y559895D01*
Y562659D01*
X609427Y565330D01*
X608045Y567724D01*
X606090Y569679D01*
X603696Y571061D01*
X601025Y571777D01*
D02*
G37*
G36*
X535043Y501077D02*
X515043D01*
Y481077D01*
X535043D01*
Y501077D01*
D02*
G37*
G36*
X695223Y492277D02*
X692063D01*
X689011Y491459D01*
X686275Y489879D01*
X684041Y487645D01*
X682461Y484909D01*
X681643Y481857D01*
Y478697D01*
X682461Y475645D01*
X684041Y472909D01*
X686275Y470675D01*
X689011Y469095D01*
X692063Y468277D01*
X695223D01*
X698275Y469095D01*
X701011Y470675D01*
X703245Y472909D01*
X704825Y475645D01*
X705643Y478697D01*
Y481857D01*
X704825Y484909D01*
X703245Y487645D01*
X701011Y489879D01*
X698275Y491459D01*
X695223Y492277D01*
D02*
G37*
G36*
X526360Y475677D02*
X523727D01*
X521183Y474995D01*
X518903Y473679D01*
X517041Y471817D01*
X515725Y469537D01*
X515043Y466993D01*
Y464361D01*
X515725Y461817D01*
X517041Y459537D01*
X518903Y457675D01*
X521183Y456358D01*
X523727Y455677D01*
X526360D01*
X528903Y456358D01*
X531183Y457675D01*
X533045Y459537D01*
X534362Y461817D01*
X535043Y464361D01*
Y466993D01*
X534362Y469537D01*
X533045Y471817D01*
X531183Y473679D01*
X528903Y474995D01*
X526360Y475677D01*
D02*
G37*
G36*
X500960D02*
X498327D01*
X495783Y474995D01*
X493503Y473679D01*
X491641Y471817D01*
X490325Y469537D01*
X489643Y466993D01*
Y464361D01*
X490325Y461817D01*
X491641Y459537D01*
X493503Y457675D01*
X495783Y456358D01*
X498327Y455677D01*
X500960D01*
X503503Y456358D01*
X505783Y457675D01*
X507645Y459537D01*
X508962Y461817D01*
X509643Y464361D01*
Y466993D01*
X508962Y469537D01*
X507645Y471817D01*
X505783Y473679D01*
X503503Y474995D01*
X500960Y475677D01*
D02*
G37*
G36*
X861025Y469777D02*
X858261D01*
X855590Y469061D01*
X853196Y467679D01*
X851241Y465724D01*
X849859Y463330D01*
X849143Y460659D01*
Y457895D01*
X849859Y455224D01*
X851241Y452830D01*
X853196Y450875D01*
X855590Y449493D01*
X858261Y448777D01*
X861025D01*
X863696Y449493D01*
X866090Y450875D01*
X868045Y452830D01*
X869427Y455224D01*
X870143Y457895D01*
Y460659D01*
X869427Y463330D01*
X868045Y465724D01*
X866090Y467679D01*
X863696Y469061D01*
X861025Y469777D01*
D02*
G37*
G36*
X577427Y557152D02*
X412835D01*
X411469Y556880D01*
X410312Y556106D01*
X229146Y374941D01*
X228199D01*
X226361Y374180D01*
X224954Y372773D01*
X224193Y370936D01*
Y368946D01*
X224954Y367109D01*
X226361Y365702D01*
X228199Y364941D01*
X230188D01*
X232025Y365702D01*
X233432Y367109D01*
X234193Y368946D01*
Y369894D01*
X414313Y550014D01*
X575949D01*
X596074Y529889D01*
Y469191D01*
X595590Y469061D01*
X593196Y467679D01*
X591241Y465724D01*
X589859Y463330D01*
X589143Y460659D01*
Y457895D01*
X589859Y455224D01*
X591241Y452830D01*
X593196Y450875D01*
X595590Y449493D01*
X598261Y448777D01*
X601025D01*
X603696Y449493D01*
X606090Y450875D01*
X608045Y452830D01*
X609427Y455224D01*
X610143Y457895D01*
Y460659D01*
X609427Y463330D01*
X608045Y465724D01*
X606090Y467679D01*
X603696Y469061D01*
X603212Y469191D01*
Y531367D01*
X602940Y532733D01*
X602166Y533890D01*
X579950Y556106D01*
X578793Y556880D01*
X577427Y557152D01*
D02*
G37*
G36*
X526360Y450277D02*
X523727D01*
X521183Y449595D01*
X518903Y448279D01*
X517041Y446417D01*
X515725Y444137D01*
X515043Y441594D01*
Y438960D01*
X515725Y436417D01*
X517041Y434137D01*
X517341Y433837D01*
X516856Y432581D01*
X516000Y432485D01*
X514744Y433740D01*
X514744Y433741D01*
X509618Y438867D01*
X509643Y438960D01*
Y441594D01*
X508962Y444137D01*
X507645Y446417D01*
X505783Y448279D01*
X503503Y449595D01*
X500960Y450277D01*
X498327D01*
X495783Y449595D01*
X493503Y448279D01*
X491641Y446417D01*
X490325Y444137D01*
X489643Y441594D01*
Y438960D01*
X490325Y436417D01*
X491641Y434137D01*
X493503Y432275D01*
X495783Y430959D01*
X498327Y430277D01*
X500960D01*
X503503Y430959D01*
X505783Y432275D01*
X505950Y432441D01*
X509697Y428694D01*
X509698Y428694D01*
X512138Y426254D01*
X513295Y425480D01*
X514661Y425208D01*
X551760D01*
Y278247D01*
X552032Y276881D01*
X552806Y275724D01*
X581576Y246954D01*
X582733Y246180D01*
X584099Y245908D01*
X590247D01*
X590325Y245617D01*
X591641Y243337D01*
X593503Y241475D01*
X595783Y240159D01*
X598327Y239477D01*
X600960D01*
X603503Y240159D01*
X605783Y241475D01*
X607645Y243337D01*
X608962Y245617D01*
X609643Y248160D01*
Y250793D01*
X608962Y253337D01*
X607645Y255617D01*
X605783Y257479D01*
X603503Y258796D01*
X600960Y259477D01*
X598327D01*
X595783Y258796D01*
X593503Y257479D01*
X591641Y255617D01*
X590325Y253337D01*
X590247Y253046D01*
X585577D01*
X558898Y279725D01*
Y427020D01*
X558626Y428385D01*
X557853Y429543D01*
X556095Y431300D01*
X554937Y432074D01*
X553572Y432346D01*
X532913D01*
X532427Y433519D01*
X533045Y434137D01*
X534362Y436417D01*
X535043Y438960D01*
Y441594D01*
X534362Y444137D01*
X533045Y446417D01*
X531183Y448279D01*
X528903Y449595D01*
X526360Y450277D01*
D02*
G37*
G36*
X609643Y310277D02*
X589643D01*
Y290277D01*
X609643D01*
Y310277D01*
D02*
G37*
G36*
X500960Y424877D02*
X498327D01*
X495783Y424196D01*
X493503Y422879D01*
X491641Y421017D01*
X490325Y418737D01*
X489643Y416194D01*
Y413560D01*
X490325Y411017D01*
X491641Y408737D01*
X493503Y406875D01*
X495783Y405559D01*
X498327Y404877D01*
X500960D01*
X503503Y405559D01*
X503764Y405709D01*
X508620Y400854D01*
X509777Y400080D01*
X511143Y399808D01*
X520398D01*
X520738Y398538D01*
X518903Y397479D01*
X517041Y395617D01*
X515725Y393337D01*
X515043Y390793D01*
Y388161D01*
X515725Y385617D01*
X517041Y383337D01*
X518903Y381475D01*
X521183Y380159D01*
X523727Y379477D01*
X526360D01*
X528903Y380159D01*
X531183Y381475D01*
X533045Y383337D01*
X534362Y385617D01*
X534804Y387270D01*
X536074Y387103D01*
Y270119D01*
X536346Y268753D01*
X537120Y267596D01*
X583162Y221554D01*
X584319Y220780D01*
X585685Y220508D01*
X590247D01*
X590325Y220217D01*
X591641Y217937D01*
X593503Y216075D01*
X595783Y214758D01*
X598327Y214077D01*
X600960D01*
X603503Y214758D01*
X605783Y216075D01*
X607645Y217937D01*
X608962Y220217D01*
X609643Y222761D01*
Y225394D01*
X608962Y227937D01*
X607645Y230217D01*
X605783Y232079D01*
X603503Y233396D01*
X600960Y234077D01*
X598327D01*
X595783Y233396D01*
X593503Y232079D01*
X591641Y230217D01*
X590325Y227937D01*
X590247Y227646D01*
X587163D01*
X543212Y271597D01*
Y400119D01*
X542940Y401485D01*
X542166Y402642D01*
X538908Y405900D01*
X537751Y406674D01*
X536385Y406946D01*
X512621D01*
X508811Y410756D01*
X508962Y411017D01*
X509643Y413560D01*
Y416194D01*
X508962Y418737D01*
X507645Y421017D01*
X505783Y422879D01*
X503503Y424196D01*
X500960Y424877D01*
D02*
G37*
G36*
X600960Y208677D02*
X598327D01*
X595783Y207995D01*
X593503Y206679D01*
X591641Y204817D01*
X590325Y202537D01*
X589643Y199993D01*
Y197360D01*
X590325Y194817D01*
X591641Y192537D01*
X593503Y190675D01*
X595783Y189359D01*
X598327Y188677D01*
X600960D01*
X603503Y189359D01*
X605783Y190675D01*
X607645Y192537D01*
X608962Y194817D01*
X609643Y197360D01*
Y199993D01*
X608962Y202537D01*
X607645Y204817D01*
X605783Y206679D01*
X603503Y207995D01*
X600960Y208677D01*
D02*
G37*
G36*
Y157877D02*
X598327D01*
X595783Y157196D01*
X593503Y155879D01*
X591641Y154017D01*
X590325Y151737D01*
X589643Y149193D01*
Y146560D01*
X590325Y144017D01*
X591641Y141737D01*
X593503Y139875D01*
X595783Y138559D01*
X598327Y137877D01*
X600960D01*
X603503Y138559D01*
X605783Y139875D01*
X607645Y141737D01*
X608962Y144017D01*
X609643Y146560D01*
Y149193D01*
X608962Y151737D01*
X607645Y154017D01*
X605783Y155879D01*
X603503Y157196D01*
X600960Y157877D01*
D02*
G37*
G36*
X500960Y399477D02*
X498327D01*
X495783Y398796D01*
X493503Y397479D01*
X491641Y395617D01*
X490325Y393337D01*
X489643Y390793D01*
Y389462D01*
X459151Y358969D01*
X458029Y357507D01*
X457323Y355804D01*
X457083Y353977D01*
Y210937D01*
X457323Y209110D01*
X458029Y207407D01*
X459151Y205944D01*
X547611Y117485D01*
X549073Y116362D01*
X550776Y115657D01*
X552603Y115417D01*
X592561D01*
X593503Y114475D01*
X595783Y113159D01*
X598327Y112477D01*
X600960D01*
X603503Y113159D01*
X605783Y114475D01*
X607645Y116337D01*
X608962Y118617D01*
X609643Y121160D01*
Y123793D01*
X608962Y126337D01*
X607645Y128617D01*
X605783Y130479D01*
X603503Y131796D01*
X600960Y132477D01*
X598327D01*
X595783Y131796D01*
X593503Y130479D01*
X592561Y129537D01*
X555528D01*
X471203Y213862D01*
Y351053D01*
X499628Y379477D01*
X500960D01*
X503503Y380159D01*
X505783Y381475D01*
X507645Y383337D01*
X508962Y385617D01*
X509643Y388161D01*
Y390793D01*
X508962Y393337D01*
X507645Y395617D01*
X505783Y397479D01*
X503503Y398796D01*
X500960Y399477D01*
D02*
G37*
G36*
X559643Y523688D02*
X509643D01*
X508277Y523416D01*
X507120Y522642D01*
X497120Y512642D01*
X496346Y511485D01*
X496074Y510119D01*
Y500474D01*
X495783Y500396D01*
X493503Y499079D01*
X491641Y497217D01*
X490325Y494937D01*
X489643Y492393D01*
Y489761D01*
X490325Y487217D01*
X491641Y484937D01*
X493503Y483075D01*
X495783Y481758D01*
X498327Y481077D01*
X500960D01*
X503503Y481758D01*
X505783Y483075D01*
X507645Y484937D01*
X508962Y487217D01*
X509643Y489761D01*
Y492393D01*
X508962Y494937D01*
X507645Y497217D01*
X505783Y499079D01*
X503503Y500396D01*
X503212Y500474D01*
Y508641D01*
X511121Y516550D01*
X558165D01*
X569795Y504921D01*
Y284851D01*
X570066Y283485D01*
X570840Y282328D01*
X580814Y272354D01*
X581972Y271580D01*
X583337Y271308D01*
X590247D01*
X590325Y271017D01*
X591641Y268737D01*
X593503Y266875D01*
X595783Y265558D01*
X598327Y264877D01*
X600960D01*
X603503Y265558D01*
X603764Y265709D01*
X633294Y236179D01*
Y100206D01*
X531661D01*
X497146Y134720D01*
X495989Y135494D01*
X494623Y135766D01*
X393986D01*
X393315Y136436D01*
X391478Y137197D01*
X389488D01*
X387651Y136436D01*
X386244Y135029D01*
X385483Y133192D01*
Y131202D01*
X386244Y129365D01*
X387651Y127958D01*
X389488Y127197D01*
X391478D01*
X393315Y127958D01*
X393986Y128628D01*
X493145D01*
X527660Y94114D01*
X528817Y93340D01*
X530183Y93068D01*
X635106D01*
X636471Y93340D01*
X637629Y94114D01*
X639386Y95871D01*
X640160Y97029D01*
X640432Y98394D01*
Y237657D01*
X640160Y239023D01*
X639386Y240180D01*
X608811Y270756D01*
X608962Y271017D01*
X609643Y273561D01*
Y276194D01*
X608962Y278737D01*
X607645Y281017D01*
X605783Y282879D01*
X603503Y284195D01*
X600960Y284877D01*
X598327D01*
X595783Y284195D01*
X593503Y282879D01*
X591641Y281017D01*
X590325Y278737D01*
X590247Y278446D01*
X584815D01*
X576932Y286329D01*
Y506399D01*
X576660Y507765D01*
X575886Y508922D01*
X562166Y522642D01*
X561009Y523416D01*
X559643Y523688D01*
D02*
G37*
G36*
X835043Y40277D02*
X815043D01*
Y20277D01*
X835043D01*
Y40277D01*
D02*
G37*
G36*
X800960D02*
X798326D01*
X795783Y39595D01*
X793503Y38279D01*
X791641Y36417D01*
X790325Y34137D01*
X789643Y31593D01*
Y28960D01*
X790325Y26417D01*
X791641Y24137D01*
X793503Y22275D01*
X795783Y20958D01*
X798326Y20277D01*
X800960D01*
X803503Y20958D01*
X805783Y22275D01*
X807645Y24137D01*
X808962Y26417D01*
X809643Y28960D01*
Y31593D01*
X808962Y34137D01*
X807645Y36417D01*
X805783Y38279D01*
X803503Y39595D01*
X800960Y40277D01*
D02*
G37*
G36*
X775560D02*
X772926D01*
X770383Y39595D01*
X768103Y38279D01*
X766241Y36417D01*
X764925Y34137D01*
X764243Y31593D01*
Y28960D01*
X764925Y26417D01*
X766241Y24137D01*
X768103Y22275D01*
X770383Y20958D01*
X772926Y20277D01*
X775560D01*
X778103Y20958D01*
X780383Y22275D01*
X782245Y24137D01*
X783562Y26417D01*
X784243Y28960D01*
Y31593D01*
X783562Y34137D01*
X782245Y36417D01*
X780383Y38279D01*
X778103Y39595D01*
X775560Y40277D01*
D02*
G37*
G36*
X750160D02*
X747526D01*
X744983Y39595D01*
X742703Y38279D01*
X740841Y36417D01*
X739525Y34137D01*
X738843Y31593D01*
Y28960D01*
X739525Y26417D01*
X740841Y24137D01*
X742703Y22275D01*
X744983Y20958D01*
X747526Y20277D01*
X750160D01*
X752703Y20958D01*
X754983Y22275D01*
X756845Y24137D01*
X758162Y26417D01*
X758843Y28960D01*
Y31593D01*
X758162Y34137D01*
X756845Y36417D01*
X754983Y38279D01*
X752703Y39595D01*
X750160Y40277D01*
D02*
G37*
G36*
X871416Y48119D02*
X867870D01*
X864393Y47427D01*
X861117Y46070D01*
X858169Y44100D01*
X855662Y41593D01*
X853692Y38645D01*
X852335Y35369D01*
X851643Y31892D01*
Y28346D01*
X852335Y24869D01*
X853692Y21593D01*
X855662Y18645D01*
X858169Y16137D01*
X861117Y14168D01*
X864393Y12811D01*
X867870Y12119D01*
X871416D01*
X874893Y12811D01*
X878169Y14168D01*
X881117Y16137D01*
X883625Y18645D01*
X885594Y21593D01*
X886951Y24869D01*
X887643Y28346D01*
Y31892D01*
X886951Y35369D01*
X885594Y38645D01*
X883625Y41593D01*
X881117Y44100D01*
X878169Y46070D01*
X874893Y47427D01*
X871416Y48119D01*
D02*
G37*
G36*
X31416D02*
X27870D01*
X24393Y47427D01*
X21117Y46070D01*
X18169Y44100D01*
X15662Y41593D01*
X13692Y38645D01*
X12335Y35369D01*
X11643Y31892D01*
Y28346D01*
X12335Y24869D01*
X13692Y21593D01*
X15662Y18645D01*
X18169Y16137D01*
X21117Y14168D01*
X24393Y12811D01*
X27870Y12119D01*
X31416D01*
X34894Y12811D01*
X38169Y14168D01*
X41117Y16137D01*
X43625Y18645D01*
X45594Y21593D01*
X46951Y24869D01*
X47643Y28346D01*
Y31892D01*
X46951Y35369D01*
X45594Y38645D01*
X43625Y41593D01*
X41117Y44100D01*
X38169Y46070D01*
X34894Y47427D01*
X31416Y48119D01*
D02*
G37*
%LPD*%
D22*
X708943Y45277D02*
X713043Y41177D01*
X677089Y45277D02*
X708943D01*
X649699Y17887D02*
X677089Y45277D01*
X713043D02*
Y98419D01*
X652044Y122536D02*
X661263D01*
X146643Y35677D02*
X156803D01*
X144103Y251577D02*
X149183Y246497D01*
X179663Y216017D01*
Y162677D02*
Y216017D01*
X713043Y41177D02*
Y45277D01*
X661263Y122536D02*
X661284Y122558D01*
X688904D01*
X713043Y98419D01*
X586853Y68697D02*
X599163Y56387D01*
X179663Y162677D02*
X273643Y68697D01*
X586853D01*
X713043Y41177D02*
X723443Y30777D01*
X156803Y35677D02*
X174593Y17887D01*
X649699D01*
X723443Y30277D02*
Y30777D01*
X599163Y33137D02*
Y56387D01*
X552603Y122477D02*
X599643D01*
X464143Y210937D02*
X552603Y122477D01*
X464143Y210937D02*
Y353977D01*
X499643Y389477D01*
D24*
X585685Y224077D02*
X599643D01*
X539643Y270119D02*
Y400119D01*
Y270119D02*
X585685Y224077D01*
X536385Y403377D02*
X539643Y400119D01*
X499643Y414877D02*
X511143Y403377D01*
X536385D01*
X509643Y520119D02*
X559643D01*
X573363Y284851D02*
Y506399D01*
X559643Y520119D02*
X573363Y506399D01*
X499643Y491077D02*
Y510119D01*
X509643Y520119D01*
X577427Y553583D02*
X599643Y531367D01*
Y459277D02*
Y531367D01*
X530183Y96637D02*
X635106D01*
X636863Y98394D01*
Y237657D01*
X494623Y132197D02*
X530183Y96637D01*
X390483Y132197D02*
X494623D01*
X599643Y274877D02*
X636863Y237657D01*
X412835Y553583D02*
X577427D01*
X229193Y369941D02*
X412835Y553583D01*
X512221Y431217D02*
X512221D01*
X514661Y428777D01*
X553572D01*
X503161Y440277D02*
X512221Y431217D01*
X555329Y278247D02*
Y427020D01*
X553572Y428777D02*
X555329Y427020D01*
X499643Y440277D02*
X503161D01*
X555329Y278247D02*
X584099Y249477D01*
X599643D01*
X583337Y274877D02*
X599643D01*
X573363Y284851D02*
X583337Y274877D01*
D25*
X540000Y590000D02*
D03*
X480000D02*
D03*
X420000D02*
D03*
X360000D02*
D03*
X300000D02*
D03*
X570000Y630000D02*
D03*
X510000D02*
D03*
X450000D02*
D03*
X390000D02*
D03*
X330000D02*
D03*
X270000D02*
D03*
X149643Y125119D02*
D03*
X124643Y75119D02*
D03*
Y175119D02*
D03*
X99643Y125119D02*
D03*
X74643Y75119D02*
D03*
X49643Y125119D02*
D03*
X74643Y175119D02*
D03*
X49643Y225119D02*
D03*
Y275119D02*
D03*
Y325119D02*
D03*
D26*
X499643Y491077D02*
D03*
Y465677D02*
D03*
Y440277D02*
D03*
Y414877D02*
D03*
Y389477D02*
D03*
X525043Y465677D02*
D03*
Y440277D02*
D03*
Y414877D02*
D03*
Y389477D02*
D03*
X799643Y30277D02*
D03*
X774243D02*
D03*
X748843D02*
D03*
X723443D02*
D03*
X698043D02*
D03*
X599643Y122477D02*
D03*
Y147877D02*
D03*
Y173277D02*
D03*
Y198677D02*
D03*
Y224077D02*
D03*
Y249477D02*
D03*
Y274877D02*
D03*
X664243Y590277D02*
D03*
X689643D02*
D03*
X766943D02*
D03*
X792343D02*
D03*
D27*
X525043Y491077D02*
D03*
X599643Y300277D02*
D03*
D28*
X624163Y33137D02*
D03*
D29*
X599163D02*
D03*
D30*
X825043Y30277D02*
D03*
D31*
X693643Y480277D02*
D03*
X769643D02*
D03*
D32*
X859643Y459277D02*
D03*
Y561277D02*
D03*
X599643D02*
D03*
Y459277D02*
D03*
D33*
X869643Y630119D02*
D03*
Y30119D02*
D03*
X29643D02*
D03*
Y630119D02*
D03*
D34*
X144103Y251577D02*
D03*
X652044Y122536D02*
D03*
X146643Y35677D02*
D03*
X390483Y132197D02*
D03*
X181462Y74602D02*
D03*
X178188Y329259D02*
D03*
X171854Y74620D02*
D03*
X169383Y329277D02*
D03*
X229193Y369941D02*
D03*
M02*
