G04*
G04 #@! TF.GenerationSoftware,Altium Limited,Altium Designer,21.4.1 (30)*
G04*
G04 Layer_Color=16711935*
%FSLAX44Y44*%
%MOMM*%
G71*
G04*
G04 #@! TF.SameCoordinates,02D7BDB2-D434-4152-92C4-171F5B89420C*
G04*
G04*
G04 #@! TF.FilePolarity,Negative*
G04*
G01*
G75*
%ADD13C,1.7240*%
%ADD14C,1.8000*%
%ADD15R,1.8000X1.8000*%
%ADD16C,1.8500*%
%ADD17R,1.8500X1.8500*%
%ADD18R,1.8000X1.8000*%
%ADD19C,2.2000*%
%ADD20C,1.9000*%
%ADD21C,3.4000*%
D13*
X540000Y590000D02*
D03*
X480000D02*
D03*
X420000D02*
D03*
X360000D02*
D03*
X300000D02*
D03*
X570000Y630000D02*
D03*
X510000D02*
D03*
X450000D02*
D03*
X390000D02*
D03*
X330000D02*
D03*
X270000D02*
D03*
X149643Y125119D02*
D03*
X124643Y75119D02*
D03*
Y175119D02*
D03*
X99643Y125119D02*
D03*
X74643Y75119D02*
D03*
X49643Y125119D02*
D03*
X74643Y175119D02*
D03*
X49643Y225119D02*
D03*
Y275119D02*
D03*
Y325119D02*
D03*
D14*
X499643Y491077D02*
D03*
Y465677D02*
D03*
Y440277D02*
D03*
Y414877D02*
D03*
Y389477D02*
D03*
X525043Y465677D02*
D03*
Y440277D02*
D03*
Y414877D02*
D03*
Y389477D02*
D03*
X799643Y30277D02*
D03*
X774243D02*
D03*
X748843D02*
D03*
X723443D02*
D03*
X698043D02*
D03*
X599643Y122477D02*
D03*
Y147877D02*
D03*
Y173277D02*
D03*
Y198677D02*
D03*
Y224077D02*
D03*
Y249477D02*
D03*
Y274877D02*
D03*
X664243Y590277D02*
D03*
X689643D02*
D03*
X766943D02*
D03*
X792343D02*
D03*
D15*
X525043Y491077D02*
D03*
X599643Y300277D02*
D03*
D16*
X624163Y33137D02*
D03*
D17*
X599163D02*
D03*
D18*
X825043Y30277D02*
D03*
D19*
X693643Y480277D02*
D03*
X769643D02*
D03*
D20*
X859643Y459277D02*
D03*
Y561277D02*
D03*
X599643D02*
D03*
Y459277D02*
D03*
D21*
X869643Y630119D02*
D03*
Y30119D02*
D03*
X29643D02*
D03*
Y630119D02*
D03*
M02*
